# Blender v2.91.0 OBJ File: ''
# www.blender.org
mtllib seagull_flying.mtl
o Plane_Plane.016
v -7.637975 0.845812 2.416896
v 5.003423 1.279499 -0.306748
v -7.637975 0.845812 -2.416896
v 5.003423 1.279499 0.306747
v -2.436044 -0.903012 0.493320
v 0.775284 -0.903012 0.493320
v 0.775284 -0.903012 -0.493320
v -2.436044 -0.903012 -0.493320
v -0.346926 1.078219 8.000218
v 0.212927 1.078219 8.000218
v 0.212927 1.078219 -8.000218
v -0.346926 1.078219 -8.000218
v 2.217803 1.751901 -4.500109
v 2.217803 1.751901 4.500109
v -6.221535 0.845812 -0.000000
v -0.234089 1.751901 -4.500109
v -0.234089 1.751901 4.500109
v 2.805870 0.586291 0.751354
v 2.805870 0.586291 -0.751354
v -6.221535 1.097022 -0.000000
v -7.637975 1.097022 2.416896
v 2.805870 1.894574 0.751354
v 5.003423 0.745380 -0.306748
v 5.003423 0.745380 0.306747
v -7.637975 1.097022 -2.416896
v -2.942724 1.159276 1.000000
v 1.281963 1.159276 1.000000
v 2.805870 1.894574 -0.751354
v 1.281963 1.159276 -1.000000
v -2.942724 1.159276 -1.000000
v -0.346926 1.283869 8.000218
v 0.212927 1.283869 8.000218
v 0.212927 1.283869 -8.000218
v -0.346926 1.283869 -8.000218
v -0.234089 2.112397 -4.500109
v 2.217803 2.112397 -4.500109
v 2.217803 2.112397 4.500109
v -0.234089 2.112397 4.500109
v 4.344599 1.894574 -0.751354
v 4.344599 0.586291 -0.751354
v 4.344599 1.894574 0.751354
v 4.344599 0.586291 0.751354
v 6.238192 0.935663 0.306747
v 6.238192 1.089216 0.306747
v 6.238192 1.089216 -0.306748
v 6.238192 0.935663 -0.306748
v -2.942724 -0.496559 1.000000
v 1.281963 -0.496559 1.000000
v 1.281963 -0.496559 -1.000000
v -2.942724 -0.496559 -1.000000
v 3.575235 2.044387 -0.923432
v 3.575235 2.044387 0.923431
v 3.575235 0.436477 -0.923432
v 3.575235 0.436477 0.923431
vt 0.833333 1.000000
vt 0.833333 1.000000
vt 0.833333 1.000000
vt 0.833333 1.000000
vt 0.373311 0.253340
vt 0.373311 0.746660
vt 0.626689 0.746660
vt 0.626689 0.253340
vt 0.333333 1.000000
vt 0.000000 0.000000
vt 0.000000 0.000000
vt 0.666667 1.000000
vt 0.000000 0.000000
vt 0.000000 0.000000
vt 0.333333 0.000000
vt 0.666667 0.000000
vt 0.000000 0.000000
vt 0.000000 0.000000
vt 0.000000 0.000000
vt 0.000000 0.000000
vt 0.000000 1.000000
vt 0.000000 1.000000
vt 0.333333 1.000000
vt 0.833333 0.000000
vt 0.833333 0.000000
vt 0.333333 0.000000
vt 0.666667 0.000000
vt 0.666667 1.000000
vt 0.000000 0.000000
vt 0.000000 0.000000
vt 0.000000 0.000000
vt 0.000000 0.000000
vt 0.833333 1.000000
vt 0.833333 0.000000
vt 0.000000 0.000000
vt 0.000000 0.000000
vt 0.000000 0.000000
vt 0.000000 0.000000
vt 0.000000 0.500000
vt 0.833333 0.000000
vt 0.833333 1.000000
vt 0.833333 0.000000
vt 0.833333 0.000000
vt 0.000000 0.500000
vt 0.000000 0.000000
vt 0.000000 0.000000
vt 0.833333 0.000000
vt 0.833333 0.000000
vt 0.833333 0.000000
vt 0.833333 0.000000
vt 0.833333 1.000000
vt 0.833333 1.000000
vt 0.833333 1.000000
vt 0.833333 1.000000
vt 0.000000 0.000000
vn 0.5594 0.0000 -0.8289
vn 0.0000 -1.0000 0.0000
vn 0.0000 -0.8414 -0.5405
vn 0.0000 -0.9820 0.1890
vn 0.0000 -0.8414 0.5405
vn 0.0000 -0.9820 -0.1890
vn 0.2889 0.0000 -0.9574
vn 0.6824 0.7310 0.0000
vn 0.0000 1.0000 0.0000
vn 0.0000 0.9649 0.2627
vn 0.0000 0.9731 -0.2303
vn 0.5792 -0.8152 0.0000
vn 0.0000 0.9649 -0.2627
vn 0.0000 0.9731 0.2303
vn -0.0161 0.9998 0.0094
vn 0.8677 0.0000 -0.4970
vn -0.4346 0.9006 0.0000
vn 0.1610 0.0000 -0.9869
vn 0.9661 0.0000 -0.2583
vn 0.2347 -0.9721 0.0000
vn -0.8628 0.0000 -0.5056
vn -0.9995 0.0000 -0.0322
vn -0.0000 0.0000 1.0000
vn 0.9661 0.0000 0.2583
vn 0.5594 0.0000 0.8289
vn 0.8677 0.0000 0.4970
vn 0.2889 0.0000 0.9574
vn -0.8628 0.0000 0.5056
vn 0.0000 0.0000 -1.0000
vn -0.9995 0.0000 0.0322
vn -0.7908 0.0000 -0.6120
vn -0.7908 0.0000 0.6120
vn -0.0190 0.9998 0.0000
vn 0.2183 0.0000 0.9759
vn 0.1911 -0.9816 0.0000
vn 0.1911 0.9816 0.0000
vn 0.2183 0.0000 -0.9759
vn 1.0000 0.0000 0.0000
vn 0.1523 0.9883 0.0000
vn 0.1523 -0.9883 0.0000
vn 0.1610 0.0000 0.9869
vn -0.0161 0.9998 -0.0094
vn -0.3789 -0.9254 0.0000
vn -0.3222 -0.9276 -0.1888
vn -0.3222 -0.9276 0.1888
vn 0.0000 -0.7800 0.6257
vn 0.0000 -0.7800 -0.6257
vn -0.6257 -0.7800 0.0000
vn 0.6257 -0.7800 0.0000
vn -0.2183 0.0000 -0.9759
vn -0.1911 0.9816 0.0000
vn -0.1911 -0.9816 0.0000
vn -0.2183 0.0000 0.9759
usemtl None
s off
f 40/1/1 39/2/1 2/3/1 23/4/1
f 5/5/2 8/6/2 7/7/2 6/8/2
f 50/9/3 16/10/3 13/11/3 49/12/3
f 11/13/4 13/11/4 16/10/4 12/14/4
f 47/15/5 48/16/5 14/17/5 17/18/5
f 9/19/6 17/18/6 14/17/6 10/20/6
f 50/9/7 3/21/7 25/22/7 30/23/7
f 39/2/8 41/24/8 4/25/8 2/3/8
f 26/26/9 27/27/9 29/28/9 30/23/9
f 30/23/10 29/28/10 36/29/10 35/30/10
f 33/31/11 34/32/11 35/30/11 36/29/11
f 48/16/12 49/12/12 19/33/12 18/34/12
f 26/26/13 38/35/13 37/36/13 27/27/13
f 31/37/14 32/38/14 37/36/14 38/35/14
f 25/22/15 20/39/15 30/23/15
f 11/13/16 33/31/16 36/29/16 13/11/16
f 27/27/17 22/40/17 28/41/17 29/28/17
f 19/33/18 49/12/18 29/28/18 28/41/18
f 14/17/19 48/16/19 27/27/19 37/36/19
f 42/42/20 40/1/20 23/4/20 24/43/20
f 15/44/21 1/45/21 21/46/21 20/39/21
f 17/18/22 9/19/22 31/37/22 38/35/22
f 4/25/23 24/43/23 43/47/23 44/48/23
f 49/12/24 13/11/24 36/29/24 29/28/24
f 41/24/25 42/42/25 24/43/25 4/25/25
f 10/20/26 14/17/26 37/36/26 32/38/26
f 9/19/23 10/20/23 32/38/23 31/37/23
f 1/45/27 47/15/27 26/26/27 21/46/27
f 3/21/28 15/44/28 20/39/28 25/22/28
f 12/14/29 34/32/29 33/31/29 11/13/29
f 16/10/30 35/30/30 34/32/30 12/14/30
f 16/10/31 50/9/31 30/23/31 35/30/31
f 47/15/32 17/18/32 38/35/32 26/26/32
f 26/26/33 30/23/33 20/39/33
f 52/49/34 54/50/34 42/42/34 41/24/34
f 54/50/35 53/51/35 40/1/35 42/42/35
f 51/52/36 52/49/36 41/24/36 39/2/36
f 53/51/37 51/52/37 39/2/37 40/1/37
f 46/53/38 45/54/38 44/48/38 43/47/38
f 23/4/29 2/3/29 45/54/29 46/53/29
f 2/3/39 4/25/39 44/48/39 45/54/39
f 24/43/40 23/4/40 46/53/40 43/47/40
f 48/16/41 18/34/41 22/40/41 27/27/41
f 21/46/42 26/26/42 20/39/42
f 50/9/43 47/15/43 15/55/43
f 15/55/44 47/15/44 1/45/44
f 3/21/45 50/9/45 15/55/45
f 5/5/46 6/8/46 48/16/46 47/15/46
f 7/7/47 8/6/47 50/9/47 49/12/47
f 8/6/48 5/5/48 47/15/48 50/9/48
f 6/8/49 7/7/49 49/12/49 48/16/49
f 19/33/50 28/41/50 51/52/50 53/51/50
f 28/41/51 22/40/51 52/49/51 51/52/51
f 18/34/52 19/33/52 53/51/52 54/50/52
f 22/40/53 18/34/53 54/50/53 52/49/53
