# Blender v2.83.4 OBJ File: ''
# www.blender.org
mtllib bush.mtl
o Mball.006_Mesh.003
v 1.350000 0.540726 1.361673
v 1.350000 1.316022 1.533828
v 1.509733 1.316022 1.350000
v 1.360502 0.540726 1.350000
v 0.450000 2.711186 -0.450000
v 1.226880 2.091318 -0.450000
v 1.350000 2.091318 -0.181843
v 1.350000 2.211268 0.450000
v 0.605623 2.866614 0.450000
v 0.450000 2.866614 -0.130805
v 0.450000 2.921748 0.450000
v 0.450000 2.866614 0.660910
v -0.314754 2.866614 0.450000
v -1.350000 0.540726 -0.672062
v -0.913092 0.540726 -1.350000
v -0.977877 1.316022 -1.350000
v -1.350000 1.316022 -0.597595
v -1.350000 -0.029273 0.450000
v -1.350000 0.248738 -0.450000
v -1.474366 0.540726 -0.450000
v -1.708596 0.540726 0.450000
v -1.350000 0.540726 1.203772
v -1.675650 1.316022 0.450000
v -1.350000 1.316022 1.170185
v -1.350000 1.785034 0.450000
v -0.450000 2.809845 0.450000
v 0.450000 2.356473 1.350000
v -0.418984 2.091318 1.350000
v -0.450000 2.091318 1.334665
v 0.450000 2.091318 1.542723
v -0.450000 0.540726 1.648415
v -1.153711 0.540726 1.350000
v -1.127298 1.316022 1.350000
v -0.450000 1.316022 1.703235
v 1.350000 1.952585 -0.450000
v 1.801030 1.316022 -0.450000
v 1.884320 1.316022 0.450000
v 1.438532 2.091318 0.450000
v 1.350000 -0.067287 0.450000
v 1.841405 0.540726 0.450000
v 1.823569 0.540726 -0.450000
v 1.350000 -0.085859 -0.450000
v 1.350000 1.621991 1.350000
v 0.941010 2.091318 1.350000
v 1.350000 2.091318 0.789865
v 1.350000 0.529636 1.350000
v 0.450000 0.032279 1.350000
v 0.450000 0.540726 1.752873
v -0.450000 0.053695 1.350000
v -1.123299 2.091318 0.450000
v -0.897404 2.091318 -0.450000
v -0.450000 2.568490 -0.450000
v -1.350000 1.439853 -0.450000
v -0.450000 2.068244 1.350000
v 1.350000 0.540726 -1.217135
v 0.450000 -0.011830 -1.350000
v 1.208819 0.540726 -1.350000
v 0.450000 0.540726 -1.779881
v -0.450000 0.049149 -1.350000
v -0.450000 0.540726 -1.746742
v 0.450000 2.091318 -1.121537
v -0.450000 2.091318 -1.014950
v 1.150778 -0.234570 0.450000
v 0.450000 -0.234570 1.075451
v -1.028608 -0.234570 -0.450000
v -0.450000 -0.234570 -1.065858
v 0.450000 1.899706 -1.350000
v 1.237393 1.316022 -1.350000
v 1.350000 1.316022 -1.230127
v 0.450000 -0.461219 0.450000
v 1.184454 -0.234570 -0.450000
v 0.450000 -0.465454 -0.450000
v 0.450000 1.316022 1.888216
v -0.450000 1.843548 -1.350000
v -0.450000 1.316022 -1.841676
v 0.450000 1.316022 -1.858329
v -0.450000 -0.460132 -0.450000
v 0.450000 -0.234570 -1.113196
v -0.450000 -0.468242 0.450000
v -0.450000 -0.234570 1.098485
v -1.155156 -0.234570 0.450000
v -1.424119 1.316022 -0.450000
vn 0.7463 -0.1440 0.6498
vn 0.5943 0.7826 -0.1856
vn 0.6672 0.7060 -0.2373
vn 0.3326 0.9388 -0.0891
vn 0.3242 0.9152 0.2392
vn -0.0696 0.9651 0.2523
vn -0.0716 0.9930 -0.0943
vn -0.8703 -0.0127 -0.4923
vn -0.8572 -0.4803 -0.1857
vn -0.8178 -0.3483 -0.4580
vn -0.7852 -0.4940 0.3735
vn -0.9067 0.0284 0.4209
vn -0.7700 0.5346 0.3482
vn -0.1899 0.7762 0.6013
vn -0.2332 0.7560 0.6116
vn -0.1766 0.5787 0.7962
vn -0.4266 -0.0247 0.9041
vn 0.7074 0.6278 -0.3248
vn 0.8379 0.5322 -0.1210
vn 0.9565 0.2591 -0.1340
vn 0.7879 -0.6158 -0.0015
vn 0.6605 0.5755 0.4822
vn 0.7023 0.3666 0.6102
vn 0.6079 -0.5757 0.5469
vn 0.3238 -0.5901 0.7396
vn -0.0542 -0.5751 0.8163
vn -0.7177 0.6727 -0.1803
vn -0.7977 0.5658 -0.2086
vn -0.3808 0.5118 0.7701
vn -0.4269 0.3844 0.8185
vn -0.3400 -0.4913 0.8019
vn 0.3026 0.5604 0.7710
vn 0.7157 -0.5409 -0.4418
vn 0.7875 0.5812 0.2051
vn 0.7171 -0.5814 0.3844
vn 0.4082 -0.5606 -0.7205
vn -0.0354 -0.6203 -0.7835
vn 0.5058 0.6339 -0.5851
vn -0.0981 0.7444 -0.6605
vn 0.5883 0.6556 0.4733
vn 0.4424 0.8404 0.3131
vn 0.4413 -0.7299 0.5221
vn 0.5282 -0.6089 0.5918
vn -0.5547 -0.5226 -0.6475
vn -0.6317 0.5923 -0.5002
vn -0.6560 -0.4881 -0.5756
vn -0.6742 -0.5410 -0.5028
vn -0.6379 0.5978 0.4855
vn 0.5077 0.6722 -0.5389
vn 0.5334 0.6065 -0.5896
vn 0.7995 0.5901 -0.1120
vn 0.9983 -0.0131 -0.0561
vn 0.3037 -0.9527 0.0079
vn 0.3709 0.3596 0.8563
vn 0.3198 0.4880 0.8122
vn -0.0609 0.7871 -0.6138
vn -0.0277 0.6687 -0.7430
vn -0.0275 -0.1111 -0.9934
vn -0.0116 -0.9418 -0.3361
vn -0.2010 0.9315 -0.3032
vn -0.3448 0.8215 -0.4540
vn 0.0009 -1.0000 -0.0022
vn 0.0080 -0.9405 0.3398
vn -0.3367 -0.9412 -0.0279
vn -0.2020 0.3956 0.8959
vn -0.1829 0.4179 0.8899
vn -0.1576 -0.1202 0.9802
vn 0.0011 -0.6879 0.7258
vn -0.7880 0.4717 -0.3957
vn -0.8092 0.5457 -0.2177
vn -0.9642 0.0517 -0.2602
vn -0.7914 -0.5933 -0.1473
vn -0.4661 -0.6980 0.5437
vn -0.5695 -0.5404 0.6193
vn 0.7055 -0.0189 -0.7084
vn 0.7380 0.5229 -0.4266
vn 0.8584 0.0082 -0.5129
vn 0.8406 0.4420 0.3132
vn 0.8317 0.4342 0.3461
vn 0.8976 -0.1112 0.4266
vn 0.6546 -0.7557 0.0200
vn 0.4377 0.5905 -0.6780
vn 0.5180 -0.0527 -0.8537
vn 0.5326 -0.6108 -0.5858
vn 0.4951 -0.6747 -0.5474
vn 0.2846 -0.9053 -0.3152
vn 0.3764 -0.1802 0.9088
vn 0.2909 -0.8995 0.3260
vn -0.5631 0.5635 -0.6045
vn -0.6657 -0.0733 -0.7426
vn -0.0426 -0.7164 -0.6964
vn -0.6797 0.6343 -0.3683
vn -0.6917 0.5307 -0.4899
vn -0.8799 0.0512 -0.4724
vn -0.3437 -0.8818 -0.3230
vn -0.6881 0.4982 0.5276
vn -0.6175 0.6245 0.4782
vn -0.6139 0.0275 0.7889
vn -0.2976 -0.8982 0.3236
usemtl None
s off
f 4//1 3//1 2//1 1//1
f 8//2 7//2 6//2 5//2
f 10//3 9//3 8//3 5//3
f 9//4 10//4 11//4
f 12//5 9//5 11//5
f 13//6 12//6 11//6
f 10//7 13//7 11//7
f 17//8 16//8 15//8 14//8
f 21//9 20//9 19//9 18//9
f 20//10 14//10 19//10
f 22//11 21//11 18//11
f 24//12 23//12 21//12 22//12
f 23//13 24//13 25//13
f 27//14 12//14 13//14 26//14
f 29//15 28//15 27//15 26//15
f 28//16 30//16 27//16
f 34//17 33//17 32//17 31//17
f 6//18 7//18 35//18
f 38//19 37//19 36//19 35//19
f 7//20 38//20 35//20
f 42//21 41//21 40//21 39//21
f 45//22 44//22 43//22
f 2//23 3//23 43//23
f 4//24 1//24 46//24
f 46//25 1//25 48//25 47//25
f 47//26 48//26 31//26 49//26
f 52//27 51//27 50//27 26//27
f 50//28 51//28 53//28 25//28
f 28//29 29//29 54//29
f 33//30 34//30 54//30
f 31//31 32//31 49//31
f 30//32 44//32 27//32
f 55//33 41//33 42//33
f 45//34 38//34 8//34
f 39//35 40//35 4//35 46//35
f 58//36 57//36 56//36
f 60//37 58//37 56//37 59//37
f 6//38 61//38 5//38
f 5//39 61//39 62//39 52//39
f 8//40 9//40 12//40 27//40
f 44//41 45//41 8//41 27//41
f 63//42 39//42 46//42 47//42
f 64//43 63//43 47//43
f 15//44 60//44 59//44
f 62//45 51//45 52//45
f 59//46 66//46 65//46 19//46
f 14//47 15//47 59//47 19//47
f 50//48 29//48 26//48
f 35//49 69//49 68//49 67//49
f 61//50 6//50 35//50 67//50
f 38//51 7//51 8//51
f 41//52 36//52 37//52 40//52
f 72//53 71//53 63//53 70//53
f 43//54 44//54 30//54 73//54
f 2//55 43//55 73//55
f 62//56 61//56 67//56 74//56
f 67//57 76//57 75//57 74//57
f 75//58 76//58 58//58 60//58
f 66//59 78//59 72//59 77//59
f 10//60 5//60 52//60 26//60
f 13//61 10//61 26//61
f 77//62 72//62 70//62 79//62
f 70//63 64//63 80//63 79//63
f 81//64 65//64 77//64 79//64
f 73//65 30//65 28//65 54//65
f 34//66 73//66 54//66
f 48//67 73//67 34//67 31//67
f 80//68 64//68 47//68 49//68
f 17//69 82//69 53//69
f 53//70 82//70 23//70 25//70
f 23//71 82//71 20//71 21//71
f 19//72 65//72 81//72 18//72
f 49//73 32//73 22//73 18//73
f 81//74 80//74 49//74 18//74
f 57//75 68//75 69//75 55//75
f 36//76 69//76 35//76
f 69//77 36//77 41//77 55//77
f 37//78 38//78 45//78 43//78
f 3//79 37//79 43//79
f 40//80 37//80 3//80 4//80
f 63//81 71//81 42//81 39//81
f 68//82 76//82 67//82
f 76//83 68//83 57//83 58//83
f 42//84 71//84 78//84 56//84
f 57//85 55//85 42//85 56//85
f 78//86 71//86 72//86
f 1//87 2//87 73//87 48//87
f 63//88 64//88 70//88
f 75//89 16//89 74//89
f 15//90 16//90 75//90 60//90
f 56//91 78//91 66//91 59//91
f 74//92 16//92 17//92 53//92
f 51//93 62//93 74//93 53//93
f 20//94 82//94 17//94 14//94
f 65//95 66//95 77//95
f 54//96 29//96 50//96 25//96
f 24//97 33//97 54//97 25//97
f 32//98 33//98 24//98 22//98
f 80//99 81//99 79//99
