# Blender v2.83.4 OBJ File: ''
# www.blender.org
mtllib cave_entrance.mtl
o cave_entrance.002
v 0.169606 -0.679200 -0.346626
v 0.625800 -0.573066 -0.774015
v -0.119749 -0.680728 -0.260383
v -0.343351 -0.574787 0.358291
v 0.539271 -0.575966 0.163025
v 0.483199 -0.569466 -2.646555
v -0.084604 -0.577456 -1.346289
v -0.048899 -0.570175 -2.837548
v 0.736532 -0.569431 0.534750
v 0.884028 -0.569466 -2.007170
v -0.946220 -0.574567 -1.967366
v -1.106830 -0.565451 0.019169
v -0.759734 -0.568818 0.525922
v -0.304216 -0.569899 0.783397
v 0.340326 -0.569469 0.768178
v 1.592083 0.351417 -2.066136
v 1.613264 0.185134 -1.245791
v 0.646019 0.211392 -2.755448
v -0.000425 0.523365 -2.993138
v -0.829859 0.474867 -2.737819
v -1.546591 0.262732 -2.123045
v -1.614807 0.136544 -1.069789
v -1.352451 -0.055369 0.354896
v -0.747699 -0.382683 0.653281
v -0.375136 -0.382683 0.773748
v 0.212202 -0.445766 0.769883
v 0.802791 -0.213754 0.696815
v 1.155067 -0.567038 -0.076689
v 0.954164 0.851306 -2.642960
v -1.513860 -0.195090 -0.000001
v -0.820963 -0.195090 0.693520
v -0.398762 -0.195552 0.531074
v 0.057679 -0.270830 0.327759
v 0.593147 -0.144382 0.559297
v 1.347388 -0.034071 0.379406
v 1.513860 -0.195090 -0.000000
v 1.573995 0.797237 -1.992021
v 1.719109 0.685587 -1.059875
v -0.005018 1.470805 -2.695291
v -0.889187 1.258412 -2.532411
v -1.573993 0.797238 -1.992023
v -1.746425 0.617743 -1.052167
v -1.597811 0.205356 0.003979
v -0.904054 -0.000000 0.692128
v -0.432923 -0.093118 0.098567
v 1.656860 0.343590 -0.141918
v 1.327378 1.381816 -1.816945
v 0.750288 1.664404 -2.349625
v -1.312287 1.408022 -1.819065
v -1.611825 0.944802 -1.006678
v -1.423628 0.416888 0.375330
v -0.991882 0.303910 0.539592
v -0.599072 0.129778 -0.685386
v -0.026143 -0.537447 -1.926062
v 0.599071 0.129778 -0.685386
v 0.991882 0.303910 0.539592
v 1.434542 0.820294 0.356738
v 0.005943 2.221126 -2.145060
v -0.525733 2.157375 -2.011681
v -1.558427 1.165490 -0.001383
v -1.429985 0.818045 0.392416
v -1.037153 0.624167 0.350874
v -0.636889 0.251325 -1.160684
v 0.601047 0.309291 -1.371343
v 1.037153 0.624166 0.350874
v 1.587509 1.079165 0.000000
v 0.681133 2.362030 -1.270785
v 0.347588 2.484509 -1.641313
v -0.695001 2.342469 -1.286866
v -1.014691 0.972220 0.014098
v -0.577789 0.449828 -1.409432
v 0.000000 -0.270362 -2.063057
v 1.014691 0.972220 0.014098
v 1.165394 1.681260 0.195718
v 1.160357 1.844923 0.021946
v -0.148638 2.527617 -1.656612
v -1.100791 1.924522 -0.001559
v -1.179482 1.645796 0.209299
v -0.845320 1.350572 -0.199412
v -0.412574 0.794777 -1.506354
v 0.000000 0.357294 -1.919763
v 0.412574 0.794777 -1.506354
v 0.845320 1.350572 -0.199412
v 0.424981 2.504776 -0.689007
v 0.692938 2.343698 -0.178886
v -0.528565 2.480845 -0.691638
v -0.735884 2.335240 -0.164961
v -0.783318 2.028192 0.074129
v -0.581514 1.782618 -0.015129
v -0.041780 1.578134 -0.640668
v 0.268739 1.569095 -0.438045
v 0.823495 1.857807 0.149619
v -0.087047 2.559197 -0.832623
v -0.151002 2.475173 -0.545699
v 0.307594 2.048656 -0.255530
v -0.033574 1.989211 -0.339738
v 0.269098 2.451236 -0.476172
vt 0.290398 0.041783
vt 0.574136 0.145551
vt 0.199125 0.135104
vt 0.632635 0.297798
vt 0.543357 0.312809
vt 1.000000 0.176316
vt 0.833055 0.312310
vt 0.895499 0.151916
vt 0.125000 0.315548
vt 0.062500 0.312500
vt 0.007243 0.171865
vt 0.750000 0.312500
vt 0.943933 0.317482
vt 0.199241 0.312178
vt 0.250000 0.418923
vt 0.187500 0.412734
vt 0.315953 0.312500
vt 0.375000 0.436894
vt 0.312500 0.409564
vt 0.437500 0.317277
vt 0.562500 0.375000
vt 0.500000 0.487455
vt 0.723492 0.375000
vt 0.625000 0.375000
vt 0.125000 0.375000
vt 0.125000 0.475856
vt 0.437500 0.437500
vt 0.750000 0.437398
vt 0.687500 0.435347
vt 0.812500 0.429452
vt 1.000000 0.442196
vt 0.937500 0.437500
vt 0.062500 0.425625
vt 0.062500 0.500000
vt 0.437500 0.498885
vt 0.625000 0.500000
vt 0.625000 0.437500
vt 0.187500 0.546339
vt 0.125000 0.585360
vt 0.375000 0.500000
vt 0.375000 0.562500
vt 0.937500 0.522668
vt 0.875000 0.622964
vt 0.875000 0.492686
vt 0.062500 0.576398
vt 0.000000 0.667133
vt 0.000000 0.512542
vt 0.250000 0.527993
vt 0.312500 0.579595
vt 0.250000 0.665287
vt 0.687500 0.621775
vt 0.625000 0.625000
vt 0.625000 0.562500
vt 0.812500 0.625000
vt 0.812500 0.562500
vt 0.187500 0.667059
vt 0.125000 0.736546
vt 0.750000 0.664387
vt 0.687500 0.687500
vt 0.212166 0.750799
vt 0.312500 0.733469
vt 0.875000 0.755729
vt 0.812500 0.750000
vt 0.812500 0.687500
vt 0.061859 0.736858
vt 0.064732 0.851661
vt 0.000000 0.812500
vt 0.436448 0.811448
vt 0.349751 0.812500
vt 0.847567 0.812500
vt 1.000000 0.750000
vt 0.940294 0.812500
vt 0.937252 0.733646
vt 0.223841 0.893320
vt 0.500000 0.812500
vt 0.568785 0.831234
vt 0.455413 0.959247
vt 0.669017 0.812500
vt 0.684746 0.881700
vt 0.782827 0.875000
vt 0.750000 0.812500
vt 0.934875 0.926940
vt 0.781250 0.000000
vt 1.001563 0.062500
vt 0.906250 0.000000
vt 0.781250 1.000000
vt 1.000000 0.937500
vt 0.968750 1.000000
vt 0.017750 0.062500
vt 0.000000 0.312500
vt 0.000000 0.442196
vt 0.562500 0.437500
vt 0.312500 0.500000
vt 0.562500 0.500000
vt 1.000000 0.512542
vt 0.562500 0.562500
vt 0.500000 0.562500
vt 0.750000 0.562500
vt 0.500000 0.623143
vt 0.436894 0.643728
vt 0.562500 0.625000
vt 0.937500 0.625000
vt 0.439550 0.752050
vt 0.562500 0.687500
vt 0.625000 0.687500
vt 0.500000 0.750000
vt 0.562500 0.750000
vt 0.625000 0.750000
vt 0.687500 0.750000
vt 0.750000 0.750000
vt 1.000000 0.875000
vn -0.6321 -0.7691 -0.0946
vn -0.6209 -0.7762 -0.1094
vn -0.6268 -0.7742 -0.0877
vn -0.0098 -0.9998 0.0158
vn -0.0094 -0.9999 0.0124
vn 0.0337 -0.9994 0.0062
vn 0.0323 -0.9995 -0.0029
vn 0.0496 -0.9988 -0.0022
vn 0.0035 -1.0000 -0.0022
vn -0.2156 -0.9739 -0.0712
vn 0.0039 -1.0000 0.0065
vn 0.1042 -0.9796 -0.1718
vn 0.0093 -1.0000 0.0029
vn -0.1115 -0.9937 -0.0142
vn 0.0095 -1.0000 -0.0009
vn -0.3187 0.1580 -0.9346
vn -0.2342 -0.1395 -0.9621
vn -0.2915 -0.1384 -0.9465
vn -0.9129 -0.3951 -0.1023
vn -0.7952 -0.5937 -0.1234
vn -0.7881 -0.6041 -0.1182
vn -0.8156 -0.5754 0.0606
vn -0.8074 -0.5645 -0.1715
vn -0.7627 -0.6441 -0.0583
vn -0.6286 -0.3580 0.6904
vn -0.5960 -0.4289 0.6789
vn -0.5754 -0.4368 0.6915
vn 0.0365 0.2577 0.9655
vn -0.1250 0.0357 0.9915
vn 0.1427 -0.0038 0.9898
vn -0.1775 0.0499 0.9829
vn 0.0551 -0.1247 0.9907
vn 0.2754 0.0545 0.9598
vn 0.3011 0.0297 -0.9531
vn 0.3573 -0.0042 -0.9340
vn 0.3400 -0.0107 -0.9404
vn -0.6388 -0.5041 0.5812
vn -0.5861 -0.6337 0.5049
vn -0.4892 -0.7021 0.5174
vn -0.3832 0.8638 0.3271
vn -0.4628 0.7456 0.4794
vn -0.3501 0.8041 0.4805
vn -0.2221 0.7187 0.6589
vn -0.1352 0.6721 0.7280
vn -0.0879 0.7878 0.6096
vn 0.7267 -0.6713 -0.1460
vn 0.6585 -0.7102 -0.2488
vn 0.8012 -0.5619 -0.2059
vn 0.7198 0.1494 -0.6779
vn 0.7269 0.1390 -0.6725
vn 0.7203 0.1412 -0.6791
vn -0.8086 -0.1376 0.5721
vn -0.8745 -0.1891 0.4466
vn -0.8357 -0.2853 0.4692
vn 0.2037 0.9560 0.2110
vn 0.2775 0.9263 0.2548
vn 0.2807 0.9534 0.1104
vn 0.3011 0.3884 -0.8709
vn 0.2992 0.3835 -0.8737
vn 0.2967 0.3950 -0.8695
vn -0.8992 0.3370 0.2790
vn -0.9131 0.3697 0.1721
vn -0.9076 0.3308 0.2584
vn 0.8301 -0.0566 0.5547
vn 0.8820 -0.0911 0.4624
vn 0.8851 -0.0559 0.4621
vn 0.8891 0.4567 -0.0310
vn 0.8877 0.4584 -0.0431
vn 0.8842 0.4656 -0.0379
vn -0.6578 0.5621 -0.5014
vn -0.6441 0.5638 -0.5170
vn -0.6632 0.5488 -0.5090
vn 0.8190 0.5673 0.0859
vn 0.8320 0.5484 0.0840
vn 0.8254 0.5633 0.0373
vn -0.2787 0.5086 0.8146
vn -0.2896 0.2736 0.9172
vn -0.0307 0.7424 0.6692
vn 0.3669 0.7060 -0.6057
vn 0.3639 0.6883 -0.6275
vn 0.3496 0.7122 -0.6088
vn -0.8400 0.3041 0.4493
vn -0.8287 0.3116 0.4649
vn -0.7710 0.4830 0.4150
vn -0.2173 0.7975 -0.5628
vn -0.2371 0.7639 -0.6002
vn -0.2559 0.7890 -0.5586
vn -0.4791 0.8100 -0.3382
vn -0.5308 0.7804 -0.3304
vn -0.4887 0.8190 -0.3007
vn -0.8017 -0.1322 0.5830
vn -0.7371 -0.0729 0.6718
vn -0.7457 0.1336 0.6527
vn 0.5023 0.8635 0.0444
vn 0.5546 0.8308 0.0478
vn 0.4959 0.8611 -0.1125
vn 0.3449 0.9356 -0.0756
vn 0.3987 0.9166 -0.0295
vn 0.4147 0.9020 -0.1201
vn -0.5930 0.8036 -0.0502
vn -0.6530 0.7557 -0.0500
vn -0.5980 0.8005 0.0406
vn -0.5099 -0.6549 0.5577
vn -0.3371 -0.6705 0.6609
vn -0.3256 -0.4779 0.8158
vn 0.7398 0.6719 0.0347
vn 0.8692 0.4907 -0.0604
vn 0.6407 0.7581 -0.1214
vn -0.1216 0.9905 -0.0647
vn -0.2188 0.9723 -0.0826
vn -0.1865 0.9825 -0.0020
vn 0.6713 0.2059 0.7120
vn 0.5751 0.3483 0.7403
vn 0.5862 0.1949 0.7864
vn 0.5461 -0.4158 0.7272
vn 0.3209 -0.6588 0.6805
vn 0.7226 -0.4820 0.4955
vn -0.7704 -0.1889 0.6089
vn -0.6136 -0.4294 0.6627
vn -0.5870 -0.1688 0.7917
vn -0.6509 0.3062 0.6947
vn -0.4258 0.4059 0.8087
vn -0.4692 0.4846 0.7383
vn -0.3446 0.6035 0.7190
vn -0.2886 0.3834 0.8773
vn -0.2471 0.4836 0.8397
vn 0.0306 -0.9833 0.1793
vn 0.0478 -0.9833 0.1758
vn 0.0308 -0.9773 0.2097
vn 0.0013 -0.9823 0.1874
vn 0.0454 -0.9874 0.1514
vn 0.0779 -0.9814 0.1757
vn -0.1380 0.4148 0.8994
vn -0.1751 0.3160 0.9325
vn -0.1172 0.3524 0.9285
vn -0.0375 0.9643 0.2620
vn 0.0096 0.9577 0.2878
vn 0.0190 0.9628 0.2697
vn 0.1021 -0.9700 -0.2208
vn 0.1199 -0.9858 -0.1172
vn 0.1028 -0.9859 -0.1320
vn -0.0406 -0.9951 -0.0902
vn 0.0331 -0.9915 -0.1258
vn -0.0209 -0.9964 -0.0827
vn 0.3095 -0.9509 -0.0009
vn 0.2388 -0.9707 0.0250
vn 0.2354 -0.9717 -0.0201
vn 0.0164 -0.9998 -0.0126
vn 0.0082 -1.0000 -0.0025
vn 0.0081 -1.0000 -0.0035
vn 0.0031 -1.0000 -0.0048
vn -0.0159 -0.9999 0.0054
vn -0.0147 -0.9997 -0.0173
vn -0.0119 -0.9999 -0.0020
vn 0.0023 -0.9998 0.0198
vn 0.0023 -0.9999 0.0164
vn 0.0119 -0.9999 -0.0004
vn -0.0122 -0.9736 0.2280
vn -0.0409 -0.9897 -0.1373
vn 0.0002 -1.0000 -0.0049
vn 0.2212 -0.9735 0.0576
vn 0.7708 -0.6257 -0.1196
vn 0.7786 -0.5733 -0.2552
vn 0.8443 -0.5297 0.0810
vn 0.7680 -0.6314 -0.1074
vn 0.0009 -0.9999 0.0114
vn -0.1876 -0.9799 -0.0679
vn 0.2308 -0.9676 -0.1027
vn 0.6976 -0.4014 -0.5935
vn 0.6540 -0.4126 -0.6341
vn 0.6857 -0.2053 -0.6983
vn 0.8530 -0.2832 -0.4384
vn 0.2771 -0.2182 -0.9358
vn 0.2161 0.0779 -0.9733
vn 0.5351 -0.0338 -0.8441
vn 0.3100 -0.1770 -0.9341
vn -0.5664 -0.4878 -0.6642
vn -0.7601 -0.2610 -0.5951
vn -0.4438 -0.3353 -0.8310
vn -0.5633 -0.4417 -0.6983
vn -0.3965 -0.4479 0.8014
vn -0.3901 -0.3567 0.8489
vn -0.3405 -0.2414 0.9087
vn -0.5845 -0.2567 0.7697
vn -0.6796 -0.5167 0.5207
vn -0.7162 -0.5869 0.3775
vn -0.6554 -0.6106 0.4445
vn 0.4500 -0.2375 0.8609
vn 0.3052 -0.0275 0.9519
vn 0.2503 -0.2140 0.9442
vn 0.3240 -0.2827 0.9028
vn 0.0130 0.4213 0.9068
vn 0.2102 0.4389 0.8736
vn 0.0629 0.4851 0.8722
vn -0.1041 0.5605 0.8216
vn 0.5856 -0.1477 -0.7970
vn 0.6230 -0.1020 -0.7755
vn 0.6036 -0.1541 -0.7823
vn -0.6594 -0.7337 -0.1642
vn -0.7591 -0.6286 -0.1695
vn -0.6617 -0.6925 -0.2874
vn -0.5646 -0.3790 0.7332
vn -0.5763 -0.3569 0.7352
vn -0.5834 -0.4822 0.6535
vn 0.3021 0.8484 0.4347
vn 0.2462 0.9215 0.3003
vn 0.0622 0.9249 0.3752
vn 0.1915 0.8702 0.4539
vn 0.6205 -0.6361 0.4587
vn 0.6250 -0.6253 0.4672
vn 0.6334 -0.5264 0.5672
vn 0.5193 -0.6581 0.5452
vn 0.5574 -0.4266 0.7123
vn 0.5444 -0.4357 0.7168
vn 0.6576 -0.4143 0.6292
vn 0.9923 -0.0669 -0.1040
vn 0.9901 -0.0838 -0.1124
vn 0.9926 -0.0442 -0.1128
vn 0.9936 -0.0593 -0.0965
vn -0.2680 0.2588 -0.9280
vn -0.2715 0.2721 -0.9232
vn -0.2592 0.2681 -0.9279
vn -0.2624 0.2552 -0.9306
vn 0.2295 0.2889 -0.9294
vn 0.2495 0.3000 -0.9207
vn 0.2399 0.2901 -0.9265
vn -0.6726 0.1371 -0.7272
vn -0.6756 0.1476 -0.7223
vn -0.6633 0.1454 -0.7341
vn -0.6676 0.1395 -0.7313
vn -0.9814 -0.1355 -0.1363
vn -0.9828 -0.1253 -0.1355
vn -0.9799 -0.1229 -0.1569
vn -0.9773 -0.1382 -0.1603
vn -0.9746 -0.2133 -0.0683
vn -0.9655 -0.2580 0.0360
vn -0.9747 -0.2196 0.0415
vn -0.9936 -0.1093 0.0282
vn 0.8142 0.5601 0.1529
vn 0.4164 0.8412 0.3449
vn 0.3393 0.8471 0.4089
vn 0.4171 0.7782 0.4695
vn -0.5535 -0.2342 0.7993
vn -0.6606 -0.1650 0.7324
vn -0.5563 -0.5965 0.5785
vn 0.9473 -0.3131 -0.0675
vn 0.9851 -0.1433 -0.0950
vn 0.9744 -0.2244 0.0158
vn 0.9706 -0.2402 0.0143
vn 0.8733 -0.0005 0.4872
vn 0.8455 -0.1954 0.4969
vn 0.8994 -0.1120 0.4226
vn 0.6909 0.4213 -0.5875
vn 0.6934 0.4230 -0.5833
vn 0.6988 0.4207 -0.5786
vn 0.6997 0.4167 -0.5803
vn 0.9075 0.4106 -0.0884
vn 0.9096 0.4048 -0.0936
vn 0.9059 0.4119 -0.0980
vn -0.9070 0.4087 -0.1013
vn -0.9112 0.4013 -0.0932
vn -0.9078 0.4089 -0.0932
vn -0.8998 0.4246 -0.1003
vn -0.7238 0.4562 -0.5177
vn -0.7175 0.4590 -0.5239
vn -0.7198 0.4519 -0.5269
vn -0.5564 -0.2514 0.7920
vn -0.4891 0.0318 0.8717
vn -0.4874 0.0668 0.8706
vn -0.8091 0.1839 0.5581
vn -0.8030 -0.1969 0.5625
vn -0.8690 -0.1351 0.4759
vn -0.8639 -0.1588 0.4779
vn 0.8857 0.4632 -0.0319
vn 0.5690 0.8161 -0.1010
vn 0.6255 0.7541 0.1999
vn 0.6709 0.6974 0.2519
vn 0.6180 0.7826 -0.0744
vn 0.6196 0.7796 -0.0907
vn 0.5725 0.8161 -0.0782
vn 0.5837 0.8104 -0.0501
vn -0.6036 0.7961 0.0441
vn -0.5736 0.8188 0.0235
vn -0.5638 0.8259 -0.0042
vn -0.5727 0.8189 -0.0371
vn -0.8147 0.5683 -0.1152
vn -0.7024 0.6447 0.3018
vn -0.6733 0.6617 0.3299
vn -0.8054 0.5927 -0.0099
vn 0.2941 -0.2805 0.9137
vn 0.5654 0.4063 0.7178
vn 0.4152 0.0336 0.9091
vn 0.4285 0.0173 0.9034
vn -0.2657 0.5602 -0.7846
vn -0.2773 0.5586 -0.7817
vn -0.2806 0.5677 -0.7739
vn -0.2689 0.5710 -0.7756
vn 0.2160 0.5816 -0.7842
vn 0.2199 0.5684 -0.7928
vn 0.2023 0.5737 -0.7937
vn -0.9315 0.0112 0.3635
vn -0.9246 -0.0775 0.3729
vn -0.9207 0.1140 0.3734
vn -0.9293 0.0330 0.3679
vn -0.8820 0.4686 -0.0507
vn -0.8799 0.4724 -0.0506
vn -0.8800 0.4705 -0.0645
vn -0.9981 0.0378 0.0492
vn -0.9947 0.0989 -0.0290
vn -0.9986 0.0131 -0.0507
vn -0.1956 0.0536 0.9792
vn -0.0514 0.2181 0.9746
vn -0.0482 0.2258 0.9730
vn -0.3664 0.4568 0.8106
vn 0.9788 0.2039 0.0214
vn 0.8057 0.5822 -0.1091
vn 0.8680 0.4567 0.1950
vn 0.8853 0.4252 0.1880
vn -0.9343 0.3458 -0.0868
vn -0.8904 0.4089 0.1998
vn -0.8824 0.4415 0.1627
vn -0.7613 0.6484 -0.0070
vn -0.8315 0.5368 0.1429
vn -0.8483 0.5203 0.0985
vn -0.8379 0.5241 0.1521
vn 0.9457 0.3058 -0.1100
vn 0.9233 0.3827 -0.0337
vn 0.9483 0.3174 0.0070
vn 0.9512 0.3085 -0.0032
vn 0.8919 0.0876 0.4437
vn 0.8956 -0.0794 0.4377
vn 0.9205 0.0140 0.3906
vn 0.6701 0.6326 -0.3882
vn 0.6499 0.6540 -0.3870
vn 0.6587 0.6563 -0.3680
vn 0.6784 0.6385 -0.3635
vn 0.8056 0.5890 -0.0638
vn 0.8221 0.5668 -0.0544
vn 0.8115 0.5791 -0.0782
vn -0.8347 0.5466 -0.0666
vn -0.8454 0.5315 -0.0533
vn -0.8306 0.5551 -0.0435
vn -0.8303 0.5538 -0.0621
vn -0.7005 0.6391 -0.3175
vn -0.6818 0.6560 -0.3238
vn -0.6950 0.6317 -0.3434
vn 0.9787 -0.0139 0.2049
vn 0.9763 0.2163 -0.0091
vn 0.9614 0.1297 0.2428
vn 0.9499 0.1075 0.2935
vn 0.3917 0.6300 0.6706
vn 0.1961 0.7918 0.5784
vn 0.3252 0.5497 0.7694
vn 0.8482 0.2320 0.4761
vn 0.8599 0.1802 0.4776
vn 0.8611 0.2314 0.4528
vn 0.7679 0.3804 0.5153
vn -0.5423 0.0954 0.8348
vn -0.3091 0.3675 0.8772
vn -0.5865 0.1832 0.7890
vn -0.5443 0.0296 0.8384
vn -0.9603 0.1547 0.2321
vn -0.9430 0.3317 0.0267
vn -0.9912 0.0873 0.0992
vn 0.7820 0.4778 0.4003
vn 0.7693 0.3842 0.5105
vn 0.7035 0.4127 0.5786
vn 0.7845 0.2697 0.5584
vn -0.9184 0.2040 0.3389
vn -0.8369 0.2551 0.4843
vn -0.7395 0.3370 0.5826
vn -0.7715 0.5048 0.3872
vn 0.0751 0.8481 -0.5245
vn 0.0892 0.8671 -0.4901
vn 0.1258 0.8450 -0.5197
vn -0.7473 0.6639 -0.0273
vn -0.7620 0.6453 -0.0542
vn -0.7624 0.6463 0.0322
vn 0.6535 -0.0396 0.7559
vn 0.8046 -0.2383 0.5438
vn 0.7759 0.0882 0.6246
vn 0.6558 0.0863 0.7500
vn 0.8733 -0.3384 0.3504
vn 0.9437 -0.2007 0.2631
vn 0.8939 -0.1994 0.4015
vn 0.8713 -0.2631 0.4142
vn 0.5959 -0.1617 0.7866
vn 0.6442 -0.1823 0.7428
vn 0.6831 -0.1395 0.7169
vn 0.6399 -0.1368 0.7562
vn -0.6384 -0.1614 0.7526
vn -0.6708 -0.1128 0.7330
vn -0.7053 -0.1489 0.6930
vn -0.6946 -0.1424 0.7051
vn -0.9202 -0.2582 0.2942
vn -0.8844 -0.2545 0.3913
vn -0.9146 -0.1692 0.3671
vn -0.9431 -0.1077 0.3144
vn -0.4451 0.6124 0.6533
vn -0.4917 0.4108 0.7677
vn -0.3402 0.4872 0.8043
vn -0.2560 0.8008 0.5415
vn -0.3400 0.9376 -0.0732
vn -0.3695 0.9120 -0.1780
vn -0.3976 0.9132 -0.0898
vn 0.2138 -0.3951 0.8934
vn 0.3922 -0.4440 0.8056
vn 0.6453 -0.2699 0.7147
vn 0.3907 -0.2940 0.8723
vn 0.3840 -0.7322 0.5625
vn 0.4737 -0.7893 0.3907
vn 0.5718 -0.6738 0.4680
vn 0.4835 -0.6801 0.5511
vn -0.0614 -0.7853 0.6161
vn -0.0727 -0.7246 0.6854
vn -0.0976 -0.7379 0.6678
vn -0.1871 -0.7981 0.5727
vn -0.0385 -0.7198 0.6931
vn -0.0922 -0.6814 0.7261
vn -0.0871 -0.7566 0.6480
vn -0.4317 -0.7573 0.4901
vn -0.4727 -0.6591 0.5849
vn -0.5057 -0.5948 0.6249
vn -0.5510 -0.7167 0.4275
vn 0.3758 0.5824 0.7208
vn 0.0502 0.7401 0.6706
vn 0.1405 0.6544 0.7429
vn 0.3819 0.4070 0.8298
vn 0.0918 -0.9932 0.0717
vn 0.0195 -0.9889 0.1471
vn -0.0087 -1.0000 0.0036
vn -0.0071 -1.0000 -0.0000
vn 0.1631 0.9851 -0.0547
vn 0.0730 0.9923 -0.1001
vn 0.0804 0.9963 -0.0305
vn 0.1041 0.9940 -0.0333
vn -0.0837 0.9776 0.1932
vn -0.0952 0.9622 0.2553
vn -0.0516 0.9322 0.3583
vn 0.1064 0.9909 0.0831
vn -0.1733 -0.6963 0.6966
vn -0.3001 -0.4136 0.8596
vn -0.3670 -0.3273 0.8707
vn -0.4925 -0.4767 0.7281
vn 0.4258 0.3119 0.8493
vn 0.3979 0.5940 0.6991
vn 0.3454 0.5234 0.7790
vn -0.5246 0.4365 0.7309
vn -0.4615 0.3673 0.8075
vn -0.3598 0.3619 0.8600
vn -0.0072 0.9850 0.1722
vn 0.0405 0.9554 0.2924
vn 0.1032 0.9558 0.2752
vn 0.3330 0.4072 0.8505
vn 0.4178 0.5062 0.7544
vn 0.2735 0.4382 0.8563
vn 0.0110 0.9653 0.2610
vn 0.0334 0.9633 0.2662
vn 0.0193 0.9763 0.2158
usemtl initialShadingGroup.001
s off
f 3/1/1 4/2/2 7/3/3
f 4/2/4 14/4/5 13/5/5
f 2/6/6 9/7/7 5/8/8
f 6/9/9 10/10/10 2/11/9
f 9/7/11 15/12/12 4/2/11
f 2/6/13 28/13/14 9/7/15
f 8/14/16 20/15/17 19/16/18
f 11/17/19 22/18/20 21/19/21
f 11/17/22 12/20/23 22/18/24
f 13/5/25 24/21/26 23/22/27
f 14/4/28 26/23/29 25/24/30
f 15/12/31 26/23/32 14/4/33
f 18/25/34 19/16/35 29/26/36
f 12/20/37 23/22/38 30/27/39
f 26/23/40 34/28/41 33/29/42
f 27/30/43 34/28/44 26/23/45
f 17/31/46 36/32/47 28/13/48
f 16/33/49 29/26/50 37/34/51
f 30/27/52 23/22/53 43/35/54
f 33/29/55 45/36/56 32/37/57
f 39/38/58 48/39/59 29/26/60
f 42/40/61 43/35/62 50/41/63
f 46/42/64 57/43/65 35/44/66
f 47/45/67 75/46/68 38/47/69
f 40/48/70 49/49/71 59/50/72
f 54/51/73 63/52/74 53/53/75
f 57/43/76 65/54/77 56/55/78
f 58/56/79 68/57/80 48/39/81
f 64/58/82 72/59/83 54/51/84
f 59/50/85 76/60/86 58/56/87
f 69/61/88 76/60/89 59/50/90
f 74/62/91 83/63/92 73/64/93
f 67/65/94 84/66/95 85/67/96
f 67/65/97 68/57/98 84/66/99
f 87/68/100 86/69/101 69/61/102
f 74/62/103 92/70/104 83/63/105
f 67/71/106 85/72/107 75/73/108
f 86/69/109 93/74/110 76/60/111
f 88/75/112 89/76/113 94/77/114
f 90/78/115 96/79/116 89/76/117
f 92/70/118 95/80/119 91/81/120
f 85/72/121 97/82/122 92/70/123
f 95/80/124 97/82/125 96/79/126
f 5/8/127 4/2/128 3/83/129
f 1/84/130 5/8/131 3/85/132
f 96/79/133 97/82/134 94/86/135
f 97/82/136 93/87/137 94/88/138
f 1/89/139 7/3/140 2/11/141
f 1/89/142 3/1/143 7/3/144
f 1/84/145 2/6/146 5/8/147
f 7/3/148 6/9/149 2/11/150
f 6/9/151 7/3/151 8/14/151
f 7/3/152 4/2/153 13/5/154
f 5/8/155 9/7/156 4/2/156
f 2/11/157 10/10/158 28/90/159
f 8/14/160 7/3/160 11/17/161
f 17/91/162 28/90/163 10/10/164 16/33/165
f 4/2/166 15/12/167 14/4/168
f 18/25/169 16/33/170 10/10/171 6/9/172
f 18/25/173 6/9/174 8/14/175 19/16/176
f 20/15/177 8/14/178 11/17/179 21/19/180
f 25/24/181 24/21/182 13/5/183 14/4/184
f 12/20/185 13/5/186 23/22/187
f 26/23/188 15/12/189 9/7/190 27/30/191
f 32/37/192 31/92/193 24/21/194 25/24/195
f 16/33/196 18/25/197 29/26/198
f 22/18/199 12/20/200 30/27/201
f 23/22/202 24/21/203 31/92/204
f 32/37/205 25/24/206 26/23/207 33/29/208
f 35/44/209 9/7/210 28/13/211 36/32/212
f 9/7/213 35/44/214 27/30/215
f 37/34/216 38/47/217 17/91/218 16/33/219
f 39/38/220 19/16/221 20/15/222 40/48/223
f 29/26/224 19/16/225 39/38/226
f 40/48/227 20/15/228 21/19/229 41/93/230
f 41/93/231 21/19/232 22/18/233 42/40/234
f 43/35/235 42/40/236 22/18/237 30/27/238
f 44/94/239 31/92/240 32/37/241 45/36/242
f 23/22/243 31/92/244 44/94/245
f 46/42/246 36/32/247 17/31/248 38/95/249
f 36/32/250 46/42/251 35/44/252
f 47/45/253 37/34/254 29/26/255 48/39/256
f 37/34/257 47/45/258 38/47/259
f 50/41/260 49/49/261 41/93/262 42/40/263
f 40/48/264 41/93/265 49/49/266
f 52/96/267 51/97/268 23/22/269 44/94/270
f 43/35/271 23/22/272 51/97/273
f 52/96/274 44/94/275 45/36/276 53/53/277
f 53/53/278 45/36/279 33/29/280 54/51/281
f 55/98/282 54/51/283 33/29/284 34/28/285
f 56/55/286 55/98/287 34/28/288 27/30/289
f 56/55/290 27/30/291 35/44/292 57/43/293
f 59/50/294 58/56/295 39/38/296 40/48/297
f 39/38/298 58/56/299 48/39/300
f 61/99/301 60/100/302 43/35/303 51/97/304
f 49/49/305 50/41/306 60/100/307
f 50/41/308 43/35/309 60/100/310
f 62/101/311 61/99/312 51/97/313 52/96/314
f 62/101/315 52/96/316 53/53/317 63/52/318
f 65/54/319 64/58/320 55/98/321 56/55/322
f 54/51/323 55/98/324 64/58/325
f 66/102/326 46/42/327 38/95/328 75/73/329
f 46/42/330 66/102/331 57/43/332
f 67/65/333 47/45/334 48/39/335 68/57/336
f 47/45/337 67/65/338 75/46/339
f 77/103/340 69/61/341 49/49/342 60/100/343
f 59/50/344 49/49/345 69/61/346
f 70/104/347 62/101/348 63/52/349 71/105/350
f 61/99/351 62/101/352 70/104/353
f 72/59/354 71/105/355 63/52/356 54/51/357
f 73/64/358 65/54/359 57/43/360 74/62/361
f 64/58/362 65/54/363 73/64/364
f 74/62/365 57/43/366 66/102/367 75/73/368
f 78/106/369 77/103/370 60/100/371 61/99/372
f 68/57/373 58/56/374 76/60/375
f 77/103/376 87/68/377 69/61/378
f 79/107/379 78/106/380 61/99/381 70/104/382
f 79/107/383 70/104/384 71/105/385 80/108/386
f 81/109/387 80/108/388 71/105/389 72/59/390
f 81/109/391 72/59/392 64/58/393 82/110/394
f 83/63/395 82/110/396 64/58/397 73/64/398
f 88/75/399 87/68/400 77/103/401 78/106/402
f 69/61/403 86/69/404 76/60/405
f 89/76/406 88/75/407 78/106/408 79/107/409
f 90/78/410 89/76/411 79/107/412 80/108/413
f 90/78/414 81/109/415 82/110/416 91/81/417
f 80/108/418 81/109/419 90/78/420
f 91/81/421 82/110/422 83/63/423 92/70/424
f 92/70/425 74/62/426 75/73/427 85/72/428
f 12/20/429 11/17/430 7/3/431 13/5/432
f 93/74/433 84/66/434 68/57/435 76/60/436
f 94/77/437 93/74/438 86/69/439 87/68/440
f 96/79/441 90/78/442 91/81/443 95/80/444
f 87/68/445 88/75/446 94/77/447
f 92/70/448 97/82/449 95/80/450
f 85/72/451 84/111/452 97/82/453
f 94/77/454 89/76/455 96/79/456
f 84/111/457 93/87/458 97/82/459
