# Blender v2.83.4 OBJ File: ''
# www.blender.org
mtllib cloud_3.mtl
g Mball.016_Mesh.002
v 2.170282 3.289354 5.657737
v 1.514433 4.023529 8.412696
v 0.801467 4.998904 5.872755
v 1.511573 4.088093 6.061843
v 0.615235 5.514930 7.792802
v -0.040624 5.183978 5.705722
v 0.164813 3.660993 3.912781
v 0.236886 2.551575 3.746705
v -0.133834 1.905200 4.302913
v -0.780152 2.543544 4.078625
v -0.744424 3.393929 4.032051
v -1.128167 4.334972 5.509643
v -1.880513 2.702539 5.632293
v -2.523408 3.006142 7.507554
v -2.407858 2.571177 8.766603
v -2.287707 3.699771 7.781791
v -0.917882 2.652125 11.818407
v -1.365834 3.588232 10.017203
v -0.515252 5.000966 9.759838
v -0.815565 4.573198 10.560246
v 0.393260 4.992355 10.654840
v -0.941417 5.318118 8.661225
v -0.234599 5.842811 8.517607
v -0.455193 5.316799 7.103516
v -1.390199 4.297495 7.856930
v 1.033536 5.383153 8.592053
v 2.057178 3.504977 10.507069
v 0.120864 4.059743 11.530884
v 0.624059 5.054085 9.718658
v -0.609317 1.884616 11.744356
v 0.091132 1.619691 11.753075
v 0.673040 1.590628 10.187169
v 1.599677 1.407247 8.940053
v 0.184162 1.858969 8.339890
v 0.657309 2.987635 3.954659
v 2.230587 2.556604 5.542922
v 2.407591 3.393283 7.391712
v 1.570715 1.696518 5.927008
v 1.637028 1.866759 11.047481
v 1.975021 2.485821 11.322270
v 0.692004 3.039623 12.192325
v 2.628329 2.967837 9.411241
v 2.580813 2.182408 7.531903
v 2.473412 2.020182 9.539433
v -1.008788 1.484405 8.808863
v -1.670480 1.713507 9.108529
v -1.232142 1.760692 6.340944
v -2.200051 2.132008 7.523143
v -0.323472 2.868607 12.402048
vn 0.2198 0.9752 -0.0275
vn -0.5952 -0.7247 -0.3474
vn -0.8287 0.3491 -0.4375
vn -0.9053 -0.3394 -0.2554
vn -0.8337 0.4234 -0.3544
vn -0.8367 0.4079 0.3654
vn -0.3315 0.8781 0.3449
vn -0.4879 0.7698 0.4115
vn -0.0185 0.8296 0.5580
vn 0.0565 0.9329 -0.3558
vn 0.7402 0.6719 -0.0255
vn 0.0727 0.5710 0.8178
vn -0.2008 -0.5034 0.8404
vn 0.6430 -0.2800 -0.7129
vn 0.9826 0.1049 -0.1533
vn 0.5391 -0.8379 -0.0856
vn 0.5894 -0.8072 -0.0337
vn 0.4799 -0.8589 0.1788
vn 0.6259 0.4558 0.6329
vn 0.2575 -0.5971 0.7597
vn 0.3541 -0.3360 0.8728
vn 0.9051 0.2187 0.3646
vn 0.6060 0.7945 0.0397
vn 0.9880 0.1321 -0.0802
vn 0.9870 -0.1559 0.0402
vn 0.7421 0.6676 0.0595
vn -0.0361 -0.9953 -0.0900
vn -0.2780 -0.9583 -0.0656
vn -0.3724 -0.9205 -0.1186
vn -0.6522 -0.6882 -0.3179
vn 0.2501 -0.9594 -0.1300
vn -0.0141 -0.9982 0.0591
vn -0.7104 0.4117 0.5708
vn -0.2553 -0.9527 0.1646
vn 0.4922 0.6506 0.5784
vn -0.0445 0.9975 0.0548
vn -0.3607 0.6345 0.6836
vn -0.7341 0.5213 0.4352
vn -0.9371 -0.3473 -0.0340
vn -0.6063 -0.7006 -0.3764
vn -0.3097 -0.0390 -0.9500
vn -0.1678 0.1353 -0.9765
vn -0.2998 0.7675 -0.5667
vn -0.5692 0.7853 -0.2434
vn 0.7280 0.6711 -0.1399
vn 0.7827 0.6205 0.0494
vn 0.2991 0.1602 -0.9407
vn 0.2222 -0.9548 -0.1975
vn -0.9512 0.2540 0.1751
vn 0.7227 0.1647 -0.6712
vn 0.7448 -0.5645 0.3557
vn -0.7984 0.5479 -0.2497
vn -0.5509 0.8332 -0.0482
vn 0.3419 0.9394 -0.0241
vn -0.7730 -0.6277 0.0925
vn -0.7695 -0.5064 0.3891
vn -0.2933 0.6987 0.6526
vn 0.5121 0.5038 0.6956
vn -0.8504 -0.3773 0.3668
vn 0.4180 -0.5494 0.7235
vn 0.0367 -0.9988 0.0322
vn 0.5926 0.8052 0.0214
vn 0.8518 0.3524 -0.3877
vn -0.8159 0.0026 -0.5781
vn -0.8597 0.5083 -0.0509
vn -0.7618 0.6435 -0.0748
vn -0.6098 0.7692 -0.1910
vn 0.2981 0.8816 0.3659
vn 0.6618 0.7195 0.2106
vn 0.1978 -0.9760 0.0916
vn 0.0908 -0.9733 0.2106
vn 0.4323 -0.7177 -0.5459
vn 0.9485 -0.1151 0.2952
vn 0.7116 -0.6571 -0.2489
vn -0.2682 -0.9592 -0.0895
vn -0.4235 -0.9037 -0.0628
vn -0.8829 0.2893 0.3699
vn -0.6046 -0.3137 0.7321
vn 0.8809 0.2593 0.3959
vn -0.2570 -0.5414 -0.8005
vn -0.4122 0.6705 -0.6168
vn 0.5120 -0.6458 -0.5665
vn 0.6024 0.5545 -0.5742
vn 0.2835 0.7467 -0.6018
vn 0.6374 0.4263 -0.6418
vn -0.8645 0.3731 -0.3369
vn -0.0109 0.9654 -0.2605
vn -0.9397 0.3216 0.1162
vn 0.9821 0.1241 -0.1418
vn -0.8393 0.3681 0.4000
vn -0.5496 0.7919 0.2662
vn 0.8341 0.5512 -0.0225
vn -0.3503 -0.9205 0.1732
usemtl None
s off
f 3//1 6//1 24//1
f 13//2 10//2 9//2
f 12//3 11//3 13//3
f 13//4 48//4 14//4
f 13//5 14//5 16//5
f 15//6 18//6 16//6
f 21//7 19//7 20//7
f 19//8 23//8 22//8
f 29//9 23//9 19//9
f 5//10 24//10 23//10
f 29//11 27//11 2//11
f 49//12 41//12 28//12
f 31//13 49//13 30//13
f 35//14 36//14 8//14
f 36//15 1//15 43//15
f 43//16 33//16 38//16
f 33//17 43//17 44//17
f 33//18 44//18 39//18
f 40//19 27//19 41//19
f 41//20 49//20 40//20
f 40//21 49//21 31//21
f 27//22 40//22 42//22
f 37//23 2//23 27//23
f 43//24 37//24 42//24
f 43//25 42//25 44//25
f 37//26 27//26 42//26
f 9//27 38//27 47//27
f 34//28 33//28 32//28
f 45//29 46//29 48//29
f 13//30 47//30 48//30
f 47//31 34//31 45//31
f 38//32 34//32 47//32
f 49//33 20//33 17//33
f 46//34 45//34 30//34
f 27//35 28//35 41//35
f 29//36 19//36 21//36
f 28//37 20//37 49//37
f 19//38 22//38 18//38
f 14//39 48//39 15//39
f 47//40 13//40 9//40
f 11//41 8//41 10//41
f 8//42 11//42 7//42
f 7//43 11//43 12//43
f 6//44 12//44 24//44
f 1//45 4//45 37//45
f 4//46 1//46 3//46
f 35//47 8//47 7//47
f 34//48 32//48 45//48
f 14//49 15//49 16//49
f 36//50 35//50 1//50
f 39//51 44//51 40//51
f 24//52 25//52 22//52
f 16//53 25//53 12//53
f 5//54 23//54 26//54
f 15//55 48//55 46//55
f 15//56 46//56 17//56
f 28//57 21//57 20//57
f 28//58 27//58 21//58
f 46//59 30//59 17//59
f 31//60 39//60 40//60
f 45//61 32//61 31//61
f 4//62 2//62 37//62
f 2//63 5//63 26//63
f 11//64 10//64 13//64
f 19//65 18//65 20//65
f 24//66 12//66 25//66
f 24//67 22//67 23//67
f 26//68 23//68 29//68
f 27//69 29//69 21//69
f 31//70 32//70 39//70
f 33//71 39//71 32//71
f 8//72 38//72 9//72
f 44//73 42//73 40//73
f 38//74 36//74 43//74
f 38//75 33//75 34//75
f 47//76 45//76 48//76
f 20//77 18//77 17//77
f 49//78 17//78 30//78
f 2//79 26//79 29//79
f 10//80 8//80 9//80
f 6//81 7//81 12//81
f 36//82 38//82 8//82
f 3//83 1//83 7//83
f 3//84 7//84 6//84
f 7//85 1//85 35//85
f 13//86 16//86 12//86
f 5//87 3//87 24//87
f 22//88 25//88 18//88
f 43//89 1//89 37//89
f 18//90 15//90 17//90
f 25//91 16//91 18//91
f 2//92 4//92 3//92 5//92
f 45//93 31//93 30//93
