# Blender v2.83.4 OBJ File: ''
# www.blender.org
mtllib cloud_2.mtl
g Mball.013_Mesh.001
v 1.387823 3.669848 2.782157
v 0.168356 5.090891 3.298990
v 0.404614 5.074576 4.098177
v 1.818920 3.400246 3.735135
v 0.749748 3.389504 5.671483
v 1.195927 1.860230 3.402513
v 1.417515 2.257669 2.820297
v 1.720594 2.976735 2.780374
v 0.628556 3.384233 2.255345
v -0.439947 4.172419 2.488098
v -0.167479 2.525558 2.074919
v -0.198201 1.747300 2.893158
v -1.629745 2.189167 3.771796
v -3.661480 2.007630 4.122558
v -4.276365 2.316363 6.169918
v -3.665781 2.049775 6.643363
v -3.728196 1.722425 5.551101
v -3.605626 2.979749 7.068648
v -3.680361 3.771354 6.716589
v -3.643023 4.441240 5.724826
v -3.112521 5.159145 5.326149
v -3.152096 5.461414 4.179003
v -3.135922 4.747622 3.458732
v -2.871627 3.707861 3.415397
v -2.052341 4.559320 3.547956
v -1.862867 3.119470 3.351426
v -1.380424 2.595856 2.470659
v -2.581701 2.572178 3.615266
v -3.267802 2.941907 2.613645
v -3.862888 2.526592 2.572781
v -4.035661 3.208553 2.563213
v -4.071307 4.298269 3.576588
v -5.321724 3.535034 3.559877
v -5.575494 2.473853 3.835502
v -5.144206 2.512984 5.125328
v -5.712337 2.715348 4.439034
v -5.747292 3.269964 4.362429
v -0.901013 3.354747 2.191255
v -1.979944 5.135386 4.169097
v -0.863544 5.490664 4.566212
v -2.051695 5.075212 5.002953
v -1.208448 4.330033 5.811300
v -0.248740 3.351093 6.159554
v -0.190500 2.509236 6.099733
v -1.230404 3.659721 6.883650
v -2.307404 4.242098 5.704889
v -2.594085 3.740903 6.642691
v -1.749725 2.976045 7.035284
v -2.476803 2.075100 6.508185
v -1.200547 2.440261 6.943080
v -1.382518 1.847420 6.248796
v -2.071166 1.788870 4.588295
v -0.543644 1.859297 5.172485
v 0.206717 1.863422 5.220355
v 0.772769 2.535572 5.693510
v -0.239613 5.031220 5.019102
v -1.023586 5.128689 3.304322
v -3.841577 5.161151 4.740619
v -4.407923 4.395024 4.565180
v -5.292318 3.411770 5.265738
v -4.418446 3.150589 6.462159
v 1.856693 2.530144 3.682497
vn 0.7385 0.5347 0.4107
vn 0.8667 0.4168 -0.2741
vn 0.7263 0.6734 -0.1380
vn 0.3788 -0.1596 -0.9116
vn 0.4916 0.2382 -0.8376
vn 0.2443 0.6534 -0.7165
vn 0.2331 0.5523 -0.8004
vn -0.3374 0.4835 -0.8077
vn 0.0334 0.3244 -0.9453
vn 0.0379 0.1717 -0.9844
vn 0.0668 -0.9970 0.0381
vn 0.0209 -0.9694 -0.2445
vn -0.0915 -0.5631 -0.8213
vn -0.0176 -0.4154 -0.9095
vn -0.3145 -0.1466 -0.9379
vn -0.4633 -0.8167 -0.3440
vn -0.5386 -0.8173 0.2049
vn 0.0665 0.0029 -0.9978
vn -0.7684 -0.0138 -0.6398
vn 0.0931 0.0651 -0.9935
vn -0.2141 0.9458 -0.2441
vn 0.2993 0.5027 0.8110
vn 0.3360 0.5904 0.7338
vn 0.3892 -0.0385 0.9204
vn -0.1139 0.8903 0.4410
vn 0.0168 0.4712 0.8819
vn -0.2046 -0.3660 0.9078
vn -0.0040 -0.7599 0.6500
vn 0.0387 -0.9991 0.0192
vn 0.5985 -0.7325 0.3245
vn 0.6004 -0.7293 0.3280
vn -0.0762 -0.9771 -0.1986
vn -0.0430 0.8476 0.5289
vn 0.2152 0.0528 0.9751
vn 0.2809 0.5665 0.7747
vn 0.2676 0.9591 0.0922
vn -0.4992 0.6636 -0.5572
vn 0.1787 0.7009 -0.6906
vn -0.3936 0.6485 -0.6515
vn -0.7299 0.6101 -0.3082
vn -0.7545 0.4479 0.4798
vn -0.5642 0.7513 0.3422
vn -0.7562 -0.3273 0.5666
vn -0.6668 0.6290 0.3997
vn 0.1510 0.9572 0.2470
vn 0.0613 0.8260 0.5603
vn 0.9909 0.0505 -0.1245
vn 0.7360 -0.6559 -0.1676
vn 0.0174 0.6552 -0.7552
vn 0.3862 -0.2126 -0.8976
vn 0.7263 0.6572 -0.2013
vn 0.6516 0.5847 0.4833
vn 0.2890 0.9550 -0.0659
vn -0.0327 -0.8125 0.5820
vn 0.1953 -0.7143 -0.6720
vn -0.2591 -0.6950 -0.6707
vn 0.0361 0.7260 0.6868
vn 0.5738 -0.6910 0.4396
vn 0.3066 -0.8899 -0.3378
vn -0.3726 0.6254 -0.6856
vn -0.2511 -0.9613 0.1131
vn -0.4363 0.4564 -0.7755
vn 0.0788 0.4389 0.8951
vn -0.6149 0.6867 -0.3877
vn -0.4654 0.6670 0.5818
vn 0.2615 -0.1022 -0.9598
vn 0.4934 -0.6501 -0.5779
vn -0.6337 0.7692 -0.0820
vn -0.1851 -0.9388 -0.2903
vn -0.6472 0.7325 0.2110
vn -0.1778 -0.9781 0.1082
vn -0.4325 -0.8801 -0.1959
vn -0.6646 -0.3453 0.6626
vn 0.3227 0.5556 -0.7663
vn -0.2426 -0.9659 0.0904
vn 0.0047 -0.8989 -0.4382
vn -0.5525 -0.7892 0.2681
vn -0.3925 0.0735 -0.9168
vn -0.8934 -0.3508 -0.2808
vn 0.8392 0.1209 -0.5302
vn -0.8361 -0.1287 0.5332
vn -0.6303 -0.1703 -0.7575
vn -0.5907 -0.0676 -0.8040
vn -0.9278 0.0449 -0.3704
vn 0.6202 0.0264 0.7840
vn -0.1290 0.0085 -0.9916
vn -0.3163 0.9478 0.0412
vn -0.0057 0.7323 0.6810
vn 0.4038 -0.8143 0.4170
vn 0.0519 -0.4783 0.8766
vn 0.8777 0.0224 0.4788
vn 0.1351 0.8561 0.4988
vn 0.4378 0.0350 0.8984
vn 0.0292 0.9598 -0.2790
vn 0.3999 0.8588 0.3202
vn -0.8101 -0.2185 0.5440
vn -0.5487 0.6382 0.5401
vn -0.2030 0.9451 0.2560
vn -0.5282 0.3029 0.7932
vn -0.6104 -0.2964 0.7345
vn 0.1777 -0.9182 -0.3541
vn 0.8664 -0.3830 -0.3203
vn 0.2441 -0.8417 -0.4816
vn 0.2926 -0.7028 0.6484
vn -0.1465 0.3189 0.9364
vn -0.7673 0.2707 -0.5813
vn 0.5525 0.7017 0.4499
vn 0.1408 -0.9744 0.1750
vn 0.1913 0.7085 -0.6793
vn -0.1245 0.6614 0.7396
vn -0.5018 0.8275 -0.2518
vn 0.0527 -0.9574 0.2839
vn 0.0733 0.4110 0.9087
vn -0.5317 -0.7950 0.2921
usemtl None
s off
f 3//1 5//1 4//1
f 1//2 4//2 8//2
f 4//3 1//3 2//3
f 8//4 11//4 9//4
f 1//5 8//5 9//5
f 29//6 31//6 32//6 24//6
f 2//7 9//7 10//7
f 57//8 10//8 38//8
f 10//9 9//9 38//9
f 9//10 11//10 38//10
f 6//11 54//11 12//11
f 13//12 54//12 53//12
f 14//13 28//13 13//13
f 28//14 26//14 13//14
f 38//15 11//15 27//15
f 12//16 13//16 27//16
f 35//17 36//17 34//17
f 29//18 30//18 31//18
f 25//19 38//19 26//19
f 25//20 24//20 23//20
f 40//21 57//21 39//21
f 5//22 56//22 42//22
f 5//23 42//23 43//23
f 43//24 44//24 55//24
f 42//25 46//25 47//25
f 48//26 47//26 18//26
f 50//27 48//27 49//27
f 51//28 50//28 49//28
f 52//29 53//29 51//29
f 55//30 54//30 62//30
f 6//31 62//31 54//31
f 14//32 52//32 17//32
f 47//33 45//33 42//33
f 45//34 48//34 50//34
f 41//35 21//35 46//35
f 41//36 39//36 22//36
f 25//37 39//37 57//37
f 25//38 23//38 22//38
f 23//39 32//39 22//39
f 32//40 59//40 58//40
f 59//41 20//41 58//41
f 60//42 20//42 59//42
f 61//43 35//43 15//43
f 19//44 20//44 61//44
f 22//45 21//45 41//45
f 20//46 19//46 47//46
f 62//47 8//47 4//47
f 7//48 62//48 6//48
f 2//49 10//49 57//49
f 11//50 8//50 7//50
f 4//51 2//51 3//51
f 3//52 56//52 5//52
f 3//53 2//53 40//53
f 53//54 54//54 44//54
f 11//55 7//55 12//55
f 11//56 12//56 27//56
f 56//57 40//57 42//57
f 53//58 50//58 51//58
f 30//59 28//59 14//59
f 31//60 33//60 32//60
f 14//61 35//61 34//61
f 38//62 25//62 57//62
f 46//63 21//63 20//63
f 22//64 32//64 58//64
f 20//65 21//65 58//65
f 28//66 24//66 25//66
f 29//67 28//67 30//67
f 33//68 37//68 59//68
f 30//69 14//69 34//69
f 59//70 37//70 60//70
f 52//71 51//71 49//71
f 14//72 17//72 35//72
f 16//73 61//73 15//73
f 2//74 1//74 9//74
f 13//75 12//75 54//75
f 52//76 14//76 13//76
f 17//77 16//77 15//77
f 25//78 26//78 28//78
f 26//79 27//79 13//79
f 24//80 28//80 29//80
f 37//81 36//81 35//81 60//81
f 33//82 31//82 30//82
f 33//83 30//83 34//83
f 34//84 36//84 37//84 33//84
f 50//85 44//85 43//85 45//85
f 23//86 24//86 32//86
f 41//87 40//87 39//87
f 41//88 42//88 40//88
f 44//89 50//89 53//89
f 16//90 49//90 48//90 18//90
f 55//91 62//91 4//91 5//91
f 46//92 20//92 47//92
f 5//93 43//93 55//93
f 40//94 2//94 57//94
f 56//95 3//95 40//95
f 61//96 60//96 35//96
f 60//97 61//97 20//97
f 22//98 58//98 21//98
f 19//99 61//99 18//99
f 18//100 61//100 16//100
f 13//101 53//101 52//101
f 7//102 8//102 62//102
f 7//103 6//103 12//103
f 55//104 44//104 54//104
f 45//105 47//105 48//105
f 26//106 38//106 27//106
f 45//107 43//107 42//107
f 52//108 49//108 17//108
f 22//109 39//109 25//109
f 46//110 42//110 41//110
f 59//111 32//111 33//111
f 17//112 49//112 16//112
f 18//113 47//113 19//113
f 35//114 17//114 15//114
