# Blender v2.83.4 OBJ File: ''
# www.blender.org
mtllib cloud_1.mtl
g Mball.015_Mesh
v 1.293119 4.059095 2.417893
v 1.241217 2.909860 2.395746
v 0.155339 3.802460 1.847115
v -1.006559 4.826402 2.181038
v -3.445007 4.881227 2.239928
v -3.549872 4.312294 1.502893
v -0.776347 2.391980 5.427132
v -0.334148 2.538836 3.878541
v 0.832166 2.431302 4.103186
v 0.877445 2.373573 2.983344
v -0.149123 2.653680 2.188083
v -1.231903 2.310569 2.454704
v 1.823014 3.266189 2.895925
v 0.841960 2.388372 5.184405
v 0.125402 3.034603 6.276035
v 0.526714 3.712956 6.205611
v 0.221655 4.550457 5.619216
v 1.531187 4.187205 3.281260
v 0.398892 4.792376 4.216142
v -1.288011 5.418785 5.961173
v -0.488824 4.302518 6.906830
v -2.001411 5.573315 5.572716
v -4.570232 4.882751 4.505206
v -3.707160 4.843984 6.150148
v -2.608567 4.500740 6.911775
v -2.257496 3.439037 7.187821
v -1.243571 4.069376 7.244016
v -0.985324 2.848104 6.988085
v -0.459070 3.462881 7.102087
v -2.337196 2.768728 6.690169
v -3.638186 2.605220 6.710713
v -3.600161 2.462238 5.571671
v -5.522968 2.661628 5.306474
v -3.860510 3.044965 7.225767
v -3.942844 3.909775 7.361044
v -3.713572 4.566409 6.956592
v -5.633032 4.695583 5.308221
v -3.418021 5.489918 3.019497
v -5.656975 4.334818 2.668648
v -6.201488 3.456562 2.891866
v -5.620077 2.716671 3.107594
v -3.851616 2.460555 3.253685
v -3.789207 2.735718 1.563185
v -5.346006 2.663013 4.138391
v -3.664763 2.689850 4.246910
v -6.147967 3.485373 4.283702
v -6.161841 3.425391 5.594875
v -6.108455 4.150287 5.532903
v -5.934641 4.355711 4.235526
v -5.958346 4.502128 3.308098
v -3.380095 2.346128 2.106235
v -3.865386 3.488282 1.205577
v -4.868424 3.480359 2.062096
v -3.609908 5.642809 3.737867
v -2.139548 5.396164 3.224595
v -2.831736 5.363588 4.590822
v -0.722931 5.607386 3.180464
v -0.209371 5.447806 3.715210
v -2.358191 2.503888 5.323243
v 1.434884 4.309579 5.259621
v 1.824150 3.485086 5.230584
v 1.508839 2.775068 5.385217
v -1.029078 2.639196 1.368931
v -1.410139 3.192877 0.955541
v -1.207301 4.302597 1.238219
v -0.698003 3.479733 1.154177
v -1.020527 5.513546 4.521348
vn 0.6572 -0.0152 -0.7536
vn -0.1374 0.7990 -0.5854
vn -0.1027 0.3722 -0.9225
vn -0.0671 0.2578 -0.9639
vn -0.0564 -0.9931 -0.1031
vn -0.0817 -0.9782 0.1908
vn -0.0628 -0.9917 -0.1120
vn -0.0412 -0.9874 0.1531
vn -0.0254 -0.9844 0.1738
vn 0.2305 -0.7856 -0.5743
vn 0.6882 -0.7226 0.0651
vn 0.2519 -0.7512 0.6101
vn 0.0801 -0.8338 0.5462
vn 0.6791 -0.3339 0.6537
vn 0.6638 0.5759 0.4772
vn 0.4812 0.7687 0.4215
vn 0.5230 0.8117 -0.2601
vn 0.5184 0.8416 0.1517
vn 0.1089 0.6868 0.7187
vn 0.0692 0.9431 0.3252
vn -0.1738 0.1936 0.9656
vn -0.4515 -0.7654 0.4586
vn -0.5884 -0.1793 0.7884
vn -0.4896 0.5748 0.6556
vn -0.3716 0.8402 -0.3950
vn -0.4820 0.0770 -0.8728
vn -0.4344 -0.5495 -0.7137
vn -0.7974 0.3740 -0.4736
vn -0.5775 0.4636 -0.6720
vn -0.5953 -0.3932 -0.7007
vn -0.5927 -0.3851 -0.7074
vn 0.0648 0.7854 -0.6155
vn 0.2074 0.9698 0.1282
vn -0.0832 0.9964 -0.0184
vn -0.1463 0.9886 0.0367
vn -0.4601 0.8477 0.2639
vn -0.2097 0.9250 0.3167
vn 0.0585 -0.9903 0.1263
vn 0.0648 -0.1915 0.9793
vn 0.0650 0.5068 0.8596
vn 0.3336 0.6192 0.7108
vn 0.9492 0.3132 -0.0298
vn 0.6088 0.2611 0.7491
vn 0.5013 -0.2094 0.8395
vn 0.5100 -0.8593 -0.0387
vn -0.0695 -0.9911 -0.1138
vn 0.5119 -0.5592 0.6521
vn 0.1828 0.2112 -0.9602
vn 0.6236 -0.4149 -0.6626
vn 0.3843 -0.3677 -0.8468
vn -0.1430 -0.4366 -0.8882
vn 0.8669 0.3995 -0.2983
vn 0.5225 0.8106 -0.2644
vn -0.0082 -0.9992 -0.0396
vn 0.2390 -0.9409 -0.2401
vn 0.4023 0.6625 -0.6319
vn -0.1347 -0.9616 0.2391
vn 0.0168 -0.9985 0.0522
vn -0.0065 0.8747 -0.4846
vn 0.9044 0.4264 0.0177
vn 0.1613 0.9824 0.0946
vn -0.1429 -0.5790 0.8027
vn -0.0764 -0.6298 -0.7730
vn -0.5131 0.2642 -0.8167
vn -0.3753 0.8811 -0.2878
vn 0.0267 -0.9850 -0.1705
vn 0.1008 0.9783 -0.1813
vn -0.1414 0.8029 0.5790
vn -0.6337 0.1121 0.7654
vn -0.9973 0.0728 -0.0072
vn -0.4676 0.6531 0.5957
vn -0.4760 -0.6299 0.6137
vn 0.4489 -0.0031 -0.8936
vn 0.1550 0.7761 -0.6113
vn 0.2103 -0.9605 0.1822
vn 0.1495 -0.8562 -0.4946
vn 0.6525 -0.7156 -0.2492
vn 0.6319 0.1967 0.7497
vn 0.4782 0.8534 0.2075
vn 0.2462 0.9494 0.1948
vn -0.1485 0.8036 0.5763
vn -0.0870 0.9867 -0.1372
vn -0.7481 -0.6594 -0.0739
vn 0.0221 -0.2006 0.9794
vn -0.1187 -0.9857 0.1198
vn -0.3174 0.9261 -0.2042
vn -0.3823 0.9112 0.1536
vn -0.1281 -0.9781 -0.1639
vn -0.1422 -0.9897 -0.0137
vn -0.1009 -0.9948 -0.0165
vn 0.0010 -0.9744 0.2248
vn -0.7474 -0.6576 0.0943
vn -0.7531 0.6579 0.0033
vn -0.9682 0.2322 -0.0930
vn -0.9737 0.2236 0.0438
vn -0.3105 0.9403 0.1390
vn -0.5677 -0.8089 -0.1526
vn -0.3056 0.7647 -0.5672
vn -0.2534 0.8269 0.5019
vn 0.0599 -0.1487 0.9871
vn 0.1029 -0.7341 0.6712
vn 0.0417 0.6891 0.7234
vn 0.5888 -0.0864 0.8037
vn 0.4496 0.8926 -0.0333
vn 0.9163 -0.3989 0.0370
vn 0.5776 -0.8116 -0.0872
vn -0.0053 -0.9600 0.2798
vn 0.3449 -0.8875 0.3055
vn 0.0303 -0.9582 -0.2844
vn -0.0677 -0.8341 -0.5474
vn 0.4866 0.7156 -0.5012
vn 0.4904 0.3835 -0.7826
vn 0.6660 -0.3689 -0.6483
vn 0.1982 -0.3268 -0.9241
vn 0.2204 0.6467 -0.7302
vn 0.0135 0.8786 -0.4774
vn 0.6080 0.7541 0.2483
vn 0.1885 0.9759 0.1101
vn 0.5214 0.7373 0.4297
vn 0.3388 0.2245 0.9137
vn -0.0649 0.7944 -0.6040
vn -0.0008 -0.9856 -0.1693
vn 0.1808 0.3031 0.9357
vn 0.1254 -0.9744 0.1869
vn 0.1661 -0.6005 0.7822
vn -0.1123 0.9903 0.0822
usemtl None
s off
f 1//1 13//1 2//1
f 57//2 4//2 55//2
f 6//3 65//3 52//3
f 64//4 52//4 65//4
f 8//5 59//5 45//5
f 7//6 30//6 59//6
f 59//7 8//7 7//7
f 51//8 12//8 45//8
f 12//9 8//9 45//9
f 10//10 11//10 2//10
f 10//11 13//11 9//11
f 14//12 62//12 15//12
f 7//13 14//13 15//13
f 16//14 29//14 15//14
f 21//15 16//15 17//15
f 19//16 58//16 67//16
f 18//17 57//17 58//17
f 17//18 67//18 20//18
f 27//19 21//19 20//19
f 25//20 24//20 36//20
f 25//21 26//21 27//21
f 31//22 34//22 47//22
f 35//23 47//23 34//23
f 35//24 36//24 48//24
f 38//25 39//25 50//25
f 39//26 6//26 40//26
f 40//27 53//27 41//27
f 39//28 40//28 50//28
f 6//29 52//29 53//29
f 53//30 52//30 43//30
f 43//31 41//31 53//31
f 5//32 6//32 38//32
f 55//33 54//33 56//33
f 67//34 55//34 56//34
f 57//35 55//35 67//35
f 54//36 50//36 23//36
f 24//37 37//37 36//37
f 59//38 31//38 32//38
f 28//39 27//39 26//39
f 35//40 25//40 36//40
f 60//41 17//41 16//41
f 18//42 61//42 13//42
f 60//43 16//43 61//43
f 16//44 15//44 62//44
f 62//45 14//45 9//45
f 9//46 7//46 8//46
f 28//47 15//47 29//47
f 66//48 64//48 65//48
f 63//49 66//49 11//49
f 63//50 64//50 66//50
f 52//51 64//51 43//51
f 1//52 18//52 13//52
f 1//53 57//53 18//53
f 9//54 14//54 7//54
f 63//55 11//55 12//55
f 57//56 3//56 4//56
f 9//57 8//57 12//57
f 10//58 9//58 12//58
f 65//59 55//59 4//59
f 61//60 18//60 60//60
f 20//61 67//61 22//61
f 30//62 28//62 26//62
f 64//63 63//63 43//63
f 53//64 40//64 6//64
f 54//65 38//65 50//65
f 44//66 45//66 32//66
f 55//67 38//67 54//67
f 22//68 25//68 20//68
f 35//69 48//69 47//69
f 48//70 46//70 47//70
f 36//71 37//71 48//71
f 33//72 31//72 47//72
f 1//73 2//73 3//73
f 55//74 5//74 38//74
f 51//75 45//75 42//75
f 11//76 10//76 12//76
f 2//77 13//77 10//77
f 21//78 29//78 16//78
f 17//79 19//79 67//79
f 60//80 19//80 17//80
f 22//81 24//81 25//81
f 67//82 56//82 22//82
f 47//83 46//83 44//83 33//83
f 29//84 27//84 28//84
f 33//85 32//85 31//85
f 23//86 49//86 37//86
f 23//87 50//87 49//87
f 43//88 42//88 41//88
f 41//89 42//89 44//89
f 44//90 32//90 33//90
f 42//91 45//91 44//91
f 41//92 44//92 46//92 40//92
f 37//93 49//93 48//93
f 46//94 48//94 49//94
f 46//95 49//95 50//95 40//95
f 23//96 24//96 22//96 56//96
f 43//97 51//97 42//97
f 38//98 6//98 39//98
f 56//99 54//99 23//99
f 26//100 35//100 34//100
f 30//101 34//101 31//101
f 27//102 20//102 25//102
f 62//103 61//103 16//103
f 18//104 19//104 60//104
f 62//105 13//105 61//105
f 13//106 62//106 9//106
f 30//107 7//107 28//107
f 7//108 15//108 28//108
f 51//109 63//109 12//109
f 63//110 51//110 43//110
f 4//111 3//111 65//111
f 65//112 3//112 66//112
f 66//113 3//113 11//113
f 3//114 2//114 11//114
f 1//115 3//115 57//115
f 55//116 65//116 5//116
f 19//117 18//117 58//117
f 58//118 57//118 67//118
f 21//119 17//119 20//119
f 29//120 21//120 27//120
f 5//121 65//121 6//121
f 45//122 59//122 32//122
f 26//123 25//123 35//123
f 59//124 30//124 31//124
f 30//125 26//125 34//125
f 24//126 23//126 37//126
