# Blender v2.83.4 OBJ File: ''
# www.blender.org
mtllib destroyer_rudder.mtl
g destroyer_rudder
v -0.209372 -0.896111 0.000069
v 0.270172 -0.896111 0.000069
v 0.270172 0.103889 0.000070
v -0.209372 0.103889 0.000070
v -0.209372 2.077636 -0.240058
v 0.270172 2.077636 -0.240058
v 0.270172 2.077636 -1.240058
v -0.209372 2.077636 -1.240058
v -0.209372 0.202111 -3.034668
v 0.270172 0.202111 -3.034668
v 0.270172 -0.896111 -3.445147
v -0.209371 -0.896111 -3.445147
v -0.209371 -1.976173 -3.445147
v 0.270172 -1.976173 -3.445147
v 0.270172 -1.976174 0.165764
v -0.209372 -1.976174 0.165764
vt 0.375000 0.000000
vt 0.625000 0.000000
vt 0.625000 0.250000
vt 0.375000 0.250000
vt 0.375000 0.250000
vt 0.625000 0.250000
vt 0.625000 0.500000
vt 0.375000 0.500000
vt 0.375000 0.500000
vt 0.625000 0.500000
vt 0.625000 0.750000
vt 0.375000 0.750000
vt 0.375000 0.750000
vt 0.625000 0.750000
vt 0.625000 1.000000
vt 0.375000 1.000000
vt 0.875000 0.000000
vt 0.875000 0.250000
vt 0.125000 0.000000
vt 0.125000 0.250000
vt 0.625000 1.000000
vt 0.375000 1.000000
vn 0.0000 -0.0000 1.0000
vn 0.0000 1.0000 0.0000
vn 0.0000 0.3501 -0.9367
vn 0.0000 -1.0000 -0.0000
vn 1.0000 0.0000 0.0000
vn -1.0000 -0.0000 -0.0000
vn 0.0000 0.1208 0.9927
vn 0.0000 0.6913 -0.7225
vn 0.0000 0.0000 -1.0000
vn 0.0000 0.1516 0.9884
usemtl initialShadingGroup.009
s 1
f 1/1/1 2/2/1 3/3/1 4/4/1
f 5/5/2 6/6/2 7/7/2 8/8/2
f 9/9/3 10/10/3 11/11/3 12/12/3
f 13/13/4 14/14/4 15/15/4 16/16/4
f 2/2/5 11/17/5 10/18/5 3/3/5
f 12/19/6 1/1/6 4/4/6 9/20/6
f 4/4/7 3/3/7 6/6/7 5/5/7
f 3/3/5 10/10/5 7/7/5 6/6/5
f 10/10/8 9/9/8 8/8/8 7/7/8
f 9/9/6 4/4/6 5/5/6 8/8/6
f 12/12/9 11/11/9 14/14/9 13/13/9
f 11/11/5 2/21/5 15/15/5 14/14/5
f 2/21/10 1/22/10 16/16/10 15/15/10
f 1/22/6 12/12/6 13/13/6 16/16/6
