# Blender v2.83.4 OBJ File: ''
# www.blender.org
mtllib destroyer_mast_3.mtl
g destroyer_mast_3
v -2.283297 1.752060 0.199818
v -0.669196 1.730294 0.967137
v -0.581974 2.761616 1.322624
v -2.249977 2.761616 1.000262
v 0.747949 1.730294 0.967137
v 0.660726 2.761616 1.322624
v 2.456934 1.730285 0.239231
v 2.328729 2.761616 1.000262
v -0.500026 3.792946 1.609800
v -2.153025 3.792946 1.197518
v 0.578778 3.792946 1.609800
v 2.231778 3.792946 1.197518
v -0.581974 4.824277 1.322626
v -2.249963 4.824276 1.000260
v 0.660726 4.824277 1.322626
v 2.328715 4.824276 1.000260
v -0.669198 5.855599 0.967136
v -2.389427 5.791425 0.104865
v 0.747949 5.855599 0.967136
v 2.441976 5.730066 0.148546
v -0.746681 5.855611 0.512227
v -2.564971 5.791413 -0.336125
v 0.825433 5.855611 0.512227
v 2.617525 5.730048 -0.292444
v -0.694588 4.824276 1.257721
v -2.567676 4.824279 0.566322
v 0.773340 4.824276 1.257721
v 2.646428 4.824279 0.566322
v -0.608505 3.792946 1.545673
v -2.505709 3.792946 0.774961
v 0.687257 3.792946 1.545673
v 2.584458 3.792946 0.774961
v -0.694591 2.761616 1.257721
v -2.567676 2.761614 0.566322
v 0.773340 2.761616 1.257721
v 2.441860 2.761614 0.569877
v -0.746684 1.730282 0.512226
v -2.458847 1.752066 -0.241176
v 0.825433 1.730282 0.512226
v 2.845104 1.752066 -0.290991
v 2.716904 1.963756 -0.450726
v 2.716904 1.703541 -0.450726
v -2.638152 1.703541 -0.450726
v -2.638152 1.963756 -0.450726
v 2.716904 1.573434 -0.225374
v -2.638152 1.573434 -0.225374
v 2.716904 1.703541 -0.000023
v -2.638152 1.703541 -0.000023
v 2.716904 1.963756 -0.000023
v -2.638152 1.963756 -0.000023
v 2.716904 2.093863 -0.225374
v -2.638152 2.093863 -0.225374
v 2.716904 1.833649 -0.225374
v -2.638152 1.833649 -0.225374
v 2.716904 5.839513 -0.450726
v 2.716904 5.579299 -0.450726
v -2.638152 5.579299 -0.450726
v -2.638152 5.839513 -0.450726
v 2.716904 5.449192 -0.225373
v -2.638152 5.449192 -0.225373
v 2.716904 5.579299 -0.000022
v -2.638152 5.579299 -0.000022
v 2.716904 5.839513 -0.000022
v -2.638152 5.839513 -0.000022
v 2.716904 5.969621 -0.225373
v -2.638152 5.969621 -0.225373
v 2.716904 5.709406 -0.225373
v -2.638152 5.709406 -0.225373
v 0.169483 -0.190792 -0.450727
v -0.090731 -0.190792 -0.450727
v -0.090731 6.681981 -0.450725
v 0.169483 6.681981 -0.450725
v -0.220838 -0.190792 -0.225374
v -0.220838 6.681981 -0.225373
v -0.090731 -0.190792 -0.000023
v -0.090731 6.681981 -0.000022
v 0.169483 -0.190792 -0.000023
v 0.169483 6.681981 -0.000022
v 0.299590 -0.190792 -0.225374
v 0.299590 6.681981 -0.225373
v 0.039376 -0.190792 -0.225374
v 0.039376 6.681981 -0.225373
vt 0.375000 0.312500
vt 0.416667 0.312500
vt 0.416667 0.688440
vt 0.375000 0.688440
vt 0.458333 0.312500
vt 0.458333 0.688440
vt 0.500000 0.312500
vt 0.500000 0.688440
vt 0.541667 0.312500
vt 0.541667 0.688440
vt 0.583333 0.312500
vt 0.583333 0.688440
vt 0.625000 0.312500
vt 0.625000 0.688440
vt 0.375000 0.312500
vt 0.416667 0.312500
vt 0.416667 0.688440
vt 0.375000 0.688440
vt 0.458333 0.312500
vt 0.458333 0.688440
vt 0.500000 0.312500
vt 0.500000 0.688440
vt 0.541667 0.312500
vt 0.541667 0.688440
vt 0.583333 0.312500
vt 0.583333 0.688440
vt 0.625000 0.312500
vt 0.625000 0.688440
vt 0.375000 0.312500
vt 0.416667 0.312500
vt 0.416667 0.688440
vt 0.375000 0.688440
vt 0.458333 0.312500
vt 0.458333 0.688440
vt 0.500000 0.312500
vt 0.500000 0.688440
vt 0.541667 0.312500
vt 0.541667 0.688440
vt 0.583333 0.312500
vt 0.583333 0.688440
vt 0.625000 0.312500
vt 0.625000 0.688440
vt 0.375000 0.000000
vt 0.458333 0.000000
vt 0.458333 0.062500
vt 0.375000 0.062500
vt 0.541667 0.000000
vt 0.541667 0.062500
vt 0.625000 0.000000
vt 0.625000 0.062500
vt 0.458333 0.125000
vt 0.375000 0.125000
vt 0.541667 0.125000
vt 0.625000 0.125000
vt 0.458333 0.187500
vt 0.375000 0.187500
vt 0.541667 0.187500
vt 0.625000 0.187500
vt 0.458333 0.250000
vt 0.375000 0.250000
vt 0.541667 0.250000
vt 0.625000 0.250000
vt 0.458333 0.500000
vt 0.375000 0.500000
vt 0.541667 0.500000
vt 0.625000 0.500000
vt 0.458333 0.562500
vt 0.375000 0.562500
vt 0.541667 0.562500
vt 0.625000 0.562500
vt 0.458333 0.625000
vt 0.375000 0.625000
vt 0.541667 0.625000
vt 0.625000 0.625000
vt 0.458333 0.687500
vt 0.375000 0.687500
vt 0.541667 0.687500
vt 0.625000 0.687500
vt 0.458333 0.750000
vt 0.375000 0.750000
vt 0.541667 0.750000
vt 0.625000 0.750000
vt 0.458333 1.000000
vt 0.375000 1.000000
vt 0.541667 1.000000
vt 0.625000 1.000000
vt 0.875000 0.000000
vt 0.875000 0.062500
vt 0.875000 0.125000
vt 0.875000 0.187500
vt 0.875000 0.250000
vt 0.125000 0.000000
vt 0.125000 0.062500
vt 0.125000 0.125000
vt 0.125000 0.187500
vt 0.125000 0.250000
vt 0.421875 0.020934
vt 0.578125 0.020934
vt 0.500000 0.150000
vt 0.343750 0.156250
vt 0.421875 0.291566
vt 0.578125 0.291566
vt 0.656250 0.156250
vt 0.578125 0.979066
vt 0.421875 0.979066
vt 0.500000 0.837500
vt 0.343750 0.843750
vt 0.421875 0.708434
vt 0.578125 0.708434
vt 0.656250 0.843750
vt 0.421875 0.020934
vt 0.578125 0.020934
vt 0.500000 0.150000
vt 0.343750 0.156250
vt 0.421875 0.291566
vt 0.578125 0.291566
vt 0.656250 0.156250
vt 0.578125 0.979066
vt 0.421875 0.979066
vt 0.500000 0.837500
vt 0.343750 0.843750
vt 0.421875 0.708434
vt 0.578125 0.708434
vt 0.656250 0.843750
vt 0.421875 0.020934
vt 0.578125 0.020934
vt 0.500000 0.150000
vt 0.343750 0.156250
vt 0.421875 0.291566
vt 0.578125 0.291566
vt 0.656250 0.156250
vt 0.578125 0.979066
vt 0.421875 0.979066
vt 0.500000 0.837500
vt 0.343750 0.843750
vt 0.421875 0.708434
vt 0.578125 0.708434
vt 0.656250 0.843750
vn 0.0000 0.0000 -1.0000
vn 0.0000 -0.8660 -0.5000
vn 0.0000 -0.8660 0.5000
vn 0.0000 -0.0000 1.0000
vn 0.0000 0.8660 0.5000
vn 0.0000 0.8660 -0.5000
vn -0.8660 0.0000 -0.5000
vn -0.8660 -0.0000 0.5000
vn 0.8660 -0.0000 0.5000
vn 0.8660 0.0000 -0.5000
vn -0.2825 -0.4601 0.8417
vn -0.1774 -0.4144 0.8926
vn -0.1447 -0.3216 0.9358
vn -0.2544 -0.3541 0.8999
vn 0.1686 -0.3996 0.9011
vn 0.1408 -0.3151 0.9385
vn 0.2671 -0.4370 0.8589
vn 0.2458 -0.3433 0.9065
vn -0.1217 -0.0000 0.9926
vn -0.2160 -0.0000 0.9764
vn 0.1217 0.0000 0.9926
vn 0.2160 -0.0000 0.9764
vn -0.1507 0.3301 0.9318
vn -0.2652 0.3733 0.8890
vn 0.1492 0.3285 0.9326
vn 0.2645 0.3706 0.8903
vn -0.1889 0.4301 0.8828
vn -0.2973 0.4821 0.8241
vn 0.1850 0.4284 0.8845
vn 0.2976 0.4826 0.8238
vn -0.0420 0.9990 0.0119
vn -0.0147 0.9999 0.0042
vn -0.0255 0.9996 0.0072
vn 0.0293 0.9995 0.0083
vn 0.0501 0.9986 0.0142
vn 0.0826 0.9963 0.0233
vn 0.3172 -0.5987 -0.7355
vn 0.1955 -0.6013 -0.7747
vn 0.1988 -0.4310 -0.8802
vn 0.3405 -0.4461 -0.8277
vn -0.1928 -0.6035 -0.7737
vn -0.1983 -0.4305 -0.8806
vn -0.3193 -0.6022 -0.7317
vn -0.3424 -0.4442 -0.8279
vn 0.2033 -0.0000 -0.9791
vn 0.3616 -0.0000 -0.9323
vn -0.2059 0.0063 -0.9785
vn -0.3694 -0.0007 -0.9293
vn 0.1946 0.4240 -0.8845
vn 0.3347 0.4263 -0.8404
vn -0.1986 0.4227 -0.8842
vn -0.3428 0.4231 -0.8387
vn 0.1868 0.5903 -0.7853
vn 0.3071 0.5817 -0.7532
vn -0.1925 0.5665 -0.8012
vn -0.3178 0.5416 -0.7782
vn -0.0150 -0.9999 0.0043
vn -0.0088 -1.0000 0.0025
vn -0.0053 -1.0000 0.0015
vn -0.0024 -0.9999 -0.0144
vn -0.0015 -1.0000 -0.0092
vn -0.0040 -0.9997 -0.0240
vn 0.8799 -0.1334 0.4561
vn 0.8772 -0.1258 0.4634
vn 0.8751 -0.1200 0.4689
vn 0.8310 -0.0181 0.5560
vn 0.8326 -0.0214 0.5534
vn 0.8088 0.2550 0.5298
vn 0.8029 0.1660 0.5726
vn 0.8022 0.3897 0.4523
vn -0.8021 -0.3901 0.4522
vn -0.8045 -0.1826 0.5651
vn -0.8089 -0.2601 0.5273
vn -0.7875 0.0000 0.6164
vn -0.8045 0.1621 0.5714
vn -0.8122 0.2459 0.5290
vn -0.8102 0.3673 0.4568
vn 1.0000 0.0000 0.0000
vn -1.0000 0.0000 0.0000
vn 0.0000 -1.0000 -0.0000
vn 0.0000 1.0000 -0.0000
usemtl initialShadingGroup.008
s off
f 41/1/1 42/2/1 43/3/1 44/4/1
f 42/2/2 45/5/2 46/6/2 43/3/2
f 45/5/3 47/7/3 48/8/3 46/6/3
f 47/7/4 49/9/4 50/10/4 48/8/4
f 49/9/5 51/11/5 52/12/5 50/10/5
f 51/11/6 41/13/6 44/14/6 52/12/6
f 55/15/1 56/16/1 57/17/1 58/18/1
f 56/16/2 59/19/2 60/20/2 57/17/2
f 59/19/3 61/21/3 62/22/3 60/20/3
f 61/21/4 63/23/4 64/24/4 62/22/4
f 63/23/5 65/25/5 66/26/5 64/24/5
f 65/25/6 55/27/6 58/28/6 66/26/6
f 69/29/1 70/30/1 71/31/1 72/32/1
f 70/30/7 73/33/7 74/34/7 71/31/7
f 73/33/8 75/35/8 76/36/8 74/34/8
f 75/35/4 77/37/4 78/38/4 76/36/4
f 77/37/9 79/39/9 80/40/9 78/38/9
f 79/39/10 69/41/10 72/42/10 80/40/10
s 1
f 1/43/11 2/44/12 3/45/13 4/46/14
f 2/44/12 5/47/15 6/48/16 3/45/13
f 5/47/15 7/49/17 8/50/18 6/48/16
f 4/46/14 3/45/13 9/51/19 10/52/20
f 3/45/13 6/48/16 11/53/21 9/51/19
f 6/48/16 8/50/18 12/54/22 11/53/21
f 10/52/20 9/51/19 13/55/23 14/56/24
f 9/51/19 11/53/21 15/57/25 13/55/23
f 11/53/21 12/54/22 16/58/26 15/57/25
f 14/56/24 13/55/23 17/59/27 18/60/28
f 13/55/23 15/57/25 19/61/29 17/59/27
f 15/57/25 16/58/26 20/62/30 19/61/29
f 18/60/31 17/59/32 21/63/33 22/64/31
f 17/59/32 19/61/34 23/65/35 21/63/33
f 19/61/34 20/62/36 24/66/36 23/65/35
f 22/64/37 21/63/38 25/67/39 26/68/40
f 21/63/38 23/65/41 27/69/42 25/67/39
f 23/65/41 24/66/43 28/70/44 27/69/42
f 26/68/40 25/67/39 29/71/45 30/72/46
f 25/67/39 27/69/42 31/73/47 29/71/45
f 27/69/42 28/70/44 32/74/48 31/73/47
f 30/72/46 29/71/45 33/75/49 34/76/50
f 29/71/45 31/73/47 35/77/51 33/75/49
f 31/73/47 32/74/48 36/78/52 35/77/51
f 34/76/50 33/75/49 37/79/53 38/80/54
f 33/75/49 35/77/51 39/81/55 37/79/53
f 35/77/51 36/78/52 40/82/56 39/81/55
f 38/80/57 37/79/58 2/83/59 1/84/57
f 37/79/58 39/81/60 5/85/61 2/83/59
f 39/81/60 40/82/62 7/86/62 5/85/61
f 7/49/63 40/87/63 36/88/64 8/50/65
f 8/50/65 36/88/64 32/89/66 12/54/67
f 12/54/67 32/89/66 28/90/68 16/58/69
f 16/58/69 28/90/68 24/91/70 20/62/70
f 38/92/71 1/43/71 4/46/72 34/93/73
f 34/93/73 4/46/72 10/52/74 30/94/74
f 30/94/74 10/52/74 14/56/75 26/95/76
f 26/95/76 14/56/75 18/60/77 22/96/77
f 42/97/78 41/98/78 53/99/78
f 45/100/78 42/97/78 53/99/78
f 47/101/78 45/100/78 53/99/78
f 49/102/78 47/101/78 53/99/78
f 51/103/78 49/102/78 53/99/78
f 41/98/78 51/103/78 53/99/78
f 44/104/79 43/105/79 54/106/79
f 43/105/79 46/107/79 54/106/79
f 46/107/79 48/108/79 54/106/79
f 48/108/79 50/109/79 54/106/79
f 50/109/79 52/110/79 54/106/79
f 52/110/79 44/104/79 54/106/79
f 56/111/78 55/112/78 67/113/78
f 59/114/78 56/111/78 67/113/78
f 61/115/78 59/114/78 67/113/78
f 63/116/78 61/115/78 67/113/78
f 65/117/78 63/116/78 67/113/78
f 55/112/78 65/117/78 67/113/78
f 58/118/79 57/119/79 68/120/79
f 57/119/79 60/121/79 68/120/79
f 60/121/79 62/122/79 68/120/79
f 62/122/79 64/123/79 68/120/79
f 64/123/79 66/124/79 68/120/79
f 66/124/79 58/118/79 68/120/79
f 70/125/80 69/126/80 81/127/80
f 73/128/80 70/125/80 81/127/80
f 75/129/80 73/128/80 81/127/80
f 77/130/80 75/129/80 81/127/80
f 79/131/80 77/130/80 81/127/80
f 69/126/80 79/131/80 81/127/80
f 72/132/81 71/133/81 82/134/81
f 71/133/81 74/135/81 82/134/81
f 74/135/81 76/136/81 82/134/81
f 76/136/81 78/137/81 82/134/81
f 78/137/81 80/138/81 82/134/81
f 80/138/81 72/132/81 82/134/81
