# Blender v2.83.4 OBJ File: ''
# www.blender.org
mtllib flagpole.mtl
o flagpole
v 0.576864 -1.039932 -0.576864
v 0.000000 -1.039932 -0.815809
v 0.000000 0.297366 -0.815809
v 0.576864 0.297366 -0.576864
v -0.576864 -1.039932 -0.576864
v -0.576864 0.297366 -0.576864
v -0.815809 -1.039932 -0.000000
v -0.815809 0.297366 0.000000
v -0.576864 -1.039932 0.576864
v -0.576864 0.297366 0.576864
v 0.000000 -1.039932 0.815809
v 0.000000 0.297366 0.815809
v 0.576864 -1.039932 0.576864
v 0.576864 0.297366 0.576864
v 0.815809 -1.039932 -0.000000
v 0.815809 0.297366 0.000000
v 0.000000 -1.039932 -0.000000
v 0.173447 9.887053 -0.173445
v 0.000000 9.887053 -0.245289
v 0.000000 9.887053 0.000002
v -0.173447 9.887053 -0.173445
v -0.245291 9.887053 0.000002
v -0.173447 9.887053 0.173449
v 0.000000 9.887053 0.245293
v 0.173447 9.887053 0.173449
v 0.245291 9.887053 0.000002
v 0.000000 0.297366 0.245291
v 0.173447 0.297366 0.173447
v -0.173447 0.297366 0.173447
v -0.245291 0.297366 0.000000
v -0.173447 0.297366 -0.173447
v 0.000000 0.297366 -0.245291
v 0.173447 0.297366 -0.173447
v 0.245291 0.297366 0.000000
vt 0.375000 0.312500
vt 0.406250 0.312500
vt 0.406250 0.350120
vt 0.375000 0.350120
vt 0.437500 0.312500
vt 0.437500 0.350120
vt 0.468750 0.312500
vt 0.468750 0.350120
vt 0.500000 0.312500
vt 0.500000 0.350120
vt 0.531250 0.312500
vt 0.531250 0.350120
vt 0.562500 0.312500
vt 0.562500 0.350120
vt 0.593750 0.312500
vt 0.593750 0.350120
vt 0.625000 0.312500
vt 0.625000 0.350120
vt 0.531250 0.350120
vt 0.562500 0.350120
vt 0.562500 0.688440
vt 0.531250 0.688440
vt 0.500000 0.350120
vt 0.500000 0.688440
vt 0.468750 0.350120
vt 0.468750 0.688440
vt 0.437500 0.350120
vt 0.437500 0.688440
vt 0.406250 0.350120
vt 0.406250 0.688440
vt 0.375000 0.350120
vt 0.375000 0.688440
vt 0.593750 0.350120
vt 0.625000 0.350120
vt 0.625000 0.688440
vt 0.593750 0.688440
vt 0.500000 0.000000
vt 0.610485 0.045765
vt 0.500000 0.150000
vt 0.389515 0.045765
vt 0.343750 0.156250
vt 0.389515 0.266735
vt 0.500000 0.312500
vt 0.610485 0.266735
vt 0.656250 0.156250
vt 0.610485 0.954235
vt 0.500000 1.000000
vt 0.500000 0.837500
vt 0.389515 0.954235
vt 0.343750 0.843750
vt 0.389515 0.733265
vt 0.500000 0.687500
vt 0.610485 0.733265
vt 0.656250 0.843750
vn 0.3827 0.0000 -0.9239
vn -0.3827 0.0000 -0.9239
vn -0.9239 0.0000 -0.3827
vn -0.9239 -0.0000 0.3827
vn -0.3827 -0.0000 0.9239
vn 0.3827 -0.0000 0.9239
vn 0.9239 -0.0000 0.3827
vn 0.9239 0.0000 -0.3827
vn 0.0000 1.0000 0.0000
vn 0.0000 -1.0000 -0.0000
usemtl initialShadingGroup
s off
f 1/1/1 2/2/1 3/3/1 4/4/1
f 2/2/2 5/5/2 6/6/2 3/3/2
f 5/5/3 7/7/3 8/8/3 6/6/3
f 7/7/4 9/9/4 10/10/4 8/8/4
f 9/9/5 11/11/5 12/12/5 10/10/5
f 11/11/6 13/13/6 14/14/6 12/12/6
f 13/13/7 15/15/7 16/16/7 14/14/7
f 15/15/8 1/17/8 4/18/8 16/16/8
f 27/19/6 28/20/6 25/21/6 24/22/6
f 29/23/5 27/19/5 24/22/5 23/24/5
f 30/25/4 29/23/4 23/24/4 22/26/4
f 31/27/3 30/25/3 22/26/3 21/28/3
f 32/29/2 31/27/2 21/28/2 19/30/2
f 33/31/1 32/29/1 19/30/1 18/32/1
f 34/33/8 33/34/8 18/35/8 26/36/8
f 28/20/7 34/33/7 26/36/7 25/21/7
f 32/29/9 33/31/9 4/4/9 3/3/9
f 31/27/9 32/29/9 3/3/9 6/6/9
f 30/25/9 31/27/9 6/6/9 8/8/9
f 29/23/9 30/25/9 8/8/9 10/10/9
f 27/19/9 29/23/9 10/10/9 12/12/9
f 28/20/9 27/19/9 12/12/9 14/14/9
f 34/33/9 28/20/9 14/14/9 16/16/9
f 33/34/9 34/33/9 16/16/9 4/18/9
s 1
f 2/37/10 1/38/10 17/39/10
f 5/40/10 2/37/10 17/39/10
f 7/41/10 5/40/10 17/39/10
f 9/42/10 7/41/10 17/39/10
f 11/43/10 9/42/10 17/39/10
f 13/44/10 11/43/10 17/39/10
f 15/45/10 13/44/10 17/39/10
f 1/38/10 15/45/10 17/39/10
f 18/46/9 19/47/9 20/48/9
f 19/47/9 21/49/9 20/48/9
f 21/49/9 22/50/9 20/48/9
f 22/50/9 23/51/9 20/48/9
f 23/51/9 24/52/9 20/48/9
f 24/52/9 25/53/9 20/48/9
f 25/53/9 26/54/9 20/48/9
f 26/54/9 18/46/9 20/48/9
