# Blender v2.91.0 OBJ File: ''
# www.blender.org
mtllib monstera.mtl
o Plane.001_Plane.003
v -0.916442 2.157376 1.376955
v -1.015271 1.653277 2.079547
v 0.484873 2.157376 1.574069
v 0.386044 1.653277 2.276661
v -0.999920 1.781242 1.970410
v 0.401396 1.781242 2.167524
v -0.215784 2.157376 1.475512
v -0.366572 1.220171 2.547483
v -0.299262 1.781242 2.068967
v -0.012624 1.440520 2.571035
v 0.041449 1.891256 2.186620
v 0.148827 2.375081 1.423251
v -0.551830 2.375081 1.324694
v -0.713282 1.440520 2.472478
v -0.659209 1.891256 2.088063
v -0.557564 2.440666 1.365455
v -0.922176 2.222960 1.417716
v -1.005653 1.846827 2.011172
v -1.021005 1.718862 2.120308
v -0.018358 1.506104 2.611797
v 0.380310 1.718862 2.317422
v 0.395662 1.846827 2.208286
v 0.479140 2.222960 1.614830
v 0.035715 1.956841 2.227381
v 0.143094 2.440666 1.464012
v -0.221518 2.222960 1.516273
v -0.719016 1.506104 2.513240
v -0.372305 1.285756 2.588244
v -0.664942 1.956841 2.128824
v -0.304996 1.846827 2.109729
v -0.221750 2.138915 1.517919
v -0.268458 2.186291 1.509641
v -0.221278 2.233667 1.514570
v -0.174570 2.186291 1.522847
v -0.068022 1.755118 0.425043
v -0.110249 1.788294 0.384906
v -0.058588 1.821470 0.357976
v -0.016361 1.788294 0.398113
v -0.033306 0.980113 0.178241
v -0.073739 0.988024 0.125352
v -0.020284 0.995934 0.085669
v 0.020149 0.988024 0.138559
v -0.030964 0.057681 0.161596
v -0.071305 0.057681 0.108048
v -0.017757 0.057681 0.067707
v 0.022583 0.057681 0.121255
v 2.040746 3.025214 0.993845
v 3.043506 2.312763 0.993845
v 2.040745 3.025214 -1.006155
v 3.043506 2.312763 -1.006155
v 2.887744 2.493618 0.993845
v 2.887743 2.493618 -1.006155
v 2.040745 3.025214 -0.006155
v 3.570696 1.700647 -0.006155
v 2.887744 2.493618 -0.006155
v 3.533979 2.012069 -0.506155
v 2.985329 2.649102 -0.506155
v 1.895825 3.332901 -0.506155
v 1.895825 3.332901 0.493845
v 3.533979 2.012069 0.493845
v 2.985329 2.649103 0.493845
v 1.954001 3.425593 0.493845
v 2.098921 3.117906 0.993845
v 2.945919 2.586310 0.993845
v 3.101682 2.405455 0.993845
v 3.592155 2.104762 -0.506155
v 3.101682 2.405455 -1.006155
v 2.945919 2.586310 -1.006155
v 2.098921 3.117906 -1.006155
v 3.043505 2.741795 -0.506155
v 1.954001 3.425593 -0.506155
v 2.098921 3.117906 -0.006155
v 3.592154 2.104761 0.493845
v 3.628872 1.793339 -0.006155
v 3.043505 2.741795 0.493845
v 2.945919 2.586310 -0.006155
v 2.101270 2.999123 -0.006155
v 2.098880 3.066081 0.060845
v 2.096490 3.133038 -0.006155
v 2.098880 3.066080 -0.073155
v 0.541484 2.456697 -0.006155
v 0.493624 2.503585 0.060845
v 0.445764 2.550472 -0.006155
v 0.493624 2.503585 -0.073155
v 0.189241 1.361370 -0.006155
v 0.123180 1.372550 0.060845
v 0.057120 1.383730 -0.006155
v 0.123181 1.372550 -0.073155
v 0.165484 0.057681 -0.006155
v 0.098484 0.057681 0.060845
v 0.031484 0.057681 -0.006155
v 0.098484 0.057681 -0.073155
v 1.089701 3.699159 2.252845
v 1.743704 3.000078 2.944868
v 2.166765 3.699159 1.234957
v 2.820768 3.000078 1.926980
v 1.647801 3.189191 2.843390
v 2.724865 3.189190 1.825502
v 1.628233 3.699159 1.743901
v 2.606825 2.360011 2.779383
v 2.186333 3.189191 2.334446
v 2.875260 2.712958 2.524032
v 2.537458 3.379079 2.166592
v 1.819567 4.035058 1.406966
v 1.281035 4.035058 1.915910
v 2.336728 2.712959 3.032976
v 1.998926 3.379079 2.675536
v 1.329835 4.148261 1.967547
v 1.138502 3.812361 2.304482
v 1.696602 3.302393 2.895027
v 1.792504 3.113280 2.996505
v 2.924060 2.826161 2.575670
v 2.869568 3.113280 1.978618
v 2.773665 3.302393 1.877140
v 2.215565 3.812361 1.286594
v 2.586258 3.492282 2.218230
v 1.868367 4.148261 1.458603
v 1.677033 3.812361 1.795538
v 2.385528 2.826161 3.084614
v 2.655625 2.473213 2.831021
v 2.047727 3.492282 2.727173
v 2.235133 3.302393 2.386084
v 1.669077 3.676365 1.787119
v 1.636724 3.752900 1.825164
v 1.676533 3.829434 1.795009
v 1.708887 3.752900 1.756965
v 0.518057 2.870095 0.569183
v 0.451805 2.918242 0.571358
v 0.457716 2.966388 0.505334
v 0.523968 2.918241 0.503160
v 0.179312 1.571939 0.210745
v 0.097248 1.576973 0.196189
v 0.087349 1.582008 0.113435
v 0.169412 1.576973 0.127991
v 0.056833 0.073486 0.081145
v -0.026803 0.065584 0.064926
v -0.038275 0.057681 -0.019492
v 0.045361 0.065584 -0.003272
vt 0.500000 0.750000
vt 0.500000 1.000000
vt 0.614036 1.000000
vt 0.901675 0.750000
vt 0.000000 0.750000
vt 0.000000 1.000000
vt 0.000000 0.250000
vt 0.000000 0.500000
vt 0.500000 0.500000
vt 0.500000 0.250000
vt 1.000000 0.500000
vt 0.901675 0.250000
vt 0.500000 0.000000
vt 0.614036 0.000000
vt 0.000000 0.000000
vt 0.500000 0.750000
vt 0.901675 0.750000
vt 0.614036 1.000000
vt 0.500000 1.000000
vt 0.000000 0.750000
vt 0.000000 1.000000
vt 0.000000 0.250000
vt 0.500000 0.250000
vt 0.500000 0.500000
vt 0.000000 0.500000
vt 0.901675 0.250000
vt 1.000000 0.500000
vt 0.500000 0.000000
vt 0.614036 0.000000
vt 0.000000 0.000000
vt 0.000000 1.000000
vt 0.333333 1.000000
vt 0.333333 0.750000
vt 0.000000 0.750000
vt 0.000000 0.250000
vt 0.333333 0.250000
vt 0.333333 0.000000
vt 0.000000 0.000000
vt 0.000000 0.500000
vt 0.333333 0.500000
vt 0.666667 1.000000
vt 0.666667 0.750000
vt 0.666667 0.250000
vt 0.666667 0.000000
vt 0.666667 0.500000
vt 1.000000 1.000000
vt 1.000000 0.750000
vt 1.000000 0.250000
vt 1.000000 0.000000
vt 1.000000 0.500000
vt 0.500000 0.750000
vt 0.500000 1.000000
vt 0.614036 1.000000
vt 0.901675 0.750000
vt 0.000000 0.750000
vt 0.000000 1.000000
vt 0.000000 0.250000
vt 0.000000 0.500000
vt 0.500000 0.500000
vt 0.500000 0.250000
vt 1.000000 0.500000
vt 0.901675 0.250000
vt 0.500000 0.000000
vt 0.614036 0.000000
vt 0.000000 0.000000
vt 0.500000 0.750000
vt 0.901675 0.750000
vt 0.614036 1.000000
vt 0.500000 1.000000
vt 0.000000 0.750000
vt 0.000000 1.000000
vt 0.000000 0.250000
vt 0.500000 0.250000
vt 0.500000 0.500000
vt 0.000000 0.500000
vt 0.901675 0.250000
vt 1.000000 0.500000
vt 0.500000 0.000000
vt 0.614036 0.000000
vt 0.000000 0.000000
vt 0.000000 1.000000
vt 0.333333 1.000000
vt 0.333333 0.750000
vt 0.000000 0.750000
vt 0.000000 0.250000
vt 0.333333 0.250000
vt 0.333333 0.000000
vt 0.000000 0.000000
vt 0.000000 0.500000
vt 0.333333 0.500000
vt 0.666667 1.000000
vt 0.666667 0.750000
vt 0.666667 0.250000
vt 0.666667 0.000000
vt 0.666667 0.500000
vt 1.000000 1.000000
vt 1.000000 0.750000
vt 1.000000 0.250000
vt 1.000000 0.000000
vt 1.000000 0.500000
vt 0.500000 0.750000
vt 0.500000 1.000000
vt 0.614036 1.000000
vt 0.901675 0.750000
vt 0.000000 0.750000
vt 0.000000 1.000000
vt 0.000000 0.250000
vt 0.000000 0.500000
vt 0.500000 0.500000
vt 0.500000 0.250000
vt 1.000000 0.500000
vt 0.901675 0.250000
vt 0.500000 0.000000
vt 0.614036 0.000000
vt 0.000000 0.000000
vt 0.500000 0.750000
vt 0.901675 0.750000
vt 0.614036 1.000000
vt 0.500000 1.000000
vt 0.000000 0.750000
vt 0.000000 1.000000
vt 0.000000 0.250000
vt 0.500000 0.250000
vt 0.500000 0.500000
vt 0.000000 0.500000
vt 0.901675 0.250000
vt 1.000000 0.500000
vt 0.500000 0.000000
vt 0.614036 0.000000
vt 0.000000 0.000000
vt 0.000000 1.000000
vt 0.333333 1.000000
vt 0.333333 0.750000
vt 0.000000 0.750000
vt 0.000000 0.250000
vt 0.333333 0.250000
vt 0.333333 0.000000
vt 0.000000 0.000000
vt 0.000000 0.500000
vt 0.333333 0.500000
vt 0.666667 1.000000
vt 0.666667 0.750000
vt 0.666667 0.250000
vt 0.666667 0.000000
vt 0.666667 0.500000
vt 1.000000 1.000000
vt 1.000000 0.750000
vt 1.000000 0.250000
vt 1.000000 0.000000
vt 1.000000 0.500000
vn -0.2282 -0.6158 -0.7541
vn -0.2718 -0.7951 -0.5422
vn 0.4108 -0.7951 -0.4462
vn 0.4274 -0.6158 -0.6619
vn 0.2282 0.6158 0.7541
vn 0.2718 0.7951 0.5422
vn -0.4108 0.7951 0.4462
vn -0.4274 0.6158 0.6619
vn 0.5945 0.4613 -0.6586
vn -0.3897 0.4613 -0.7971
vn -0.9903 -0.0000 -0.1393
vn -0.8248 -0.3487 0.4451
vn -0.4722 -0.4947 0.7296
vn 0.9903 0.0000 0.1393
vn 0.2526 -0.4947 0.8315
vn 0.6700 -0.3487 0.6553
vn 0.6390 -0.6928 0.3341
vn -0.7064 -0.6928 0.1449
vn -0.6389 0.6922 -0.3357
vn 0.7067 0.6922 -0.1464
vn 0.5827 -0.2247 0.7810
vn -0.7756 -0.2247 0.5899
vn -0.5832 0.2282 -0.7796
vn 0.7757 0.2282 -0.5884
vn 0.5995 -0.0131 0.8003
vn -0.7970 -0.0131 0.6039
vn -0.5995 0.0135 -0.8003
vn 0.7970 0.0135 -0.6038
vn -0.7150 -0.6158 0.3310
vn -0.4990 -0.7951 0.3446
vn -0.4990 -0.7951 -0.3446
vn -0.7150 -0.6158 -0.3310
vn 0.7150 0.6158 -0.3310
vn 0.4990 0.7951 -0.3446
vn 0.4990 0.7951 0.3446
vn 0.7150 0.6158 0.3310
vn -0.7350 0.4613 -0.4969
vn -0.7350 0.4613 0.4969
vn -0.0000 -0.0000 1.0000
vn 0.5556 -0.3487 0.7548
vn 0.7882 -0.4947 0.3660
vn -0.0000 -0.0000 -1.0000
vn 0.7882 -0.4947 -0.3660
vn 0.5556 -0.3487 -0.7548
vn 0.2419 -0.6928 -0.6793
vn 0.2419 -0.6928 0.6793
vn -0.2434 0.6922 0.6794
vn -0.2434 0.6922 -0.6794
vn 0.6922 -0.2247 -0.6858
vn 0.6922 -0.2247 0.6858
vn -0.6908 0.2282 0.6861
vn -0.6908 0.2282 -0.6861
vn 0.7090 -0.0131 -0.7051
vn 0.7090 -0.0131 0.7051
vn -0.7090 0.0135 0.7051
vn -0.7090 0.0135 -0.7051
vn -0.8381 -0.5175 -0.1724
vn -0.6887 -0.7247 0.0250
vn 0.0639 -0.7247 -0.6861
vn -0.1248 -0.5175 -0.8465
vn 0.8381 0.5175 0.1724
vn 0.6887 0.7247 -0.0250
vn -0.0639 0.7247 0.6861
vn 0.1248 0.5175 0.8465
vn -0.0345 0.4270 -0.9036
vn -0.9002 0.4270 -0.0855
vn -0.7268 0.0000 0.6869
vn -0.2792 -0.2963 0.9134
vn 0.1886 -0.4737 0.8602
vn 0.7268 -0.0000 -0.6869
vn 0.8482 -0.4737 0.2369
vn 0.9277 -0.2963 -0.2272
vn 0.7580 -0.5493 -0.3517
vn -0.3939 -0.5493 0.7370
vn -0.7588 0.5488 0.3508
vn 0.3930 0.5488 -0.7378
vn 0.9686 -0.2249 -0.1063
vn -0.1609 -0.2249 0.9610
vn -0.9679 0.2273 0.1072
vn 0.1617 0.2273 -0.9603
vn 0.9896 -0.0702 -0.1253
vn -0.1810 -0.0702 0.9810
vn -0.9896 0.0705 0.1253
vn 0.1810 0.0705 -0.9810
usemtl None
s off
f 11/1/1 6/2/1 4/3/1 10/4/1
f 12/5/2 3/6/2 6/2/2 11/1/2
f 13/7/2 7/8/2 9/9/2 15/10/2
f 15/10/1 9/9/1 8/11/1 14/12/1
f 7/8/3 12/5/3 11/1/3 9/9/3
f 9/9/4 11/1/4 10/4/4 8/11/4
f 5/13/4 15/10/4 14/12/4 2/14/4
f 1/15/3 13/7/3 15/10/3 5/13/3
f 24/16/5 20/17/5 21/18/5 22/19/5
f 25/20/6 24/16/6 22/19/6 23/21/6
f 16/22/6 29/23/6 30/24/6 26/25/6
f 29/23/5 27/26/5 28/27/5 30/24/5
f 26/25/7 30/24/7 24/16/7 25/20/7
f 30/24/8 28/27/8 20/17/8 24/16/8
f 18/28/8 19/29/8 27/26/8 29/23/8
f 17/30/7 18/28/7 29/23/7 16/22/7
f 7/8/9 13/7/9 16/22/9 26/25/9
f 13/7/10 1/15/10 17/30/10 16/22/10
f 12/5/10 7/8/10 26/25/10 25/20/10
f 3/6/9 12/5/9 25/20/9 23/21/9
f 1/15/11 5/13/11 18/28/11 17/30/11
f 2/14/12 14/12/12 27/26/12 19/29/12
f 5/13/11 2/14/11 19/29/11 18/28/11
f 14/12/13 8/11/13 28/27/13 27/26/13
f 4/3/14 6/2/14 22/19/14 21/18/14
f 8/11/15 10/4/15 20/17/15 28/27/15
f 10/4/16 4/3/16 21/18/16 20/17/16
f 6/2/14 3/6/14 23/21/14 22/19/14
f 31/31/17 35/32/17 38/33/17 34/34/17
f 32/35/18 36/36/18 35/37/18 31/38/18
f 33/39/19 37/40/19 36/36/19 32/35/19
f 34/34/20 38/33/20 37/40/20 33/39/20
f 35/32/21 39/41/21 42/42/21 38/33/21
f 36/36/22 40/43/22 39/44/22 35/37/22
f 37/40/23 41/45/23 40/43/23 36/36/23
f 38/33/24 42/42/24 41/45/24 37/40/24
f 39/41/25 43/46/25 46/47/25 42/42/25
f 40/43/26 44/48/26 43/49/26 39/44/26
f 41/45/27 45/50/27 44/48/27 40/43/27
f 42/42/28 46/47/28 45/50/28 41/45/28
f 57/51/29 52/52/29 50/53/29 56/54/29
f 58/55/30 49/56/30 52/52/30 57/51/30
f 59/57/30 53/58/30 55/59/30 61/60/30
f 61/60/29 55/59/29 54/61/29 60/62/29
f 53/58/31 58/55/31 57/51/31 55/59/31
f 55/59/32 57/51/32 56/54/32 54/61/32
f 51/63/32 61/60/32 60/62/32 48/64/32
f 47/65/31 59/57/31 61/60/31 51/63/31
f 70/66/33 66/67/33 67/68/33 68/69/33
f 71/70/34 70/66/34 68/69/34 69/71/34
f 62/72/34 75/73/34 76/74/34 72/75/34
f 75/73/33 73/76/33 74/77/33 76/74/33
f 72/75/35 76/74/35 70/66/35 71/70/35
f 76/74/36 74/77/36 66/67/36 70/66/36
f 64/78/36 65/79/36 73/76/36 75/73/36
f 63/80/35 64/78/35 75/73/35 62/72/35
f 53/58/37 59/57/37 62/72/37 72/75/37
f 59/57/38 47/65/38 63/80/38 62/72/38
f 58/55/38 53/58/38 72/75/38 71/70/38
f 49/56/37 58/55/37 71/70/37 69/71/37
f 47/65/39 51/63/39 64/78/39 63/80/39
f 48/64/40 60/62/40 73/76/40 65/79/40
f 51/63/39 48/64/39 65/79/39 64/78/39
f 60/62/41 54/61/41 74/77/41 73/76/41
f 50/53/42 52/52/42 68/69/42 67/68/42
f 54/61/43 56/54/43 66/67/43 74/77/43
f 56/54/44 50/53/44 67/68/44 66/67/44
f 52/52/42 49/56/42 69/71/42 68/69/42
f 77/81/45 81/82/45 84/83/45 80/84/45
f 78/85/46 82/86/46 81/87/46 77/88/46
f 79/89/47 83/90/47 82/86/47 78/85/47
f 80/84/48 84/83/48 83/90/48 79/89/48
f 81/82/49 85/91/49 88/92/49 84/83/49
f 82/86/50 86/93/50 85/94/50 81/87/50
f 83/90/51 87/95/51 86/93/51 82/86/51
f 84/83/52 88/92/52 87/95/52 83/90/52
f 85/91/53 89/96/53 92/97/53 88/92/53
f 86/93/54 90/98/54 89/99/54 85/94/54
f 87/95/55 91/100/55 90/98/55 86/93/55
f 88/92/56 92/97/56 91/100/56 87/95/56
f 103/101/57 98/102/57 96/103/57 102/104/57
f 104/105/58 95/106/58 98/102/58 103/101/58
f 105/107/58 99/108/58 101/109/58 107/110/58
f 107/110/57 101/109/57 100/111/57 106/112/57
f 99/108/59 104/105/59 103/101/59 101/109/59
f 101/109/60 103/101/60 102/104/60 100/111/60
f 97/113/60 107/110/60 106/112/60 94/114/60
f 93/115/59 105/107/59 107/110/59 97/113/59
f 116/116/61 112/117/61 113/118/61 114/119/61
f 117/120/62 116/116/62 114/119/62 115/121/62
f 108/122/62 121/123/62 122/124/62 118/125/62
f 121/123/61 119/126/61 120/127/61 122/124/61
f 118/125/63 122/124/63 116/116/63 117/120/63
f 122/124/64 120/127/64 112/117/64 116/116/64
f 110/128/64 111/129/64 119/126/64 121/123/64
f 109/130/63 110/128/63 121/123/63 108/122/63
f 99/108/65 105/107/65 108/122/65 118/125/65
f 105/107/66 93/115/66 109/130/66 108/122/66
f 104/105/66 99/108/66 118/125/66 117/120/66
f 95/106/65 104/105/65 117/120/65 115/121/65
f 93/115/67 97/113/67 110/128/67 109/130/67
f 94/114/68 106/112/68 119/126/68 111/129/68
f 97/113/67 94/114/67 111/129/67 110/128/67
f 106/112/69 100/111/69 120/127/69 119/126/69
f 96/103/70 98/102/70 114/119/70 113/118/70
f 100/111/71 102/104/71 112/117/71 120/127/71
f 102/104/72 96/103/72 113/118/72 112/117/72
f 98/102/70 95/106/70 115/121/70 114/119/70
f 123/131/73 127/132/73 130/133/73 126/134/73
f 124/135/74 128/136/74 127/137/74 123/138/74
f 125/139/75 129/140/75 128/136/75 124/135/75
f 126/134/76 130/133/76 129/140/76 125/139/76
f 127/132/77 131/141/77 134/142/77 130/133/77
f 128/136/78 132/143/78 131/144/78 127/137/78
f 129/140/79 133/145/79 132/143/79 128/136/79
f 130/133/80 134/142/80 133/145/80 129/140/80
f 131/141/81 135/146/81 138/147/81 134/142/81
f 132/143/82 136/148/82 135/149/82 131/144/82
f 133/145/83 137/150/83 136/148/83 132/143/83
f 134/142/84 138/147/84 137/150/84 133/145/84
o Plane.003_Plane.005
v 2.040746 3.025215 -1.975448
v 3.043507 2.312764 -1.975448
v 2.040746 3.025215 -3.975447
v 3.043506 2.312764 -3.975448
v 2.887744 2.493619 -1.975448
v 2.887744 2.493619 -3.975448
v 2.040746 3.025215 -2.975447
v 3.570696 1.700647 -2.975448
v 2.887744 2.493619 -2.975448
v 3.533979 2.012070 -3.475448
v 2.985329 2.649103 -3.475448
v 1.895825 3.332902 -3.475447
v 1.895825 3.332902 -2.475447
v 3.533979 2.012070 -2.475448
v 2.985329 2.649103 -2.475448
v 1.954001 3.425594 -2.475447
v 2.098922 3.117907 -1.975448
v 2.945920 2.586311 -1.975448
v 3.101682 2.405456 -1.975448
v 3.592155 2.104762 -3.475448
v 3.101682 2.405456 -3.975448
v 2.945920 2.586311 -3.975448
v 2.098921 3.117907 -3.975447
v 3.043505 2.741795 -3.475448
v 1.954001 3.425594 -3.475447
v 2.098921 3.117907 -2.975447
v 3.592155 2.104762 -2.475448
v 3.628872 1.793339 -2.975448
v 3.043505 2.741795 -2.475448
v 2.945920 2.586311 -2.975448
v 2.101270 2.999124 -2.975447
v 2.098880 3.066082 -2.908448
v 2.096490 3.133039 -2.975448
v 2.098880 3.066081 -3.042448
v 0.541484 2.456698 -2.975447
v 0.493624 2.503586 -2.908448
v 0.445764 2.550473 -2.975448
v 0.493624 2.503585 -3.042448
v 0.189241 1.361370 -2.975447
v 0.123180 1.372550 -2.908448
v 0.057120 1.383730 -2.975448
v 0.123181 1.372550 -3.042448
v 0.165484 0.057681 -2.975447
v 0.098484 0.057681 -2.908448
v 0.031484 0.057681 -2.975448
v 0.098484 0.057681 -3.042448
vt 0.500000 0.750000
vt 0.500000 1.000000
vt 0.614036 1.000000
vt 0.901675 0.750000
vt 0.000000 0.750000
vt 0.000000 1.000000
vt 0.000000 0.250000
vt 0.000000 0.500000
vt 0.500000 0.500000
vt 0.500000 0.250000
vt 1.000000 0.500000
vt 0.901675 0.250000
vt 0.500000 0.000000
vt 0.614036 0.000000
vt 0.000000 0.000000
vt 0.500000 0.750000
vt 0.901675 0.750000
vt 0.614036 1.000000
vt 0.500000 1.000000
vt 0.000000 0.750000
vt 0.000000 1.000000
vt 0.000000 0.250000
vt 0.500000 0.250000
vt 0.500000 0.500000
vt 0.000000 0.500000
vt 0.901675 0.250000
vt 1.000000 0.500000
vt 0.500000 0.000000
vt 0.614036 0.000000
vt 0.000000 0.000000
vt 0.000000 1.000000
vt 0.333333 1.000000
vt 0.333333 0.750000
vt 0.000000 0.750000
vt 0.000000 0.250000
vt 0.333333 0.250000
vt 0.333333 0.000000
vt 0.000000 0.000000
vt 0.000000 0.500000
vt 0.333333 0.500000
vt 0.666667 1.000000
vt 0.666667 0.750000
vt 0.666667 0.250000
vt 0.666667 0.000000
vt 0.666667 0.500000
vt 1.000000 1.000000
vt 1.000000 0.750000
vt 1.000000 0.250000
vt 1.000000 0.000000
vt 1.000000 0.500000
vn -0.7150 -0.6158 0.3310
vn -0.4990 -0.7951 0.3446
vn -0.4990 -0.7951 -0.3446
vn -0.7150 -0.6158 -0.3310
vn 0.7150 0.6158 -0.3310
vn 0.4990 0.7951 -0.3446
vn 0.4990 0.7951 0.3446
vn 0.7150 0.6158 0.3310
vn -0.7350 0.4613 -0.4969
vn -0.7350 0.4613 0.4969
vn 0.0000 -0.0000 1.0000
vn 0.5556 -0.3487 0.7548
vn 0.7882 -0.4947 0.3660
vn 0.0000 0.0000 -1.0000
vn 0.7882 -0.4947 -0.3660
vn 0.5556 -0.3487 -0.7548
vn 0.2419 -0.6928 -0.6793
vn 0.2419 -0.6928 0.6793
vn -0.2434 0.6922 0.6794
vn -0.2434 0.6922 -0.6794
vn 0.6922 -0.2247 -0.6858
vn 0.6922 -0.2247 0.6858
vn -0.6908 0.2282 0.6861
vn -0.6908 0.2282 -0.6861
vn 0.7090 -0.0131 -0.7051
vn 0.7090 -0.0131 0.7051
vn -0.7090 0.0135 0.7051
vn -0.7090 0.0135 -0.7051
usemtl None
s off
f 149/151/85 144/152/85 142/153/85 148/154/85
f 150/155/86 141/156/86 144/152/86 149/151/86
f 151/157/86 145/158/86 147/159/86 153/160/86
f 153/160/85 147/159/85 146/161/85 152/162/85
f 145/158/87 150/155/87 149/151/87 147/159/87
f 147/159/88 149/151/88 148/154/88 146/161/88
f 143/163/88 153/160/88 152/162/88 140/164/88
f 139/165/87 151/157/87 153/160/87 143/163/87
f 162/166/89 158/167/89 159/168/89 160/169/89
f 163/170/90 162/166/90 160/169/90 161/171/90
f 154/172/90 167/173/90 168/174/90 164/175/90
f 167/173/89 165/176/89 166/177/89 168/174/89
f 164/175/91 168/174/91 162/166/91 163/170/91
f 168/174/92 166/177/92 158/167/92 162/166/92
f 156/178/92 157/179/92 165/176/92 167/173/92
f 155/180/91 156/178/91 167/173/91 154/172/91
f 145/158/93 151/157/93 154/172/93 164/175/93
f 151/157/94 139/165/94 155/180/94 154/172/94
f 150/155/94 145/158/94 164/175/94 163/170/94
f 141/156/93 150/155/93 163/170/93 161/171/93
f 139/165/95 143/163/95 156/178/95 155/180/95
f 140/164/96 152/162/96 165/176/96 157/179/96
f 143/163/95 140/164/95 157/179/95 156/178/95
f 152/162/97 146/161/97 166/177/97 165/176/97
f 142/153/98 144/152/98 160/169/98 159/168/98
f 146/161/99 148/154/99 158/167/99 166/177/99
f 148/154/100 142/153/100 159/168/100 158/167/100
f 144/152/98 141/156/98 161/171/98 160/169/98
f 169/181/101 173/182/101 176/183/101 172/184/101
f 170/185/102 174/186/102 173/187/102 169/188/102
f 171/189/103 175/190/103 174/186/103 170/185/103
f 172/184/104 176/183/104 175/190/104 171/189/104
f 173/182/105 177/191/105 180/192/105 176/183/105
f 174/186/106 178/193/106 177/194/106 173/187/106
f 175/190/107 179/195/107 178/193/107 174/186/107
f 176/183/108 180/192/108 179/195/108 175/190/108
f 177/191/109 181/196/109 184/197/109 180/192/109
f 178/193/110 182/198/110 181/199/110 177/194/110
f 179/195/111 183/200/111 182/198/111 178/193/111
f 180/192/112 184/197/112 183/200/112 179/195/112
