# Blender v2.83.4 OBJ File: ''
# www.blender.org
mtllib rock_2.mtl
o Mball.002_Mesh.004
v 3.189670 -0.590368 2.787169
v 2.991577 -0.974902 2.651302
v 3.463063 -0.643561 2.132688
v 2.506623 -0.995608 3.629426
v 2.477839 -1.194314 2.776402
v 2.378857 -1.444918 1.941651
v 2.845555 -1.362374 1.977769
v 3.314412 -1.069782 1.806542
v 2.844182 -1.393339 1.554909
v 2.784684 0.621004 1.143262
v 3.124976 0.617615 1.564126
v 3.236481 0.243885 1.066401
v 3.361053 -0.205575 1.025976
v 3.378563 -0.784783 1.218637
v 3.030958 -0.608966 0.761949
v 2.866800 -1.144860 1.032627
v 3.540824 -0.597052 1.580746
v 2.452764 -1.054640 0.823817
v 3.604585 -0.233894 1.750822
v 2.872422 -0.210924 0.661128
v 2.578466 0.207798 0.688976
v 3.473067 0.178825 1.848485
v 3.060063 0.560758 2.566361
v 2.642411 0.871531 2.461584
v 3.218866 0.153594 2.968630
v 0.786458 0.276480 0.640756
v 1.391754 0.716618 0.861701
v 2.249995 -0.647008 0.619047
v 1.295409 -1.033309 1.066523
v 0.772325 -0.629447 0.808744
v 0.584166 -1.015603 1.403805
v 0.263971 -0.641051 1.161612
v 0.553263 -1.273072 2.394252
v -0.065266 -1.086923 2.663020
v -0.121181 0.736323 4.004919
v -0.301691 -0.029620 4.086377
v 0.032206 -0.042929 4.300436
v -0.639470 -0.431236 3.303954
v -0.157278 -1.069010 3.294577
v -0.486110 -0.484557 3.720776
v 0.514036 -1.350524 3.075955
v -0.495416 -0.605725 2.669715
v -0.681695 0.233150 2.762747
v -0.641830 -0.187394 2.703610
v 0.141642 -0.215385 1.035042
v -0.296862 0.665190 2.073979
v 0.055440 1.080164 1.839583
v 0.237036 0.568528 1.128238
v 0.782341 1.548947 1.795104
v 0.244838 1.596799 2.223116
v 0.705321 2.000556 2.503814
v 1.074202 1.120965 1.259598
v 0.642233 0.742637 0.937075
v 0.723822 -0.175633 0.654484
v 2.206257 -0.256588 0.555000
v 0.315641 1.856343 2.725616
v 2.388813 1.216526 3.218323
v 1.553382 1.871031 2.986049
v 2.426606 1.038528 3.718528
v 2.962584 0.658165 3.514266
v 3.086077 0.011519 3.796905
v 2.800593 -0.000001 4.161383
v 2.851422 -0.642765 3.828045
v 3.275152 -0.195340 2.846439
v 0.739172 1.425297 3.906724
v 0.814266 1.870369 3.454484
v 0.079761 1.398540 3.625699
v 0.337356 0.818972 4.212244
v 0.690012 -0.036825 4.446228
v 2.296015 0.190432 4.404662
v 2.336567 0.524718 4.277509
v 1.405649 1.183147 4.036243
v 0.836912 0.773107 4.303191
v 2.292485 -0.561025 4.277793
v 0.413604 -0.658150 4.243635
v 1.501862 -0.927348 4.027016
v 0.509849 1.933354 3.082086
v -0.325551 1.181013 3.143137
v -0.448014 0.634176 3.716814
v -0.511481 0.812450 2.748423
v -0.181368 1.288838 2.515055
v 1.942026 -1.387760 1.569150
v 2.357735 -1.363783 1.224489
v -0.651133 0.403603 3.351106
v -0.143966 -0.604116 4.001020
v 2.232670 -1.042405 3.778296
v 0.766798 -1.314038 3.453481
v 1.531664 -1.284946 2.285088
v 2.332378 -0.194113 4.395895
v 1.957718 1.095908 1.765148
v 1.650243 1.017694 1.346973
v 1.212729 1.742177 2.038075
v 2.730641 0.581930 3.994666
v 2.120853 1.039921 3.929921
v 1.495639 1.889009 2.545507
v 0.320030 -1.021257 3.910900
v 0.141858 0.162767 1.038027
v 1.222842 1.938554 3.253112
vn 0.7693 -0.5250 0.3640
vn 0.4246 -0.8848 0.1918
vn 0.1476 -0.9520 0.2683
vn 0.5440 -0.8369 0.0595
vn 0.5355 0.7286 -0.4271
vn 0.7445 -0.1904 -0.6399
vn 0.5846 -0.5013 -0.6379
vn 0.8658 -0.4809 -0.1386
vn 0.2999 -0.5017 -0.8114
vn 0.9037 0.0409 -0.4262
vn 0.9441 -0.0780 -0.3202
vn 0.5805 0.2311 -0.7808
vn 0.4473 0.3682 -0.8151
vn 0.9055 0.3465 -0.2451
vn 0.5813 0.8094 0.0836
vn 0.8297 0.5212 0.2000
vn 0.0401 0.4037 -0.9140
vn 0.1847 -0.3662 -0.9120
vn -0.1637 -0.6727 -0.7216
vn -0.3897 -0.7114 -0.5849
vn -0.3752 -0.8942 -0.2442
vn -0.5216 0.2108 0.8267
vn -0.7783 -0.5915 0.2107
vn -0.3952 -0.9180 -0.0315
vn -0.7432 -0.6631 -0.0895
vn -0.7977 -0.6029 -0.0153
vn -0.9954 -0.0898 -0.0326
vn -0.8727 -0.2726 -0.4052
vn -0.7832 0.3925 -0.4822
vn -0.3532 0.7711 -0.5298
vn -0.1454 0.7327 -0.6648
vn -0.0681 -0.0209 -0.9975
vn -0.4918 0.7999 -0.3439
vn 0.5561 0.7954 0.2410
vn 0.6191 0.7535 0.2214
vn 0.6140 0.7754 -0.1477
vn 0.7667 -0.2468 0.5927
vn 0.9800 0.0972 0.1738
vn -0.3024 0.7040 0.6426
vn -0.3362 0.5919 0.7325
vn -0.4252 0.5435 0.7238
vn -0.0265 0.3582 0.9333
vn 0.0901 0.4525 0.8872
vn 0.0157 -0.5876 0.8090
vn -0.0013 -0.3095 0.9509
vn -0.0011 -0.3088 0.9511
vn -0.0005 -0.3072 0.9516
vn -0.6548 0.7291 0.1992
vn -0.6424 0.7379 0.2070
vn -0.7423 0.5570 0.3724
vn -0.8403 0.5326 -0.1015
vn -0.8406 0.4078 -0.3565
vn -0.7957 0.4410 -0.4152
vn -0.7409 0.6693 -0.0552
vn -0.0079 -0.9937 -0.1122
vn -0.3522 0.9359 -0.0103
vn -0.8357 -0.3628 -0.4123
vn -0.8778 0.4262 0.2188
vn -0.6650 -0.2851 0.6903
vn 0.0428 -0.8529 0.5203
vn -0.7036 -0.6242 -0.3397
vn -0.5908 -0.7288 -0.3460
vn -0.2017 -0.9037 -0.3778
vn -0.0611 -0.9540 0.2936
vn 0.6017 -0.7471 0.2825
vn 0.8249 -0.5106 0.2424
vn 0.9148 -0.3924 0.0958
vn 0.9553 -0.0603 0.2894
vn 0.8860 -0.2503 0.3904
vn 0.9673 -0.2248 0.1173
vn 0.9335 0.2330 0.2725
vn 0.7659 -0.5373 0.3531
vn 0.0287 -0.0201 0.9994
vn 0.1401 -0.9733 0.1818
vn 0.9133 0.2798 -0.2959
vn 0.6409 -0.7159 -0.2771
vn 0.3689 0.9273 -0.0640
vn 0.1896 0.6820 -0.7064
vn 0.1440 0.1660 -0.9755
vn 0.2284 0.7681 -0.5982
vn 0.4693 0.7426 -0.4778
vn 0.4668 0.7416 -0.4819
vn 0.4674 0.7418 -0.4809
vn -0.1454 -0.7664 -0.6258
vn 0.9436 0.2663 0.1969
vn 0.9149 -0.3162 0.2508
vn 0.6267 0.6640 0.4079
vn 0.7555 0.2627 0.6001
vn 0.2346 0.6093 0.7575
vn 0.6979 0.7162 -0.0018
vn 0.2252 -0.8836 -0.4106
vn 0.4698 0.7429 -0.4769
vn -0.3355 -0.9337 -0.1254
vn 0.1684 -0.9831 0.0714
vn 0.7527 0.6527 0.0858
vn 0.5820 -0.7530 0.3070
vn 0.3753 0.5945 -0.7111
vn 0.1223 -0.7996 -0.5879
vn -0.0499 0.6803 -0.7312
vn -0.5368 0.6140 -0.5787
vn 0.9259 -0.2437 0.2886
vn 0.1183 -0.7220 0.6817
vn -0.1096 0.5043 0.8566
vn 0.0889 -0.9955 0.0334
vn 0.0822 -0.9962 0.0291
vn 0.0913 -0.9952 0.0350
vn -0.6515 0.5161 0.5561
vn 0.2286 0.7407 -0.6317
vn -0.1274 -0.1744 -0.9764
vn -0.6763 0.6890 -0.2606
vn 0.8191 0.3538 0.4516
vn 0.0239 0.5219 0.8527
vn 0.0444 0.1659 0.9851
vn -0.0192 -0.6728 0.7396
vn -0.7029 0.5718 -0.4231
vn -0.9151 0.3989 0.0586
vn 0.2741 -0.9386 0.2094
vn 0.4398 -0.8164 0.3743
vn 0.2091 0.8480 -0.4870
vn -0.1676 -0.9848 0.0454
vn -0.2321 -0.9101 -0.3432
vn 0.6201 -0.7185 -0.3150
vn 0.5977 0.0352 -0.8010
vn 0.8273 0.5223 -0.2068
vn 0.1763 -0.1579 -0.9716
vn 0.3280 0.9088 -0.2579
vn -0.9103 0.0032 0.4140
vn -0.1166 -0.4915 -0.8630
vn -0.2958 -0.7559 -0.5841
vn -0.0248 -0.9931 -0.1143
vn 0.0041 -0.9895 0.1445
vn 0.0808 -0.9963 0.0281
vn 0.0126 -0.8365 0.5478
vn -0.3731 -0.5727 0.7299
vn -0.5279 -0.2648 0.8070
vn -0.9038 -0.0116 -0.4277
vn -0.5285 0.3190 -0.7867
vn -0.8169 0.3010 -0.4919
vn 0.0013 0.7815 -0.6239
vn -0.5379 0.0298 -0.8425
vn -0.5114 -0.3500 -0.7849
vn 0.2261 0.7269 0.6484
vn -0.0811 -0.3285 -0.9410
vn 0.4199 0.7914 0.4444
vn 0.4097 0.6378 0.6522
vn 0.6538 0.7469 -0.1214
vn 0.5157 0.2766 0.8109
vn 0.5473 -0.3367 0.7662
vn 0.4407 0.0212 0.8974
vn 0.4005 -0.6945 0.5978
vn -0.1908 0.1849 0.9640
vn 0.1164 0.6982 0.7064
vn -0.0408 0.9893 0.1402
vn -0.2093 -0.2177 0.9533
vn -0.0002 -0.3064 0.9519
vn -0.4008 0.7914 0.4615
vn -0.5645 -0.6846 0.4611
vn 0.1490 0.9246 -0.3506
vn -0.9982 -0.0172 0.0568
vn -0.9080 0.0324 0.4177
vn -0.2917 -0.9110 0.2915
vn 0.1560 0.9877 -0.0090
vn 0.9718 0.0789 0.2223
vn 0.0356 0.2505 -0.9674
vn -0.2272 -0.9408 -0.2516
vn 0.9119 0.4070 0.0520
vn 0.6030 0.7097 -0.3642
vn -0.9033 0.2569 -0.3435
vn 0.6245 0.7794 -0.0501
vn -0.4645 0.6648 -0.5851
vn -0.0704 0.8378 -0.5415
vn -0.4357 0.2429 0.8667
vn -0.4034 -0.3289 0.8539
vn -0.6830 0.2345 0.6917
vn -0.0676 0.5203 -0.8513
vn -0.8953 0.1089 -0.4319
vn -0.9592 0.2810 -0.0316
vn -0.9395 -0.3186 -0.1257
usemtl None
s 1
f 1//1 2//1 3//1
f 4//2 5//2 2//2
f 6//3 7//3 5//3
f 8//4 7//4 9//4
f 10//5 11//5 12//5
f 13//6 14//6 15//6
f 14//7 16//7 15//7
f 8//8 14//8 17//8
f 16//9 18//9 15//9
f 17//10 14//10 19//10
f 13//11 19//11 14//11
f 13//12 20//12 12//12
f 21//13 12//13 20//13
f 12//14 22//14 19//14
f 23//15 11//15 24//15
f 25//16 22//16 23//16
f 26//17 27//17 21//17
f 28//18 15//18 18//18
f 29//19 30//19 18//19
f 31//20 32//20 30//20
f 31//21 33//21 34//21
f 35//22 36//22 37//22
f 38//23 39//23 40//23
f 41//24 39//24 34//24
f 39//25 42//25 34//25
f 38//26 42//26 39//26
f 43//27 44//27 38//27
f 44//28 45//28 42//28
f 46//29 47//29 48//29
f 49//30 50//30 51//30
f 52//31 53//31 49//31
f 54//32 26//32 55//32
f 51//33 50//33 56//33
f 57//34 58//34 59//34
f 59//35 60//35 57//35
f 57//36 23//36 24//36
f 61//37 62//37 63//37
f 25//38 61//38 64//38
f 65//39 66//39 67//39
f 65//40 67//40 68//40
f 35//41 68//41 67//41
f 69//42 70//42 71//42
f 72//43 73//43 71//43
f 74//44 75//44 76//44
f 75//45 74//46 69//47
f 67//48 77//48 56//48
f 78//49 67//49 56//49
f 79//50 67//50 78//50
f 80//51 78//51 81//51
f 80//52 81//52 46//52
f 81//53 47//53 46//53
f 81//54 78//54 56//54
f 82//55 83//55 9//55 6//55
f 77//56 51//56 56//56
f 42//57 45//57 32//57
f 79//58 78//58 84//58
f 36//59 40//59 85//59
f 86//60 76//60 87//60
f 42//61 32//61 34//61
f 31//62 34//62 32//62
f 82//63 31//63 29//63
f 6//64 5//64 88//64
f 63//65 4//65 2//65
f 1//66 63//66 2//66
f 17//67 3//67 8//67
f 19//68 64//68 3//68
f 1//69 3//69 64//69
f 3//70 17//70 19//70
f 64//71 19//71 22//71
f 2//72 8//72 3//72
f 89//73 70//73 69//73
f 5//74 86//74 87//74
f 19//75 13//75 12//75
f 8//76 9//76 14//76
f 24//77 11//77 90//77
f 27//78 10//78 21//78
f 55//79 21//79 20//79
f 91//80 27//80 52//80
f 90//81 91//82 92//83
f 18//84 83//84 29//84
f 60//85 61//85 25//85
f 61//86 63//86 64//86
f 93//87 60//87 59//87
f 62//88 61//88 93//88
f 71//89 94//89 72//89
f 23//90 57//90 60//90
f 16//91 9//91 83//91
f 90//81 92//83 95//92
f 33//93 41//93 34//93
f 7//94 6//94 9//94
f 22//95 11//95 23//95
f 2//96 7//96 8//96
f 12//97 21//97 10//97
f 16//98 83//98 18//98
f 52//99 27//99 53//99
f 47//100 53//100 48//100
f 1//101 64//101 63//101
f 86//102 74//102 76//102
f 73//103 65//103 68//103
f 88//104 87//105 41//106
f 35//107 67//107 79//107
f 92//108 91//108 52//108
f 55//109 28//109 30//109
f 81//110 56//110 50//110
f 60//111 93//111 61//111
f 65//112 73//112 72//112
f 73//113 69//113 71//113
f 76//114 75//114 96//114
f 81//115 50//115 47//115
f 78//116 80//116 84//116
f 5//117 4//117 86//117
f 7//118 2//118 5//118
f 91//119 90//119 10//119 27//119
f 6//120 88//120 82//120
f 83//121 82//121 29//121
f 16//122 14//122 9//122
f 15//123 20//123 13//123
f 11//124 22//124 12//124
f 15//125 28//125 55//125 20//125
f 11//126 10//126 90//126
f 84//127 38//127 40//127 79//127
f 30//128 28//128 18//128
f 29//129 31//129 30//129
f 88//130 41//130 33//130
f 82//131 88//131 33//131
f 88//104 5//132 87//105
f 87//133 76//133 96//133
f 96//134 75//134 85//134
f 85//135 37//135 36//135
f 45//136 44//136 43//136 97//136
f 26//137 97//137 48//137 53//137
f 46//138 48//138 97//138
f 49//139 92//139 52//139
f 45//140 97//140 26//140 54//140
f 30//141 32//141 45//141 54//141
f 98//142 66//142 72//142 94//142
f 54//143 55//143 30//143
f 58//144 98//144 94//144 59//144
f 59//145 94//145 71//145 93//145
f 95//146 57//146 24//146
f 71//147 70//147 62//147 93//147
f 74//148 63//148 62//148 89//148
f 62//149 70//149 89//149
f 74//150 86//150 4//150 63//150
f 68//151 37//151 69//151 73//151
f 72//152 66//152 65//152
f 77//153 66//153 98//153 51//153
f 69//154 37//154 75//154
f 74//46 89//155 69//47
f 66//156 77//156 67//156
f 40//157 39//157 96//157 85//157
f 95//158 92//158 51//158
f 84//159 43//159 38//159
f 36//160 79//160 40//160
f 39//161 41//161 87//161 96//161
f 95//162 51//162 98//162 58//162
f 25//163 64//163 22//163
f 26//164 21//164 55//164
f 31//165 82//165 33//165
f 25//166 23//166 60//166
f 95//167 24//167 90//167
f 80//168 46//168 43//168
f 58//169 57//169 95//169
f 47//170 50//170 49//170 53//170
f 51//171 92//171 49//171
f 68//172 35//172 37//172
f 37//173 85//173 75//173
f 36//174 35//174 79//174
f 53//175 27//175 26//175
f 46//176 97//176 43//176
f 43//177 84//177 80//177
f 38//178 44//178 42//178
