# Blender v2.83.4 OBJ File: 'campfire.blend'
# www.blender.org
mtllib rock_3.mtl
o Rock_1_Mesh.002
v -2.047312 0.178825 0.444432
v -2.057186 -0.233894 0.280915
v -1.814810 -0.643561 0.608183
v -1.638323 -0.974902 1.286498
v -1.416260 -0.590368 1.194909
v -1.319898 -0.195340 1.155735
v -1.084439 -0.995607 2.227307
v -1.814435 -1.194313 1.785057
v -1.109557 -1.042404 2.538082
v -2.282121 -1.362374 1.040544
v -2.567509 -1.444918 1.411577
v -2.636944 -1.393339 0.810515
v -2.169169 -1.069782 0.554347
v -3.118230 -1.387760 1.573700
v -3.179555 -1.363783 1.037188
v -3.892601 -1.033309 1.840343
v -3.463095 -1.054640 0.738570
v -3.745410 -0.647008 0.796406
v -3.822949 -0.256588 0.798014
v -3.507280 0.207798 0.559598
v -4.011431 0.716618 1.647693
v -3.014154 0.621004 0.635286
v -2.475714 0.617615 0.580438
v -2.831513 0.243885 0.214964
v -2.797259 -0.205575 0.088556
v -3.198799 -0.608966 0.220609
v -2.626366 -0.784783 0.179223
v -3.061899 -1.144860 0.506043
v -2.234453 -0.597052 0.241323
v -3.369892 -0.210924 0.298236
v -1.988069 0.871531 1.475145
v -1.672005 0.560758 1.182716
v -1.248357 0.153594 1.269667
v -3.463784 1.017694 1.696553
v -2.945537 1.095908 1.667713
v -4.394418 -0.629447 2.137406
v -3.999024 -1.015603 2.620278
v -4.376871 -0.641051 2.755978
v -3.299696 -1.086923 3.852481
v -3.186591 -1.273071 3.187634
v -2.637228 -1.350523 3.593169
v -2.743102 -1.284946 2.308712
v -2.182930 -1.314037 3.587919
v -2.044170 -1.021256 4.212081
v -1.714405 -0.658149 4.315638
v -2.222378 -0.604115 4.649867
v -2.237135 -0.029619 4.828600
v -1.875355 -0.042928 4.666045
v -2.206657 0.736324 4.632919
v -2.626575 0.634177 4.749078
v -3.043838 0.403604 4.719221
v -3.076944 -0.431235 4.683678
v -2.644085 -0.484556 4.783143
v -2.821180 -1.069009 4.274799
v -3.529254 -0.605725 4.216318
v -3.580918 -0.187394 4.357445
v -3.553195 0.233150 4.423154
v -3.923192 1.080164 3.301235
v -3.498504 1.596799 3.352326
v -3.011721 2.000557 3.120210
v -3.563036 1.548947 2.668265
v -3.851869 1.120965 2.131119
v -4.358085 0.742637 2.316494
v -4.419540 0.568528 2.760286
v -4.547111 0.162767 2.790663
v -4.527351 0.276480 2.033733
v -4.549728 -0.215385 2.789211
v -4.550100 -0.175633 2.093684
v -3.487064 1.288838 3.868804
v -3.039039 1.856343 3.567759
v -3.124296 1.742177 2.440722
v -2.144296 1.871032 2.673744
v -2.101384 1.938555 3.096519
v -2.156139 1.870370 3.548721
v -1.043729 1.039922 2.714603
v -1.345706 1.183148 3.371590
v -1.053577 1.038529 2.343019
v -1.493074 1.216527 2.101201
v -0.931591 0.658166 1.782560
v -2.544741 1.889010 2.481249
v -0.656142 0.581931 2.239408
v -0.634752 0.524719 2.724007
v -0.478304 -0.000000 2.271980
v -0.550453 0.190433 2.827478
v -0.537915 -0.194112 2.792237
v -0.658614 -0.561024 2.761074
v -0.729628 -0.642764 2.047183
v -0.627416 0.011520 1.833675
v -1.300833 -0.927347 3.285983
v -1.818520 1.425298 3.858840
v -2.414332 1.398541 4.257345
v -1.782375 0.818973 4.362320
v -1.393655 -0.036824 4.194951
v -1.433114 0.773108 3.993749
v -3.039980 1.181014 4.332905
v -3.472133 0.812450 4.272799
v -3.919530 0.665190 3.724372
v -2.634383 1.933355 3.600026
vn 0.7254 -0.5250 -0.4452
vn 0.3927 -0.8848 -0.2507
vn 0.3053 -0.9520 0.0231
vn 0.3473 -0.8369 -0.4230
vn -0.0649 0.7286 -0.6819
vn -0.1288 -0.1904 -0.9732
vn -0.2146 -0.5013 -0.8382
vn 0.3572 -0.4809 -0.8007
vn -0.5155 -0.5017 -0.6947
vn 0.1372 0.0409 -0.9897
vn 0.2480 -0.0780 -0.9656
vn -0.3364 0.2311 -0.9129
vn -0.4379 0.3682 -0.8201
vn 0.2898 0.3465 -0.8921
vn 0.3878 0.8094 -0.4411
vn 0.6211 0.5212 -0.5853
vn -0.7434 0.4037 -0.5332
vn -0.6627 -0.3662 -0.6533
vn -0.6937 -0.6727 -0.2574
vn -0.7028 -0.7114 0.0066
vn -0.4096 -0.8942 0.1807
vn 0.4071 0.2108 0.8887
vn -0.2491 -0.5915 0.7669
vn -0.2425 -0.9180 0.3137
vn -0.4812 -0.6631 0.5734
vn -0.4489 -0.6029 0.6596
vn -0.5715 -0.0898 0.8157
vn -0.8163 -0.2726 0.5092
vn -0.8320 0.3925 0.3921
vn -0.6367 0.7711 0.0061
vn -0.6361 0.7327 -0.2417
vn -0.8724 -0.0209 -0.4883
vn -0.5568 0.7999 0.2238
vn 0.5058 0.7954 -0.3339
vn 0.5238 0.7535 -0.3974
vn 0.2120 0.7754 -0.5949
vn 0.9154 -0.2468 -0.3179
vn 0.6813 0.0972 -0.7255
vn 0.3727 0.7040 0.6045
vn 0.4296 0.5919 0.6820
vn 0.3736 0.5435 0.7517
vn 0.7669 0.3582 0.5324
vn 0.7921 0.4525 0.4095
vn 0.6859 -0.5876 0.4292
vn 0.7955 -0.3095 0.5209
vn -0.1912 0.7291 0.6572
vn -0.1779 0.7379 0.6511
vn -0.0940 0.5570 0.8252
vn -0.5443 0.5326 0.6481
vn -0.7581 0.4078 0.5089
vn -0.7827 0.4410 0.4393
vn -0.4513 0.6693 0.5902
vn -0.0983 -0.9937 -0.0547
vn -0.2012 0.9359 0.2893
vn -0.8021 -0.3628 0.4743
vn -0.2966 0.4262 0.8546
vn 0.2144 -0.2851 0.9342
vn 0.4590 -0.8529 0.2486
vn -0.6690 -0.6242 0.4034
vn -0.6127 -0.7288 0.3056
vn -0.4266 -0.9037 -0.0377
vn 0.2125 -0.9540 0.2117
vn 0.5655 -0.7471 -0.3494
vn 0.6539 -0.5106 -0.5582
vn 0.5804 -0.3924 -0.7136
vn 0.7646 -0.0603 -0.6417
vn 0.8113 -0.2503 -0.5284
vn 0.6271 -0.2248 -0.7458
vn 0.7385 0.2330 -0.6327
vn 0.7144 -0.5373 -0.4483
vn 0.8525 -0.0201 0.5223
vn 0.2288 -0.9733 -0.0179
vn 0.2515 0.2798 -0.9265
vn 0.1183 -0.7159 -0.6881
vn 0.1481 0.9273 -0.3439
vn -0.4878 0.6820 -0.5449
vn -0.7381 0.1660 -0.6539
vn -0.3760 0.7681 -0.5183
vn -0.1483 0.7416 -0.6543
vn -0.6034 -0.7664 -0.2204
vn 0.6808 0.2663 -0.6824
vn 0.7102 -0.3162 -0.6290
vn 0.6842 0.6640 -0.3017
vn 0.9155 0.2627 -0.3046
vn 0.7625 0.6093 0.2177
vn 0.3800 0.7162 -0.5854
vn -0.2207 -0.8836 -0.4131
vn -0.1425 0.7429 -0.6541
vn -0.2884 -0.9337 0.2124
vn 0.1519 -0.9831 -0.1019
vn 0.4833 0.6527 -0.5834
vn 0.5753 -0.7530 -0.3195
vn -0.3903 0.5945 -0.7030
vn -0.4255 -0.7996 -0.4238
vn -0.6395 0.6803 -0.3580
vn -0.7780 0.6140 0.1331
vn 0.7479 -0.2437 -0.6175
vn 0.6355 -0.7220 0.2736
vn 0.6573 0.5043 0.5601
vn 0.0793 -0.9952 -0.0573
vn 0.1094 0.5161 0.8495
vn -0.4040 0.7407 -0.5368
vn -0.8872 -0.1744 -0.4271
vn -0.5879 0.6890 0.4238
vn 0.8259 0.3538 -0.4389
vn 0.7270 0.5219 0.4461
vn 0.8491 0.1659 0.5014
vn 0.6088 -0.6728 0.4204
vn -0.7385 0.5718 0.3573
vn -0.4512 0.3989 0.7983
vn 0.3252 -0.9386 -0.1151
vn 0.5539 -0.8164 -0.1636
vn -0.2935 0.8480 -0.4413
vn -0.0536 -0.9848 0.1651
vn -0.4143 -0.9101 0.0067
vn 0.0752 -0.7185 -0.6914
vn -0.3439 0.0352 -0.9383
vn 0.2791 0.5223 -0.8058
vn -0.7171 -0.1579 -0.6788
vn -0.0366 0.9088 -0.4156
vn -0.1510 0.0032 0.9885
vn -0.7864 -0.4915 -0.3742
vn -0.6508 -0.7559 -0.0716
vn -0.1092 -0.9931 -0.0417
vn 0.1232 -0.9895 0.0755
vn 0.0677 -0.9963 -0.0523
vn 0.4656 -0.8365 0.2889
vn 0.4072 -0.5727 0.7115
vn 0.3871 -0.2648 0.8832
vn -0.8523 -0.0116 0.5230
vn -0.9477 0.3190 0.0124
vn -0.8585 0.3010 0.4151
vn -0.5217 0.7815 -0.3422
vn -0.9995 0.0298 -0.0102
vn -0.9368 -0.3500 -0.0009
vn 0.6665 0.7269 0.1652
vn -0.8323 -0.3285 -0.4466
vn 0.6016 0.7914 -0.1086
vn 0.7701 0.6378 0.0135
vn 0.2558 0.7469 -0.6138
vn 0.9609 0.2766 0.0115
vn 0.9408 -0.3367 -0.0393
vn 0.9924 0.0212 0.1216
vn 0.7195 -0.6945 -0.0085
vn 0.7029 0.1849 0.6868
vn 0.6551 0.6982 0.2888
vn 0.0950 0.9893 0.1108
vn 0.6838 -0.2177 0.6964
vn 0.7970 -0.3064 0.5206
vn 0.1673 0.7914 0.5879
vn 0.0775 -0.6846 0.7248
vn -0.2121 0.9246 -0.3164
vn -0.4982 -0.0172 0.8669
vn -0.1467 0.0324 0.9887
vn 0.0846 -0.9110 0.4036
vn 0.0777 0.9877 -0.1355
vn 0.7174 0.0789 -0.6922
vn -0.7906 0.2505 -0.5587
vn -0.3349 -0.9408 0.0527
vn 0.5421 0.4070 -0.7352
vn 0.0247 0.7097 -0.7041
vn -0.7815 0.2569 0.5685
vn 0.2995 0.7794 -0.5503
vn -0.7438 0.6648 0.0691
vn -0.4919 0.8378 -0.2371
vn 0.4875 0.2429 0.8386
vn 0.4944 -0.3289 0.8046
vn 0.2058 0.2345 0.9501
vn -0.7498 0.5203 -0.4089
vn -0.8511 0.1089 0.5135
vn -0.5508 0.2810 0.7859
vn -0.6189 -0.3186 0.7179
usemtl None
s off
f 5//1 4//1 3//1
f 7//2 8//2 4//2
f 11//3 10//3 8//3
f 13//4 10//4 12//4
f 22//5 23//5 24//5
f 25//6 27//6 26//6
f 27//7 28//7 26//7
f 13//8 27//8 29//8
f 28//9 17//9 26//9
f 29//10 27//10 2//10
f 25//11 2//11 27//11
f 25//12 30//12 24//12
f 20//13 24//13 30//13
f 24//14 1//14 2//14
f 32//15 23//15 31//15
f 33//16 1//16 32//16
f 66//17 21//17 20//17
f 18//18 26//18 17//18
f 16//19 36//19 17//19
f 37//20 38//20 36//20
f 37//21 40//21 39//21
f 49//22 47//22 48//22
f 52//23 54//23 53//23
f 41//24 54//24 39//24
f 54//25 55//25 39//25
f 52//26 55//26 54//26
f 57//27 56//27 52//27
f 56//28 67//28 55//28
f 97//29 58//29 64//29
f 61//30 59//30 60//30
f 62//31 63//31 61//31
f 68//32 66//32 19//32
f 60//33 59//33 70//33
f 78//34 72//34 77//34
f 77//35 79//35 78//35
f 78//36 32//36 31//36
f 88//37 83//37 87//37
f 33//38 88//38 6//38
f 90//39 74//39 91//39
f 90//40 91//40 92//40
f 49//41 92//41 91//41
f 93//42 84//42 82//42
f 76//43 94//43 82//43
f 86//44 45//44 89//44
f 45//45 86//45 93//45
f 91//46 98//46 70//46
f 95//47 91//47 70//47
f 50//48 91//48 95//48
f 96//49 95//49 69//49
f 96//50 69//50 97//50
f 69//51 58//51 97//51
f 69//52 95//52 70//52
f 14//53 15//53 12//53 11//53
f 98//54 60//54 70//54
f 55//55 67//55 38//55
f 50//56 95//56 51//56
f 47//57 53//57 46//57
f 9//58 89//58 43//58
f 55//59 38//59 39//59
f 37//60 39//60 38//60
f 14//61 37//61 16//61
f 11//62 8//62 42//62
f 87//63 7//63 4//63
f 5//64 87//64 4//64
f 29//65 3//65 13//65
f 2//66 6//66 3//66
f 5//67 3//67 6//67
f 3//68 29//68 2//68
f 6//69 2//69 1//69
f 4//70 13//70 3//70
f 85//71 84//71 93//71
f 8//72 9//72 43//72
f 2//73 25//73 24//73
f 13//74 12//74 27//74
f 31//75 23//75 35//75
f 21//76 22//76 20//76
f 19//77 20//77 30//77
f 34//78 21//78 62//78
f 35//79 34//79 71//79
f 17//80 15//80 16//80
f 79//81 88//81 33//81
f 88//82 87//82 6//82
f 81//83 79//83 77//83
f 83//84 88//84 81//84
f 82//85 75//85 76//85
f 32//86 78//86 79//86
f 28//87 12//87 15//87
f 35//88 71//88 80//88
f 40//89 41//89 39//89
f 10//90 11//90 12//90
f 1//91 23//91 32//91
f 4//92 10//92 13//92
f 24//93 20//93 22//93
f 28//94 15//94 17//94
f 62//95 21//95 63//95
f 58//96 63//96 64//96
f 5//97 6//97 87//97
f 9//98 86//98 89//98
f 94//99 90//99 92//99
f 42//100 43//100 41//100
f 49//101 91//101 50//101
f 71//102 34//102 62//102
f 19//103 18//103 36//103
f 69//104 70//104 59//104
f 79//105 81//105 88//105
f 90//106 94//106 76//106
f 94//107 93//107 82//107
f 89//108 45//108 44//108
f 69//109 59//109 58//109
f 95//110 96//110 51//110
f 8//111 7//111 9//111
f 10//112 4//112 8//112
f 34//113 35//113 22//113 21//113
f 11//114 42//114 14//114
f 15//115 14//115 16//115
f 28//116 27//116 12//116
f 26//117 30//117 25//117
f 23//118 1//118 24//118
f 26//119 18//119 19//119 30//119
f 23//120 22//120 35//120
f 51//121 52//121 53//121 50//121
f 36//122 18//122 17//122
f 16//123 37//123 36//123
f 42//124 41//124 40//124
f 14//125 42//125 40//125
f 42//126 8//126 43//126
f 43//127 89//127 44//127
f 44//128 45//128 46//128
f 46//129 48//129 47//129
f 67//130 56//130 57//130 65//130
f 66//131 65//131 64//131 63//131
f 97//132 64//132 65//132
f 61//133 71//133 62//133
f 67//134 65//134 66//134 68//134
f 36//135 38//135 67//135 68//135
f 73//136 74//136 76//136 75//136
f 68//137 19//137 36//137
f 72//138 73//138 75//138 77//138
f 77//139 75//139 82//139 81//139
f 80//140 78//140 31//140
f 82//141 84//141 83//141 81//141
f 86//142 87//142 83//142 85//142
f 83//143 84//143 85//143
f 86//144 9//144 7//144 87//144
f 92//145 48//145 93//145 94//145
f 76//146 74//146 90//146
f 98//147 74//147 73//147 60//147
f 93//148 48//148 45//148
f 86//149 85//149 93//149
f 74//150 98//150 91//150
f 53//151 54//151 44//151 46//151
f 80//152 71//152 60//152
f 51//153 57//153 52//153
f 47//154 50//154 53//154
f 54//155 41//155 43//155 44//155
f 80//156 60//156 73//156 72//156
f 33//157 6//157 1//157
f 66//158 20//158 19//158
f 37//159 14//159 40//159
f 33//160 32//160 79//160
f 80//161 31//161 35//161
f 96//162 97//162 57//162
f 72//163 78//163 80//163
f 58//164 59//164 61//164 63//164
f 60//165 71//165 61//165
f 92//166 49//166 48//166
f 48//167 46//167 45//167
f 47//168 49//168 50//168
f 63//169 21//169 66//169
f 97//170 65//170 57//170
f 57//171 51//171 96//171
f 52//172 56//172 55//172
