# Blender v2.83.4 OBJ File: ''
# www.blender.org
mtllib rock_1_lowpoly.mtl
o Mball.001_Mesh.001
v 2.337818 0.545736 2.611852
v 1.021471 0.332245 0.872249
v 2.290657 -0.321407 2.405776
v 1.487938 -0.637698 1.381481
v 0.369069 -0.775753 4.563609
v -0.872482 -0.422972 4.986959
v 0.596421 1.627016 4.253907
v 1.303089 -0.249290 4.930640
v 0.386620 1.625674 1.598592
v -0.990977 0.515993 4.907909
v -1.440403 -0.896133 2.490458
v -2.075364 0.559288 2.560489
v -2.305954 -0.345421 2.590042
v -1.463251 -0.389150 1.313379
v -0.892802 1.277729 1.692558
v -0.669266 1.637564 4.093431
vn 0.4165 -0.9080 -0.0460
vn 0.4718 -0.6749 -0.5674
vn 0.1074 -0.2035 -0.9732
vn -0.4925 -0.3523 -0.7958
vn 0.3380 -0.8906 0.3043
vn 0.1320 -0.9169 0.3768
vn -0.8863 0.4532 -0.0951
vn -0.3809 0.8238 0.4197
vn -0.5585 0.5411 -0.6288
vn -0.2953 -0.9522 -0.0783
vn -0.2000 -0.9132 0.3551
vn -0.5366 -0.8438 0.0020
vn 0.4868 0.5142 -0.7061
vn 0.9181 0.3921 -0.0575
vn 0.9861 -0.0143 -0.1655
vn 0.0189 0.0862 0.9961
vn 0.1376 0.8151 -0.5627
vn -0.2666 0.8662 -0.4227
vn -0.2687 0.9559 -0.1183
vn -0.0317 0.9494 0.3124
vn 0.0085 1.0000 -0.0012
vn -0.5743 0.5825 0.5753
vn 0.9212 -0.1367 0.3642
vn 0.5143 0.6330 0.5786
vn 0.5033 0.4524 0.7362
vn -0.9706 0.2321 -0.0643
vn -0.8795 0.0811 0.4688
vn 0.1161 0.3754 0.9196
usemtl Material.001
s 1
f 3//1 4//2 2//3
f 4//2 14//4 2//3
f 4//2 8//5 5//6
f 12//7 16//8 15//9
f 11//10 6//11 13//12
f 2//13 1//14 3//15
f 2//3 14//4 15//9
f 6//16 8//16 10//16
f 14//4 4//2 11//10
f 4//2 5//6 11//10
f 9//17 2//13 15//18
f 9//17 15//18 16//19
f 6//11 11//10 5//6
f 6//11 5//6 8//5
f 4//2 3//1 8//5
f 13//12 14//4 11//10
f 7//20 9//21 16//8
f 7//20 16//8 10//22
f 2//13 9//17 1//14
f 1//14 8//23 3//15
f 7//24 8//25 1//14
f 14//4 13//26 12//7 15//9
f 9//17 7//24 1//14
f 16//8 12//7 10//22
f 13//26 6//27 10//27 12//7
f 7//24 10//28 8//25
