# Blender v2.83.4 OBJ File: 'campfire.blend'
# www.blender.org
mtllib rock_2.mtl
o Mball.002_Mesh.004
v 3.473067 0.178825 1.848485
v 3.604585 -0.233894 1.750822
v 3.463063 -0.643561 2.132688
v 2.991577 -0.974902 2.651302
v 3.189670 -0.590368 2.787169
v 3.275152 -0.195340 2.846439
v 2.506623 -0.995607 3.629426
v 2.477839 -1.194313 2.776402
v 2.232670 -1.042404 3.778296
v 2.845555 -1.362374 1.977769
v 2.378857 -1.444918 1.941651
v 2.844182 -1.393339 1.554909
v 3.314412 -1.069782 1.806542
v 1.942026 -1.387760 1.569150
v 2.357735 -1.363783 1.224489
v 1.295409 -1.033309 1.066523
v 2.452764 -1.054640 0.823817
v 2.249995 -0.647008 0.619047
v 2.206257 -0.256588 0.555000
v 2.578466 0.207798 0.688976
v 1.391754 0.716618 0.861701
v 2.784684 0.621004 1.143262
v 3.124976 0.617615 1.564126
v 3.236481 0.243885 1.066401
v 3.361053 -0.205575 1.025976
v 3.030958 -0.608966 0.761949
v 3.378563 -0.784783 1.218637
v 2.866800 -1.144860 1.032627
v 3.540824 -0.597052 1.580746
v 2.872422 -0.210924 0.661128
v 2.642411 0.871531 2.461584
v 3.060063 0.560758 2.566361
v 3.218866 0.153594 2.968630
v 1.650243 1.017694 1.346973
v 1.957718 1.095908 1.765148
v 0.772325 -0.629447 0.808744
v 0.584166 -1.015603 1.403805
v 0.263971 -0.641051 1.161612
v -0.065266 -1.086923 2.663020
v 0.553263 -1.273071 2.394252
v 0.514036 -1.350523 3.075955
v 1.531664 -1.284946 2.285088
v 0.766798 -1.314037 3.453481
v 0.320030 -1.021256 3.910900
v 0.413604 -0.658149 4.243635
v -0.143966 -0.604115 4.001020
v -0.301691 -0.029619 4.086377
v 0.032206 -0.042928 4.300436
v -0.121181 0.736324 4.004919
v -0.448014 0.634177 3.716814
v -0.651133 0.403604 3.351106
v -0.639470 -0.431235 3.303954
v -0.486110 -0.484556 3.720776
v -0.157278 -1.069009 3.294577
v -0.495416 -0.605725 2.669715
v -0.641830 -0.187394 2.703610
v -0.681695 0.233150 2.762747
v 0.055440 1.080164 1.839583
v 0.244838 1.596799 2.223116
v 0.705321 2.000557 2.503814
v 0.782341 1.548947 1.795104
v 1.074202 1.120965 1.259598
v 0.642233 0.742637 0.937075
v 0.237036 0.568528 1.128238
v 0.141858 0.162767 1.038027
v 0.786458 0.276480 0.640756
v 0.141642 -0.215385 1.035042
v 0.723822 -0.175633 0.654484
v -0.181368 1.288838 2.515055
v 0.315641 1.856343 2.725616
v 1.212729 1.742177 2.038075
v 1.553382 1.871032 2.986049
v 1.222842 1.938555 3.253112
v 0.814266 1.870370 3.454484
v 2.120853 1.039922 3.929921
v 1.405649 1.183148 4.036243
v 2.426606 1.038529 3.718528
v 2.388813 1.216527 3.218323
v 2.962584 0.658166 3.514266
v 1.495639 1.889010 2.545507
v 2.730641 0.581931 3.994666
v 2.336567 0.524719 4.277509
v 2.800593 -0.000000 4.161383
v 2.296015 0.190433 4.404662
v 2.332378 -0.194112 4.395895
v 2.292485 -0.561024 4.277793
v 2.851422 -0.642764 3.828045
v 3.086077 0.011520 3.796905
v 1.501862 -0.927347 4.027016
v 0.739172 1.425298 3.906724
v 0.079761 1.398541 3.625699
v 0.337356 0.818973 4.212244
v 0.690012 -0.036824 4.446228
v 0.836912 0.773108 4.303191
v -0.325551 1.181014 3.143137
v -0.511481 0.812450 2.748423
v -0.296862 0.665190 2.073979
v 0.509849 1.933355 3.082086
vn 0.7693 -0.5250 0.3640
vn 0.4246 -0.8848 0.1918
vn 0.1476 -0.9520 0.2683
vn 0.5440 -0.8369 0.0595
vn 0.5355 0.7286 -0.4271
vn 0.7445 -0.1904 -0.6399
vn 0.5846 -0.5013 -0.6379
vn 0.8658 -0.4809 -0.1386
vn 0.2999 -0.5017 -0.8114
vn 0.9037 0.0409 -0.4262
vn 0.9441 -0.0780 -0.3203
vn 0.5805 0.2311 -0.7808
vn 0.4473 0.3682 -0.8151
vn 0.9055 0.3465 -0.2451
vn 0.5813 0.8094 0.0836
vn 0.8297 0.5212 0.2000
vn 0.0401 0.4037 -0.9140
vn 0.1847 -0.3662 -0.9120
vn -0.1637 -0.6727 -0.7216
vn -0.3897 -0.7114 -0.5849
vn -0.3752 -0.8942 -0.2442
vn -0.5216 0.2108 0.8267
vn -0.7783 -0.5915 0.2107
vn -0.3952 -0.9180 -0.0315
vn -0.7432 -0.6631 -0.0895
vn -0.7977 -0.6029 -0.0153
vn -0.9954 -0.0898 -0.0326
vn -0.8727 -0.2726 -0.4052
vn -0.7832 0.3925 -0.4822
vn -0.3532 0.7711 -0.5298
vn -0.1454 0.7327 -0.6648
vn -0.0681 -0.0209 -0.9975
vn -0.4918 0.7999 -0.3439
vn 0.5561 0.7954 0.2410
vn 0.6191 0.7535 0.2214
vn 0.6140 0.7754 -0.1477
vn 0.7667 -0.2468 0.5927
vn 0.9800 0.0972 0.1738
vn -0.3024 0.7040 0.6426
vn -0.3362 0.5919 0.7325
vn -0.4252 0.5435 0.7238
vn -0.0265 0.3582 0.9333
vn 0.0901 0.4525 0.8872
vn 0.0157 -0.5876 0.8090
vn -0.0013 -0.3095 0.9509
vn -0.6548 0.7291 0.1992
vn -0.6424 0.7379 0.2070
vn -0.7423 0.5570 0.3724
vn -0.8403 0.5326 -0.1015
vn -0.8406 0.4078 -0.3565
vn -0.7957 0.4410 -0.4152
vn -0.7409 0.6693 -0.0552
vn -0.0079 -0.9937 -0.1122
vn -0.3522 0.9359 -0.0103
vn -0.8357 -0.3628 -0.4123
vn -0.8778 0.4262 0.2188
vn -0.6650 -0.2851 0.6903
vn 0.0428 -0.8529 0.5203
vn -0.7036 -0.6242 -0.3397
vn -0.5908 -0.7288 -0.3460
vn -0.2017 -0.9037 -0.3778
vn -0.0611 -0.9540 0.2936
vn 0.6017 -0.7471 0.2825
vn 0.8249 -0.5106 0.2424
vn 0.9148 -0.3924 0.0958
vn 0.9553 -0.0603 0.2894
vn 0.8860 -0.2503 0.3904
vn 0.9673 -0.2248 0.1173
vn 0.9335 0.2330 0.2725
vn 0.7659 -0.5373 0.3531
vn 0.0287 -0.0201 0.9994
vn 0.1401 -0.9733 0.1818
vn 0.9133 0.2798 -0.2959
vn 0.6409 -0.7159 -0.2771
vn 0.3689 0.9273 -0.0640
vn 0.1896 0.6820 -0.7064
vn 0.1440 0.1660 -0.9755
vn 0.2284 0.7681 -0.5982
vn 0.4668 0.7416 -0.4819
vn -0.1454 -0.7664 -0.6258
vn 0.9436 0.2663 0.1969
vn 0.9149 -0.3162 0.2508
vn 0.6267 0.6640 0.4079
vn 0.7555 0.2627 0.6001
vn 0.2346 0.6093 0.7575
vn 0.6979 0.7162 -0.0018
vn 0.2252 -0.8836 -0.4106
vn 0.4698 0.7429 -0.4769
vn -0.3355 -0.9337 -0.1254
vn 0.1684 -0.9831 0.0714
vn 0.7527 0.6527 0.0858
vn 0.5820 -0.7530 0.3070
vn 0.3753 0.5945 -0.7111
vn 0.1223 -0.7996 -0.5879
vn -0.0499 0.6803 -0.7312
vn -0.5368 0.6140 -0.5787
vn 0.9259 -0.2437 0.2886
vn 0.1183 -0.7220 0.6817
vn -0.1096 0.5043 0.8566
vn 0.0913 -0.9952 0.0350
vn -0.6515 0.5161 0.5561
vn 0.2286 0.7407 -0.6317
vn -0.1274 -0.1744 -0.9764
vn -0.6763 0.6890 -0.2606
vn 0.8191 0.3538 0.4516
vn 0.0239 0.5219 0.8527
vn 0.0444 0.1659 0.9851
vn -0.0192 -0.6728 0.7396
vn -0.7029 0.5718 -0.4231
vn -0.9151 0.3989 0.0586
vn 0.2741 -0.9386 0.2094
vn 0.4398 -0.8164 0.3743
vn 0.2091 0.8480 -0.4870
vn -0.1676 -0.9848 0.0454
vn -0.2321 -0.9101 -0.3432
vn 0.6201 -0.7185 -0.3150
vn 0.5977 0.0352 -0.8010
vn 0.8273 0.5223 -0.2068
vn 0.1763 -0.1579 -0.9716
vn 0.3280 0.9088 -0.2579
vn -0.9103 0.0032 0.4140
vn -0.1166 -0.4915 -0.8630
vn -0.2958 -0.7559 -0.5841
vn -0.0248 -0.9931 -0.1143
vn 0.0041 -0.9895 0.1445
vn 0.0808 -0.9963 0.0281
vn 0.0126 -0.8365 0.5478
vn -0.3731 -0.5727 0.7299
vn -0.5279 -0.2648 0.8070
vn -0.9038 -0.0116 -0.4277
vn -0.5285 0.3190 -0.7867
vn -0.8169 0.3010 -0.4919
vn 0.0013 0.7815 -0.6239
vn -0.5379 0.0298 -0.8425
vn -0.5114 -0.3500 -0.7849
vn 0.2261 0.7269 0.6484
vn -0.0811 -0.3285 -0.9410
vn 0.4199 0.7914 0.4444
vn 0.4097 0.6378 0.6522
vn 0.6538 0.7469 -0.1214
vn 0.5157 0.2766 0.8109
vn 0.5473 -0.3367 0.7662
vn 0.4407 0.0212 0.8974
vn 0.4005 -0.6945 0.5978
vn -0.1908 0.1849 0.9640
vn 0.1164 0.6982 0.7064
vn -0.0408 0.9893 0.1402
vn -0.2093 -0.2177 0.9533
vn -0.0002 -0.3064 0.9519
vn -0.4008 0.7914 0.4615
vn -0.5645 -0.6846 0.4611
vn 0.1490 0.9246 -0.3506
vn -0.9982 -0.0172 0.0568
vn -0.9080 0.0324 0.4177
vn -0.2917 -0.9110 0.2915
vn 0.1560 0.9877 -0.0090
vn 0.9718 0.0789 0.2223
vn 0.0356 0.2505 -0.9674
vn -0.2272 -0.9408 -0.2516
vn 0.9119 0.4070 0.0520
vn 0.6030 0.7097 -0.3642
vn -0.9033 0.2569 -0.3435
vn 0.6245 0.7794 -0.0501
vn -0.4645 0.6648 -0.5851
vn -0.0704 0.8378 -0.5415
vn -0.4357 0.2429 0.8667
vn -0.4034 -0.3289 0.8539
vn -0.6830 0.2345 0.6917
vn -0.0676 0.5203 -0.8513
vn -0.8953 0.1089 -0.4319
vn -0.9592 0.2810 -0.0316
vn -0.9395 -0.3186 -0.1257
usemtl None
s off
f 5//1 4//1 3//1
f 7//2 8//2 4//2
f 11//3 10//3 8//3
f 13//4 10//4 12//4
f 22//5 23//5 24//5
f 25//6 27//6 26//6
f 27//7 28//7 26//7
f 13//8 27//8 29//8
f 28//9 17//9 26//9
f 29//10 27//10 2//10
f 25//11 2//11 27//11
f 25//12 30//12 24//12
f 20//13 24//13 30//13
f 24//14 1//14 2//14
f 32//15 23//15 31//15
f 33//16 1//16 32//16
f 66//17 21//17 20//17
f 18//18 26//18 17//18
f 16//19 36//19 17//19
f 37//20 38//20 36//20
f 37//21 40//21 39//21
f 49//22 47//22 48//22
f 52//23 54//23 53//23
f 41//24 54//24 39//24
f 54//25 55//25 39//25
f 52//26 55//26 54//26
f 57//27 56//27 52//27
f 56//28 67//28 55//28
f 97//29 58//29 64//29
f 61//30 59//30 60//30
f 62//31 63//31 61//31
f 68//32 66//32 19//32
f 60//33 59//33 70//33
f 78//34 72//34 77//34
f 77//35 79//35 78//35
f 78//36 32//36 31//36
f 88//37 83//37 87//37
f 33//38 88//38 6//38
f 90//39 74//39 91//39
f 90//40 91//40 92//40
f 49//41 92//41 91//41
f 93//42 84//42 82//42
f 76//43 94//43 82//43
f 86//44 45//44 89//44
f 45//45 86//45 93//45
f 91//46 98//46 70//46
f 95//47 91//47 70//47
f 50//48 91//48 95//48
f 96//49 95//49 69//49
f 96//50 69//50 97//50
f 69//51 58//51 97//51
f 69//52 95//52 70//52
f 14//53 15//53 12//53 11//53
f 98//54 60//54 70//54
f 55//55 67//55 38//55
f 50//56 95//56 51//56
f 47//57 53//57 46//57
f 9//58 89//58 43//58
f 55//59 38//59 39//59
f 37//60 39//60 38//60
f 14//61 37//61 16//61
f 11//62 8//62 42//62
f 87//63 7//63 4//63
f 5//64 87//64 4//64
f 29//65 3//65 13//65
f 2//66 6//66 3//66
f 5//67 3//67 6//67
f 3//68 29//68 2//68
f 6//69 2//69 1//69
f 4//70 13//70 3//70
f 85//71 84//71 93//71
f 8//72 9//72 43//72
f 2//73 25//73 24//73
f 13//74 12//74 27//74
f 31//75 23//75 35//75
f 21//76 22//76 20//76
f 19//77 20//77 30//77
f 34//78 21//78 62//78
f 35//79 34//79 71//79
f 17//80 15//80 16//80
f 79//81 88//81 33//81
f 88//82 87//82 6//82
f 81//83 79//83 77//83
f 83//84 88//84 81//84
f 82//85 75//85 76//85
f 32//86 78//86 79//86
f 28//87 12//87 15//87
f 35//88 71//88 80//88
f 40//89 41//89 39//89
f 10//90 11//90 12//90
f 1//91 23//91 32//91
f 4//92 10//92 13//92
f 24//93 20//93 22//93
f 28//94 15//94 17//94
f 62//95 21//95 63//95
f 58//96 63//96 64//96
f 5//97 6//97 87//97
f 9//98 86//98 89//98
f 94//99 90//99 92//99
f 42//100 43//100 41//100
f 49//101 91//101 50//101
f 71//102 34//102 62//102
f 19//103 18//103 36//103
f 69//104 70//104 59//104
f 79//105 81//105 88//105
f 90//106 94//106 76//106
f 94//107 93//107 82//107
f 89//108 45//108 44//108
f 69//109 59//109 58//109
f 95//110 96//110 51//110
f 8//111 7//111 9//111
f 10//112 4//112 8//112
f 34//113 35//113 22//113 21//113
f 11//114 42//114 14//114
f 15//115 14//115 16//115
f 28//116 27//116 12//116
f 26//117 30//117 25//117
f 23//118 1//118 24//118
f 26//119 18//119 19//119 30//119
f 23//120 22//120 35//120
f 51//121 52//121 53//121 50//121
f 36//122 18//122 17//122
f 16//123 37//123 36//123
f 42//124 41//124 40//124
f 14//125 42//125 40//125
f 42//126 8//126 43//126
f 43//127 89//127 44//127
f 44//128 45//128 46//128
f 46//129 48//129 47//129
f 67//130 56//130 57//130 65//130
f 66//131 65//131 64//131 63//131
f 97//132 64//132 65//132
f 61//133 71//133 62//133
f 67//134 65//134 66//134 68//134
f 36//135 38//135 67//135 68//135
f 73//136 74//136 76//136 75//136
f 68//137 19//137 36//137
f 72//138 73//138 75//138 77//138
f 77//139 75//139 82//139 81//139
f 80//140 78//140 31//140
f 82//141 84//141 83//141 81//141
f 86//142 87//142 83//142 85//142
f 83//143 84//143 85//143
f 86//144 9//144 7//144 87//144
f 92//145 48//145 93//145 94//145
f 76//146 74//146 90//146
f 98//147 74//147 73//147 60//147
f 93//148 48//148 45//148
f 86//149 85//149 93//149
f 74//150 98//150 91//150
f 53//151 54//151 44//151 46//151
f 80//152 71//152 60//152
f 51//153 57//153 52//153
f 47//154 50//154 53//154
f 54//155 41//155 43//155 44//155
f 80//156 60//156 73//156 72//156
f 33//157 6//157 1//157
f 66//158 20//158 19//158
f 37//159 14//159 40//159
f 33//160 32//160 79//160
f 80//161 31//161 35//161
f 96//162 97//162 57//162
f 72//163 78//163 80//163
f 58//164 59//164 61//164 63//164
f 60//165 71//165 61//165
f 92//166 49//166 48//166
f 48//167 46//167 45//167
f 47//168 49//168 50//168
f 63//169 21//169 66//169
f 97//170 65//170 57//170
f 57//171 51//171 96//171
f 52//172 56//172 55//172
